# 3ds Max Wavefront OBJ Exporter v0.97b - (c)2007 guruware
# File Created: 27.12.2011 15:06:30

mtllib cpz_obj_roundirontower_brk_11.mtl

#
# object cpz_obj_roundirontower_brk_11
#

v  0.3600 -0.0180 0.0180
v  0.3600 -0.0180 -0.0180
v  0.3600 0.0180 -0.0180
v  0.3600 0.0180 0.0180
v  0.1800 0.1800 0.1800
v  0.1800 0.1800 -0.1800
v  0.1800 -0.1800 0.1800
v  0.1800 -0.1800 -0.1800
v  0.0000 0.0000 -0.0000
# 9 vertices

vn 1.0000 0.0000 -0.0000
vn 0.6690 0.7433 -0.0000
vn 0.6690 0.0000 0.7433
vn 0.6690 0.0000 -0.7433
vn 0.6690 -0.7433 -0.0000
vn -0.7071 0.0000 0.7071
vn -0.7071 0.7071 -0.0000
vn -0.7071 0.0000 -0.7071
vn -0.7071 -0.7071 -0.0000
# 9 vertex normals

g cpz_obj_roundirontower_brk_11
usemtl wire_255255000
s 1
f 1//1 2//1 3//1 4//1 
s 2
f 5//2 4//2 3//2 6//2 
s 4
f 7//3 1//3 4//3 5//3 
s 8
f 2//4 8//4 6//4 3//4 
s 16
f 1//5 7//5 8//5 2//5 
s 32
f 9//6 7//6 5//6 
s 64
f 9//7 5//7 6//7 
s 128
f 9//8 6//8 8//8 
s 256
f 9//9 8//9 7//9 
# 5 polygons - 4 triangles

#
# object cpz_metal_tn1_roundirontowerbar
#

v  413.7635 3410.1890 -76.8857
v  452.9474 3537.5581 -104.4730
v  411.2164 3411.6963 -96.7423
v  447.5665 3531.1560 -122.5112
v  425.4439 3405.4897 -108.7760
v  463.3739 3530.9260 -136.1012
v  483.0215 3532.1038 -130.5743
v  440.4525 3392.0010 -99.6328
v  487.3250 3535.0056 -111.7965
v  443.9627 3393.8503 -80.4988
v  471.8217 3536.1965 -98.4114
v  431.2643 3404.9814 -69.5967
v  673.4681 3555.0247 -256.6212
v  463.0609 3458.9597 -101.1798
v  661.3812 3556.8853 -259.3481
v  452.7445 3461.4521 -105.1843
v  657.4687 3563.0427 -255.4833
v  444.7615 3465.5625 -98.2736
v  447.1052 3467.1797 -87.3690
v  672.6074 3570.5310 -254.0439
v  457.4177 3464.6880 -83.3779
v  679.5547 3566.3108 -247.5339
v  465.3904 3460.5776 -90.2778
v  681.2170 3559.1257 -249.7312
v  507.6890 3383.9148 -69.6397
v  509.3817 3386.3252 -59.0616
v  502.8989 3387.6885 -51.1688
v  494.7904 3386.5098 -53.8040
v  493.4960 3383.4270 -64.1093
v  499.1071 3383.5488 -72.6165
# 30 vertices

vn -0.9366 0.3194 0.1444
vn -0.9237 0.2145 -0.3173
vn -0.9331 0.3195 0.1649
vn -0.9466 0.3083 0.0940
vn -0.1340 -0.1726 -0.9758
vn -0.6513 0.0318 -0.7581
vn -0.1082 -0.1802 -0.9776
vn 0.7342 -0.3501 -0.5817
vn 0.3795 -0.3080 -0.8724
vn 0.9320 -0.2207 0.2874
vn 0.9371 -0.3192 -0.1411
vn 0.9194 -0.2101 0.3325
vn 0.2887 0.1210 0.9497
vn 0.2457 0.1334 0.9601
vn -0.2758 0.2865 0.9175
vn -0.2940 0.2878 0.9114
vn -0.0094 -0.8449 -0.5349
vn 0.1861 -0.5446 -0.8178
vn -0.2722 -0.6092 -0.7448
vn -0.3412 -0.6794 -0.6496
vn -0.6210 0.6509 -0.4367
vn -0.6209 0.1011 -0.7774
vn -0.9517 0.1818 -0.2473
vn -0.3247 0.8163 0.4777
vn -0.1324 0.9128 0.3863
vn 0.0931 0.5359 0.8391
vn 0.3857 0.4540 0.8032
vn 0.9022 0.1097 0.4172
vn 0.6454 -0.5411 0.5391
vn 0.4393 -0.8974 0.0400
vn 0.8464 -0.5224 -0.1033
vn 0.8762 0.4197 -0.2368
vn 0.8295 0.5443 0.1257
vn 0.3418 0.5284 0.7771
vn -0.6522 -0.0700 0.7548
vn -0.8382 -0.5369 -0.0952
vn -0.8748 -0.4152 0.2496
vn -0.1228 -0.4453 -0.8869
vn 0.3289 -0.1929 -0.9244
vn -0.2171 0.9385 -0.2684
vn 0.0287 0.9802 -0.1961
vn -0.0402 0.9827 -0.1809
vn 0.0429 0.9881 -0.1478
vn -0.0314 0.9903 -0.1353
vn -0.0174 0.9887 -0.1488
vn 0.7448 0.3467 -0.5701
vn 0.6634 0.2318 -0.7114
vn 0.4120 0.2792 -0.8674
vn 0.4126 0.1716 -0.8946
vn 0.0359 0.3363 -0.9411
vn -0.1437 0.4590 -0.8767
vn 0.0481 -0.9586 0.2807
vn 0.2006 -0.9645 0.1718
vn 0.0781 -0.9733 0.2160
vn 0.0868 -0.9809 0.1740
vn -0.0097 -0.9802 0.1978
vn 0.0548 -0.9754 0.2135
vn -0.5562 -0.8112 0.1804
vn -0.4229 -0.8717 0.2474
vn -0.5573 -0.8283 0.0573
vn -0.4633 -0.8810 0.0956
vn -0.5725 -0.8150 -0.0896
vn -0.4114 -0.9113 -0.0164
# 63 vertex normals

vt 0.9048 -0.5919 0.0000
vt 0.9048 -0.7482 0.0000
vt 0.8222 -0.5971 0.0000
vt 0.8222 -0.7439 0.0000
vt 0.7891 -0.5981 0.0000
vt 0.7891 -0.7525 0.0000
vt 0.8294 -0.7594 0.0000
vt 0.8294 -0.5867 0.0000
vt 0.8975 -0.7594 0.0000
vt 0.8975 -0.5856 0.0000
vt 0.9379 -0.7519 0.0000
vt 0.9379 -0.5907 0.0000
vt 0.5303 -0.1796 0.0000
vt 0.5303 -0.5041 0.0000
vt 0.5406 -0.1822 0.0000
vt 0.5406 -0.5041 0.0000
vt 0.5509 -0.1760 0.0000
vt 0.5509 -0.5041 0.0000
vt 0.5613 -0.5041 0.0000
vt 0.5613 -0.1566 0.0000
vt 0.5716 -0.5041 0.0000
vt 0.5716 -0.1619 0.0000
vt 0.5820 -0.5041 0.0000
vt 0.5820 -0.1715 0.0000
vt 0.5923 -0.1796 0.0000
vt 0.5923 -0.5041 0.0000
vt 0.5923 -0.6108 0.0000
vt 0.5820 -0.6097 0.0000
vt 0.5716 -0.6135 0.0000
vt 0.5613 -0.6186 0.0000
vt 0.5509 -0.6207 0.0000
vt 0.5406 -0.6148 0.0000
vt 0.5303 -0.6108 0.0000
vt -0.2054 -0.5348 0.0000
vt -0.1538 -0.4130 0.0000
vt -0.3447 -0.5344 0.0000
vt -0.2228 -0.2930 0.0000
vt -0.3597 -0.2930 0.0000
vt -0.4199 -0.4137 0.0000
vt 0.5450 -0.1313 0.0000
vt 0.5785 -0.2256 0.0000
vt 0.6356 -0.0264 0.0000
vt 0.7277 -0.2210 0.0000
vt 0.8704 -0.1286 0.0000
vt 0.8596 -0.0398 0.0000
vt 0.5199 -0.4230 0.0000
vt 0.6501 -0.4852 0.0000
vt 0.5207 -0.3047 0.0000
vt 0.7867 -0.4484 0.0000
vt 0.7850 -0.3224 0.0000
vt 0.6530 -0.2538 0.0000
vt -0.3498 -0.2769 0.0000
vt -0.2380 -0.2719 0.0000
vt -0.4199 -0.1608 0.0000
vt -0.1859 -0.1495 0.0000
vt -0.3884 -0.0408 0.0000
vt -0.2640 -0.0343 0.0000
# 57 texture coords

g cpz_metal_tn1_roundirontowerbar
usemtl Standardmaterial
s 1
f 10/1/10 11/2/10 12/3/11 
s 2
f 11/2/12 13/4/13 12/3/11 
s 3
f 12/3/11 13/4/13 14/5/14 
s 4
f 13/4/15 15/6/16 14/5/14 
s 5
f 15/6/16 16/7/17 14/5/14 
s 6
f 14/5/14 16/7/17 17/8/18 
s 7
f 16/7/17 18/9/19 17/8/18 
s 8
f 17/8/20 18/9/19 19/10/21 
s 9
f 18/9/19 20/11/22 19/10/21 
s 10
f 19/10/21 20/11/22 21/12/23 
s 11
f 20/11/22 11/2/24 21/12/23 
s 12
f 21/12/23 11/2/24 10/1/25 
s 13
f 22/13/26 23/14/27 24/15/28 
s 14
f 23/14/27 25/16/29 24/15/28 
s 15
f 24/15/28 25/16/29 26/17/30 
s 16
f 25/16/31 27/18/32 26/17/30 
s 17
f 27/18/32 28/19/33 26/17/30 
s 18
f 26/17/30 28/19/33 29/20/34 
s 19
f 28/19/33 30/21/35 29/20/34 
s 20
f 29/20/34 30/21/35 31/22/36 
s 21
f 30/21/35 32/23/37 31/22/36 
s 22
f 31/22/36 32/23/37 33/24/38 
s 23
f 33/24/38 32/23/37 22/25/39 
s 24
f 22/25/39 32/23/37 23/26/40 
s 25
f 23/26/40 32/23/37 34/27/41 
s 26
f 34/27/41 32/23/37 35/28/42 
s 27
f 35/28/42 32/23/37 36/29/43 
s 28
f 32/23/37 30/21/35 36/29/43 
s 29
f 36/29/43 30/21/35 37/30/44 
s 30
f 30/21/35 28/19/33 37/30/44 
s 31
f 37/30/44 28/19/33 38/31/45 
s 32
f 28/19/46 27/18/32 38/31/45 
s 33
f 27/18/32 25/16/29 38/31/45 
s 34
f 38/31/45 25/16/29 39/32/47 
s 35
f 25/16/29 23/14/27 39/32/47 
s 36
f 39/32/47 23/14/27 34/33/48 
s 37
f 13/34/49 11/35/50 15/36/51 
s 38
f 11/35/50 20/37/52 15/36/51 
s 39
f 20/37/52 18/38/53 15/36/51 
s 40
f 15/36/51 18/38/53 16/39/54 
s 41
f 31/40/55 33/41/56 29/42/57 
s 42
f 33/41/56 22/43/58 29/42/57 
s 43
f 22/43/58 24/44/59 29/42/57 
s 44
f 29/42/57 24/44/59 26/45/60 
s 45
f 37/46/61 38/47/62 36/48/63 
s 46
f 38/47/62 39/49/64 36/48/63 
s 47
f 39/49/64 34/50/65 36/48/63 
s 48
f 36/48/63 34/50/65 35/51/66 
s 49
f 19/52/67 21/53/68 17/54/69 
s 50
f 21/53/68 10/55/70 17/54/69 
s 51
f 17/54/69 10/55/70 14/56/71 
s 52
f 10/55/70 12/57/72 14/56/71 
# 0 polygons - 52 triangles

