# 3ds Max Wavefront OBJ Exporter v0.97b - (c)2007 guruware
# File Created: 27.12.2011 03:10:22

mtllib cpz_obj_breakboxtall_brk_009.mtl

#
# object cpz_obj_breakboxtall_brk_009
#

v  0.3600 -0.0180 0.0180
v  0.3600 -0.0180 -0.0180
v  0.3600 0.0180 -0.0180
v  0.3600 0.0180 0.0180
v  0.1800 0.1800 0.1800
v  0.1800 0.1800 -0.1800
v  0.1800 -0.1800 0.1800
v  0.1800 -0.1800 -0.1800
v  0.0000 0.0000 -0.0000
# 9 vertices

vn 1.0000 0.0000 -0.0000
vn 0.6690 0.7433 -0.0000
vn 0.6690 0.0000 0.7433
vn 0.6690 0.0000 -0.7433
vn 0.6690 -0.7433 -0.0000
vn -0.7071 0.0000 0.7071
vn -0.7071 0.7071 -0.0000
vn -0.7071 0.0000 -0.7071
vn -0.7071 -0.7071 -0.0000
# 9 vertex normals

g cpz_obj_breakboxtall_brk_009
usemtl wire_255255000
s 1
f 1//1 2//1 3//1 4//1 
s 2
f 5//2 4//2 3//2 6//2 
s 4
f 7//3 1//3 4//3 5//3 
s 8
f 2//4 8//4 6//4 3//4 
s 16
f 1//5 7//5 8//5 2//5 
s 32
f 9//6 7//6 5//6 
s 64
f 9//7 5//7 6//7 
s 128
f 9//8 6//8 8//8 
s 256
f 9//9 8//9 7//9 
# 5 polygons - 4 triangles

#
# object cpz_metal_yy_slop_cmn_dpn
#

v  -33.7060 2.2913 35.9566
v  -35.9973 2.2913 33.6652
v  -33.7060 0.0000 33.6652
v  -15.7381 2.2913 35.9566
v  -33.7060 20.2592 35.9566
v  -33.7060 0.0000 15.6973
v  -15.7381 0.0000 33.6652
v  -35.9973 20.2592 33.6652
v  -35.9973 2.2913 15.6973
v  -13.0581 4.9713 33.2766
v  -13.0581 2.6799 30.9853
v  -31.0261 2.6799 13.0174
v  -33.3174 4.9713 13.0174
v  -33.3174 22.9392 30.9853
v  -31.0261 22.9392 33.2766
v  -31.6089 2.1946 31.6089
v  -33.6265 4.3546 33.6265
v  -33.6265 4.3546 4.5675
v  -31.6089 2.1946 5.2397
v  10.8579 4.3546 33.6265
v  11.0867 2.1946 31.6089
v  -15.2328 19.6126 33.2679
v  -13.9828 20.8596 30.4883
v  -15.6557 22.5910 31.8781
v  -31.8573 19.7305 18.3776
v  -30.4759 18.0900 16.6342
v  -33.2388 17.9946 16.7295
v  -33.6265 6.9454 33.6265
v  -33.6265 6.9454 3.6099
v  0.8793 2.1946 15.2504
v  -16.2251 2.1946 3.9879
v  -11.3842 2.1946 -2.7686
v  3.1047 2.1946 9.3459
v  0.2547 2.1946 -3.6684
v  -3.4253 2.1946 -7.0906
v  -15.6169 6.9454 5.0330
v  1.7085 6.9454 16.2369
v  4.0392 6.9454 10.3552
v  -10.4377 6.9454 -1.4630
v  1.9342 6.9454 -1.7435
v  -2.5896 6.9454 -6.2555
v  10.1846 6.9454 33.6265
v  -27.7943 11.7486 4.8164
v  -27.7943 11.7486 27.7943
v  -19.9042 11.7486 5.0812
v  -16.5324 11.7486 5.8414
v  0.0000 11.7486 -0.0000
v  -12.4677 11.7486 0.5630
v  -4.3875 11.7486 -4.3875
v  2.0640 11.7486 11.7476
v  0.6451 11.7486 14.3254
v  4.8834 11.7486 27.7943
v  -32.2193 46.4576 27.5007
v  -34.2830 45.2720 31.3091
v  -27.5386 46.4576 32.1814
v  -31.3469 45.2720 34.2451
# 56 vertices

vn -0.5774 -0.5774 0.5774
vn 0.0000 0.0000 1.0000
vn 0.0000 -1.0000 -0.0000
vn -1.0000 0.0000 -0.0000
vn 0.5773 0.5774 -0.5774
vn 0.5774 0.5773 -0.5773
vn 0.5774 0.5773 -0.5774
vn 0.5774 0.5774 -0.5774
vn 0.5774 0.5774 -0.5773
vn -0.7308 -0.6826 -0.0000
vn 0.0000 -0.6826 0.7308
vn 0.7858 0.3496 0.5102
vn -0.0487 0.7078 -0.7047
vn -0.7071 0.0000 0.7071
vn 0.0000 -0.7071 0.7071
vn -0.7071 -0.7071 -0.0000
vn -0.4082 0.8165 0.4082
vn -0.4083 0.8165 0.4082
vn 0.4082 0.4082 0.8165
vn 0.8165 -0.4082 0.4082
vn 0.4082 -0.8165 -0.4082
vn -0.4082 -0.4082 -0.8165
vn -0.8165 0.4082 -0.4082
vn 0.0000 1.0000 -0.0000
vn -0.1941 0.9616 0.1941
vn 0.7325 0.5045 -0.4571
vn 0.8790 -0.0055 -0.4767
vn 0.8390 0.3061 -0.4499
vn 0.8823 -0.0350 -0.4694
vn 0.8753 0.2275 -0.4267
vn 0.0739 -0.3457 -0.9354
vn 0.0026 0.1592 -0.9872
vn 0.0206 -0.2931 -0.9559
vn -0.0114 0.1728 -0.9849
vn -0.0757 -0.3601 -0.9299
vn -0.7918 0.2262 -0.5673
vn -0.7757 0.2561 -0.5768
vn -0.6157 0.3070 -0.7257
vn -0.6194 0.3072 -0.7225
vn -0.4901 0.2616 -0.8315
vn -0.5066 0.2349 -0.8296
vn 0.6810 0.0089 -0.7323
vn 0.6933 0.0228 -0.7203
vn 0.8232 -0.0768 -0.5625
vn 0.9069 -0.1433 -0.3963
vn 0.9745 -0.2176 0.0542
vn 0.9694 -0.2118 0.1244
vn 0.9050 -0.2400 0.3513
vn 0.9043 -0.2322 0.3583
# 49 vertex normals

vt 0.5924 -0.1578 0.0000
vt 0.5924 -0.2300 0.0000
vt 0.5298 -0.1939 0.0000
vt 0.6008 -0.9956 0.0000
vt 1.0012 -0.6018 0.0000
vt 1.0012 -0.9956 0.0000
vt 1.6006 0.0063 0.0000
vt 2.0010 0.4015 0.0000
vt 2.0010 0.0063 0.0000
vt 1.5996 -0.9956 0.0000
vt 2.0000 -0.5992 0.0000
vt 2.0000 -0.9956 0.0000
vt -0.4279 -0.2421 0.0000
vt -0.4417 -0.2211 0.0000
vt -0.6590 -0.2211 0.0000
vt -0.6728 -0.2421 0.0000
vt -0.5642 -0.4074 0.0000
vt -0.5365 -0.4074 0.0000
vt 1.3044 -0.9079 0.0000
vt 1.3525 -0.9079 0.0000
vt 1.3525 -0.5208 0.0000
vt 1.3044 -0.5342 0.0000
vt 1.3525 -0.3152 0.0000
vt 1.3044 -0.3027 0.0000
vt 0.5214 -0.3787 0.0000
vt 0.7174 -0.4324 0.0000
vt 0.7193 -0.2843 0.0000
vt 0.5042 -0.2725 0.0000
vt 0.3199 -0.2729 0.0000
vt 0.4126 -0.4324 0.0000
vt 1.5996 -1.0573 0.0000
vt 2.0000 -1.0573 0.0000
vt 0.6008 -1.0573 0.0000
vt 1.0012 -1.0573 0.0000
vt 1.6006 -0.0553 0.0000
vt 2.0010 -0.0553 0.0000
vt 1.5151 -0.9956 0.0000
vt 1.5151 -1.0573 0.0000
vt 0.9415 -0.5421 0.0000
vt 0.5410 -0.9425 0.0000
vt 0.5163 -0.9956 0.0000
vt 0.5163 -1.0573 0.0000
vt 1.9413 0.4612 0.0000
vt 1.5408 0.0608 0.0000
vt 1.5161 0.0063 0.0000
vt 1.5161 -0.0553 0.0000
vt 1.9403 -0.5394 0.0000
vt 1.5398 -0.9399 0.0000
vt 1.4102 -0.9079 0.0000
vt 1.4102 -0.5080 0.0000
vt 0.7006 -0.5911 0.0000
vt 0.3103 -0.5911 0.0000
vt 0.6073 -0.4415 0.0000
vt 0.4510 -0.3386 0.0000
vt 0.4952 -0.2768 0.0000
vt 0.6277 -0.3876 0.0000
vt 0.6016 -0.2686 0.0000
vt 0.5680 -0.2373 0.0000
vt 0.3103 -0.3500 0.0000
vt -0.6825 -0.2610 0.0000
vt -0.6825 -0.0062 0.0000
vt -0.5255 -0.2489 0.0000
vt -0.3744 -0.1538 0.0000
vt -0.3541 -0.2038 0.0000
vt -0.4803 -0.3041 0.0000
vt -0.3725 -0.3065 0.0000
vt -0.4119 -0.3448 0.0000
vt -0.3005 -0.0062 0.0000
vt 0.7759 -1.6794 0.0000
vt 0.9883 -1.4604 0.0000
vt 0.8514 -1.7521 0.0000
vt 0.8896 -1.7770 0.0000
vt 0.9887 -1.9902 0.0000
vt 0.8785 -1.8660 0.0000
vt 0.9075 -1.9902 0.0000
vt 0.8608 -1.8979 0.0000
vt 0.8501 -1.8598 0.0000
vt 0.6863 -1.7719 0.0000
vt 1.4102 -0.3242 0.0000
vt 0.3199 -0.4583 0.0000
vt 0.4076 -0.7336 0.0000
vt 0.7613 -0.4496 0.0000
vt 0.6845 -0.7281 0.0000
vt -0.1148 -0.4133 0.0000
vt -0.3095 -0.4133 0.0000
vt -0.0908 -0.4717 0.0000
vt -0.2978 -0.5417 0.0000
vt -0.0908 -0.5417 0.0000
vt -0.9813 -0.5536 0.0000
vt -0.7670 -0.5384 0.0000
vt -0.9823 -0.4837 0.0000
vt -0.7761 -0.4097 0.0000
vt -0.9591 -0.4236 0.0000
vt -0.7014 -0.4050 0.0000
vt -0.6950 -0.5385 0.0000
vt -0.5948 -0.4110 0.0000
vt -0.5868 -0.5420 0.0000
vt -0.5350 -0.4117 0.0000
vt -0.5115 -0.5434 0.0000
vt -0.3798 -0.4133 0.0000
vt -0.3678 -0.5417 0.0000
# 101 texture coords

g cpz_metal_yy_slop_cmn_dpn
usemtl Standardmaterial
s 1
f 10/1/10 11/2/10 12/3/10 
s 2
f 13/4/11 14/5/11 10/6/11 
s 3
f 15/7/12 16/8/12 12/9/12 
s 4
f 17/10/13 18/11/13 11/12/13 
s 5
f 19/13/14 20/14/14 21/15/14 
s 6
f 21/15/15 22/16/15 23/17/15 
s 7
f 19/13/16 21/15/17 23/17/17 
s 8
f 24/18/18 19/13/18 23/17/18 
s 9
f 25/19/19 26/20/19 27/21/19 
s 10
f 27/21/19 28/22/19 25/19/19 
s 11
f 29/23/20 26/20/20 25/19/20 
s 12
f 25/19/20 30/24/20 29/23/20 
s 13
f 31/25/21 32/26/21 33/27/21 
s 14
f 34/28/22 35/29/22 36/30/22 
s 15
f 14/31/23 17/10/23 10/32/23 
s 16
f 10/32/23 17/10/23 11/12/23 
s 17
f 16/33/24 13/4/24 12/34/24 
s 18
f 12/34/24 13/4/24 10/6/24 
s 19
f 18/35/25 15/7/25 11/36/25 
s 20
f 11/36/25 15/7/25 12/9/25 
s 21
f 17/10/26 14/31/26 23/37/26 
s 22
f 23/37/26 14/31/26 24/38/27 
s 23
f 14/5/28 13/4/28 24/39/28 
s 24
f 24/39/28 13/4/28 19/40/28 
s 25
f 13/4/29 16/33/29 19/41/29 
s 26
f 19/41/29 16/33/29 20/42/29 
s 27
f 16/8/30 15/7/30 20/43/30 
s 28
f 20/43/30 15/7/30 21/44/30 
s 29
f 15/7/31 18/35/31 21/45/31 
s 30
f 21/45/31 18/35/31 22/46/31 
s 31
f 18/11/32 17/10/32 22/47/32 
s 32
f 22/47/32 17/10/32 23/48/32 
s 33
f 26/20/13 37/49/13 27/21/13 
s 34
f 27/21/13 37/49/13 38/50/13 
s 35
f 30/51/12 25/52/12 39/53/12 
s 36
f 25/52/12 40/54/12 39/53/12 
s 37
f 40/54/12 41/55/12 39/53/12 
s 38
f 39/53/12 41/55/12 42/56/12 
s 39
f 42/56/12 41/55/12 43/57/12 
s 40
f 41/55/12 44/58/12 43/57/12 
s 41
f 25/52/12 28/59/12 40/54/12 
s 42
f 38/60/33 37/61/33 45/62/33 
s 43
f 37/61/33 46/63/33 45/62/33 
s 44
f 46/63/33 47/64/33 45/62/33 
s 45
f 45/62/33 47/64/33 48/65/33 
s 46
f 47/64/33 49/66/33 48/65/33 
s 47
f 48/65/33 49/66/33 50/67/33 
s 48
f 37/61/33 51/68/33 46/63/33 
s 49
f 52/69/33 53/70/33 54/71/33 
s 50
f 54/71/33 53/70/33 55/72/33 
s 51
f 53/70/33 56/73/33 55/72/33 
s 52
f 55/72/33 56/73/33 57/74/33 
s 53
f 56/73/33 58/75/33 57/74/33 
s 54
f 56/73/33 53/70/33 59/76/33 
s 55
f 59/76/33 53/70/33 60/77/33 
s 56
f 53/70/33 61/78/33 60/77/33 
s 57
f 37/49/11 26/20/11 51/79/11 
s 58
f 51/79/11 26/20/11 29/23/11 
s 59
f 62/80/34 63/81/34 64/82/34 
s 60
f 64/82/34 63/81/34 65/83/34 
s 61
f 30/84/35 39/85/36 29/86/37 
s 62
f 39/85/36 46/87/38 29/86/37 
s 63
f 29/86/37 46/87/38 51/88/39 
s 64
f 38/89/40 45/90/41 27/91/42 
s 65
f 45/90/41 40/92/43 27/91/42 
s 66
f 27/91/42 40/92/43 28/93/44 
s 67
f 40/92/45 45/90/46 41/94/47 
s 68
f 45/90/46 48/95/48 41/94/47 
s 69
f 41/94/47 48/95/48 44/96/49 
s 70
f 48/95/48 50/97/50 44/96/49 
s 71
f 44/96/51 50/97/52 43/98/53 
s 72
f 50/97/52 49/99/54 43/98/53 
s 73
f 43/98/53 49/99/54 42/100/55 
s 74
f 49/99/54 47/101/56 42/100/55 
s 75
f 42/100/55 47/101/56 39/85/57 
s 76
f 47/101/56 46/87/58 39/85/57 
# 0 polygons - 76 triangles

#
# object cpz_metal_st1_tank01_cmn_dpnE
#

v  -34.2830 26.6144 31.3091
v  -31.3469 26.6144 34.2451
v  -34.2830 45.2720 31.3091
v  -31.3469 45.2720 34.2451
v  -27.5386 25.4288 32.1814
v  -27.5386 46.4576 32.1814
v  -32.2193 25.4288 27.5007
v  -32.2193 46.4576 27.5007
v  3.1087 18.3694 28.1258
v  -3.1087 18.3694 28.1258
v  3.1087 18.3694 29.9573
v  -3.1087 18.3694 29.9573
v  5.7470 8.5879 29.9573
v  -5.7470 8.5879 29.9573
v  -5.7470 8.5879 28.1258
v  5.7470 8.5879 28.1258
# 16 vertices

vn -0.7071 0.0000 0.7071
vn 0.4764 0.0000 0.8792
vn 0.7071 0.0000 -0.7071
vn -0.8792 0.0000 -0.4764
vn -0.8792 -0.0000 -0.4764
vn 0.0000 1.0000 -0.0000
vn 0.0000 0.0000 1.0000
vn -0.0000 0.0000 1.0000
vn -0.9655 0.2604 -0.0000
vn -0.9655 0.2604 0.0000
vn 0.9655 0.2604 0.0000
vn 0.9655 0.2604 -0.0000
vn 0.0000 0.0000 -1.0000
# 13 vertex normals

vt 0.1090 -1.1384 0.0000
vt 0.1090 -1.0040 0.0000
vt 0.4727 -1.1384 0.0000
vt 0.4727 -1.0040 0.0000
vt 0.4020 0.1770 0.0000
vt 0.4218 0.0150 0.0000
vt 0.0915 0.1770 0.0000
vt 0.0717 0.0150 0.0000
vt 0.5316 -1.1228 0.0000
vt 0.5316 -1.0059 0.0000
vt 1.4389 -1.1228 0.0000
vt 1.4389 -1.0059 0.0000
vt 0.0722 0.0164 0.0000
vt 0.0919 0.1775 0.0000
vt 0.4215 0.0164 0.0000
vt 0.4018 0.1775 0.0000
vt 1.2629 -1.2205 0.0000
vt 0.8126 -1.2205 0.0000
vt 1.2629 -1.0088 0.0000
vt 0.8126 -1.0088 0.0000
vt 0.1315 -0.7523 0.0000
vt 0.3691 -0.7523 0.0000
vt 0.0325 -1.0632 0.0000
vt 0.4681 -1.0632 0.0000
vt 1.3990 -0.7523 0.0000
vt 1.5327 -0.7523 0.0000
vt 1.3990 -1.0632 0.0000
vt 1.5327 -1.0632 0.0000
vt 1.4038 -0.7523 0.0000
vt 1.5344 -0.7523 0.0000
vt 1.4038 -1.0632 0.0000
vt 1.5344 -1.0632 0.0000
vt 0.5524 -1.0142 0.0000
vt 0.5185 -0.7546 0.0000
vt 0.4047 -1.0142 0.0000
vt 0.4386 -0.7546 0.0000
# 36 texture coords

g cpz_metal_st1_tank01_cmn_dpnE
usemtl Standardmaterial
s 1
f 66/102/59 67/103/59 68/104/59 
s 2
f 68/104/59 67/103/59 69/105/59 
s 3
f 67/106/60 70/107/60 69/108/60 
s 4
f 69/108/60 70/107/60 71/109/60 
s 5
f 70/110/61 72/111/61 71/112/61 
s 6
f 71/112/61 72/111/61 73/113/61 
s 7
f 72/114/62 66/115/62 73/116/62 
s 8
f 73/116/63 66/115/63 68/117/63 
s 9
f 74/118/64 75/119/64 76/120/64 
s 10
f 76/120/64 75/119/64 77/121/64 
s 11
f 76/122/65 77/123/66 78/124/66 
s 12
f 78/124/66 77/123/66 79/125/66 
s 13
f 77/126/67 75/127/67 79/128/68 
s 14
f 79/128/68 75/127/67 80/129/68 
s 15
f 74/130/69 76/131/69 81/132/69 
s 16
f 81/132/70 76/131/70 78/133/70 
s 17
f 80/134/71 75/135/71 81/136/71 
s 18
f 81/136/71 75/135/71 74/137/71 
# 0 polygons - 18 triangles

#
# object cpz_yy1_road_cmn_dp
#

v  -31.3469 26.6144 34.2451
v  -34.2830 26.6144 31.3091
v  -31.3469 7.9568 34.2451
v  -34.2830 7.9568 31.3091
v  -27.5386 25.4288 32.1814
v  -27.5386 4.4000 32.1814
v  -32.2193 25.4288 27.5007
v  -32.2193 4.4000 27.5007
v  -30.4596 7.8218 31.8781
v  -15.6557 22.5910 31.8781
v  -28.7556 6.1215 30.4883
v  -13.9828 20.8596 30.4883
v  -28.7556 6.1215 33.2679
v  -15.2328 19.6126 33.2679
v  -33.2244 6.0718 28.6371
v  -33.2388 17.9946 16.7295
v  -30.4615 6.0703 28.6386
v  -30.4759 18.0900 16.6342
v  -31.8430 7.7640 30.3289
v  -31.8573 19.7305 18.3776
# 20 vertices

vn -0.7071 0.0000 0.7071
vn -0.7071 -0.0000 0.7071
vn 0.4764 0.0000 0.8792
vn 0.7071 0.0000 -0.7071
vn -0.8792 0.0000 -0.4764
vn -0.3531 0.3540 -0.8660
vn 0.7063 -0.7079 0.0000
vn -0.3531 0.3540 0.8660
vn 0.0000 -0.7067 -0.7076
vn -0.8660 0.3528 0.3543
vn 0.8660 0.3538 0.3533
# 11 vertex normals

vt 0.6646 0.3348 0.0000
vt 0.6646 0.4229 0.0000
vt 0.3202 0.3348 0.0000
vt 0.3202 0.4229 0.0000
vt 0.2593 0.4229 0.0000
vt 0.2593 0.3348 0.0000
vt 1.3838 -1.2785 0.0000
vt 1.3838 -0.9323 0.0000
vt 1.3482 -1.2785 0.0000
vt 1.3482 -0.9330 0.0000
vt 1.3483 -1.2785 0.0000
vt 1.3839 -1.2785 0.0000
vt 1.3483 -0.9623 0.0000
vt 1.3839 -0.9330 0.0000
vt 1.3483 -1.2769 0.0000
vt 1.3483 -0.9986 0.0000
vt 1.3839 -1.2769 0.0000
vt 1.3839 -0.9963 0.0000
vt 1.3839 -0.9975 0.0000
vt 1.3482 -1.2769 0.0000
vt 1.3482 -0.9963 0.0000
# 21 texture coords

g cpz_yy1_road_cmn_dp
usemtl Standardmaterial
s 1
f 82/138/72 83/139/72 84/140/72 
s 2
f 84/140/73 83/139/73 85/141/73 
s 3
f 82/138/74 84/140/74 86/139/74 
s 4
f 86/139/74 84/140/74 87/142/74 
s 5
f 88/138/75 86/139/75 89/143/75 
s 6
f 89/143/75 86/139/75 87/142/75 
s 7
f 83/139/76 88/138/76 85/141/76 
s 8
f 85/141/76 88/138/76 89/143/76 
s 9
f 90/144/77 91/145/77 92/146/77 
s 10
f 92/146/77 91/145/77 93/147/77 
s 11
f 94/148/78 92/149/78 95/150/78 
s 12
f 95/150/78 92/149/78 93/151/78 
s 13
f 94/148/79 95/150/79 90/144/79 
s 14
f 90/144/79 95/150/79 91/145/79 
s 15
f 96/152/80 97/153/80 98/154/80 
s 16
f 98/154/80 97/153/80 99/155/80 
s 17
f 100/154/81 101/156/81 96/152/81 
s 18
f 96/152/81 101/156/81 97/153/81 
s 19
f 98/157/82 99/158/82 100/154/82 
s 20
f 100/154/82 99/158/82 101/156/82 
# 0 polygons - 20 triangles

#
# object ccp_metal_yy_yelow_Cmn_dpn
#

v  -27.7943 11.7486 27.7943
v  -31.3943 11.7486 31.3943
v  4.8838 11.7486 31.3943
v  4.8834 11.7486 27.7943
v  -31.3943 11.7486 4.6686
v  -27.7943 11.7486 4.8164
v  -31.3943 6.9696 31.3943
v  -31.3943 6.9696 4.3466
v  10.1591 6.9696 31.3943
v  6.7256 6.6380 27.5952
v  0.6451 11.7486 14.3254
v  0.6451 6.6380 14.3254
v  -27.7943 6.6380 4.8164
v  -19.9042 6.6380 5.0812
v  -19.9042 11.7486 5.0812
v  -16.5324 6.6380 5.8414
v  -16.5324 11.7486 5.8414
v  -12.4677 6.6380 0.5630
v  -12.4677 11.7486 0.5630
v  -4.3875 6.6380 -4.3875
v  -4.3875 11.7486 -4.3875
v  0.0000 6.6380 -0.0000
v  0.0000 11.7486 -0.0000
v  2.0640 6.6380 11.7476
v  2.0640 11.7486 11.7476
# 25 vertices

vn 0.0000 1.0000 -0.0000
vn -1.0000 0.0000 -0.0000
vn 0.0000 0.0000 1.0000
vn 0.6714 0.7411 -0.0001
vn 0.7491 0.4972 -0.4378
vn 0.8306 0.4799 -0.2826
vn 0.8143 0.2762 -0.5105
vn 0.9173 0.0763 -0.3909
vn 0.9091 0.0000 -0.4166
vn 0.1351 0.0666 -0.9886
vn 0.0782 0.0262 -0.9966
vn 0.0640 0.0190 -0.9978
vn 0.0381 0.0000 -0.9993
vn 0.1273 0.0000 -0.9919
vn 0.0335 0.0000 -0.9994
vn 0.2199 0.0000 -0.9755
vn -0.7923 0.0000 -0.6101
vn -0.6685 0.0000 -0.7438
vn -0.5224 -0.0000 -0.8527
vn 0.7071 -0.0000 -0.7071
vn 0.8872 -0.0000 -0.4615
vn 0.8872 0.0000 -0.4615
vn 0.9865 -0.0000 0.1639
vn 0.8760 -0.0000 0.4822
vn 0.8760 0.0000 0.4822
# 25 vertex normals

vt 2.8859 -0.1762 0.0000
vt 2.9997 -0.2878 0.0000
vt 1.8455 -0.2878 0.0000
vt 1.8453 -0.1762 0.0000
vt 3.8501 -0.2878 0.0000
vt 3.1139 -0.1762 0.0000
vt 3.8455 -0.1762 0.0000
vt 2.9998 -0.5345 0.0000
vt 3.8604 -0.5345 0.0000
vt 1.6776 -0.5345 0.0000
vt 0.9900 -0.9900 0.0000
vt 0.9900 -0.8408 0.0000
vt 0.8776 -0.9900 0.0000
vt 0.8714 -0.8305 0.0000
vt 0.4572 -0.9900 0.0000
vt 0.4572 -0.8305 0.0000
vt -1.1082 -0.8408 0.0000
vt -1.1082 -0.9900 0.0000
vt -0.9958 -0.8305 0.0000
vt -0.9958 -0.9900 0.0000
vt -0.7495 -0.8305 0.0000
vt -0.7495 -0.9900 0.0000
vt -0.6443 -0.8305 0.0000
vt -0.6443 -0.9900 0.0000
vt -0.4795 -0.8305 0.0000
vt -0.4795 -0.9900 0.0000
vt -0.1837 -0.8305 0.0000
vt -0.1837 -0.9900 0.0000
vt 0.0100 -0.8305 0.0000
vt 0.0100 -0.9900 0.0000
vt 0.3767 -0.8305 0.0000
vt 0.3767 -0.9900 0.0000
# 32 texture coords

g ccp_metal_yy_yelow_Cmn_dpn
usemtl Standardmaterial
s 1
f 102/159/83 103/160/83 104/161/83 
s 2
f 104/161/83 105/162/83 102/159/83 
s 3
f 106/163/83 103/160/83 102/164/83 
s 4
f 102/164/83 107/165/83 106/163/83 
s 5
f 103/160/84 106/163/84 108/166/84 
s 6
f 108/166/84 106/163/84 109/167/84 
s 7
f 103/160/85 108/166/85 104/161/85 
s 8
f 104/161/85 108/166/85 110/168/85 
s 9
f 104/169/86 110/170/87 105/171/88 
s 10
f 110/170/87 111/172/89 105/171/88 
s 11
f 105/171/88 111/172/89 112/173/90 
s 12
f 111/172/89 113/174/91 112/173/90 
s 13
f 109/175/92 106/176/93 114/177/94 
s 14
f 106/176/93 107/178/95 114/177/94 
s 15
f 114/177/94 107/178/95 115/179/96 
s 16
f 107/178/97 116/180/96 115/179/96 
s 17
f 115/179/96 116/180/96 117/181/98 
s 18
f 116/180/96 118/182/98 117/181/98 
s 19
f 117/181/99 118/182/99 119/183/100 
s 20
f 118/182/99 120/184/100 119/183/100 
s 21
f 119/183/100 120/184/100 121/185/101 
s 22
f 120/184/100 122/186/101 121/185/101 
s 23
f 121/185/102 122/186/102 123/187/103 
s 24
f 122/186/102 124/188/104 123/187/103 
s 25
f 123/187/103 124/188/104 125/189/105 
s 26
f 124/188/104 126/190/105 125/189/105 
s 27
f 125/189/105 126/190/105 113/174/106 
s 28
f 126/190/105 112/173/107 113/174/106 
# 0 polygons - 28 triangles

#
# object cpz_glass_tn1_glasstube
#

v  -14.3729 27.8370 28.2118
v  -16.2698 22.6393 28.2118
v  -6.4420 13.8462 28.2118
v  -28.2118 22.1565 20.4723
v  -28.2118 13.8462 23.8672
v  -28.2118 35.4292 23.8672
v  -23.8672 13.8462 28.2118
v  -23.8672 36.7891 28.2118
v  -25.9767 9.8285 21.9763
v  -21.9763 9.8285 25.9767
v  -3.5296 9.8285 25.9767
v  -28.2118 13.8462 4.7484
v  -25.9767 9.8285 4.9475
v  -20.5955 45.2132 28.2118
v  -28.2118 30.0401 12.6031
v  -24.7636 10.3277 4.5219
v  -26.8761 14.1249 4.3337
v  -24.7636 10.3277 20.6164
v  -26.8761 14.1249 22.4036
v  -22.7699 14.1249 26.5098
v  -20.9827 10.3277 24.3973
v  -6.3007 14.1249 26.5098
v  -3.5481 10.3277 24.3973
v  -15.5893 22.4356 26.5098
v  -13.7964 27.3482 26.5098
v  -22.7699 35.8091 26.5098
v  -19.6776 43.7709 26.5098
v  -26.8761 34.5237 22.4036
v  -26.8761 21.9793 19.1949
v  -26.8761 29.4303 11.7575
# 30 vertices

vn 0.0000 0.0000 1.0000
vn -0.0000 -0.2358 0.9718
vn -1.0000 0.0000 -0.0000
vn -0.8096 -0.3495 0.4717
vn -0.9156 0.0000 0.4021
vn -0.5089 -0.3771 0.7739
vn -0.7071 -0.0000 0.7071
vn -0.7800 -0.5628 0.2738
vn -0.2978 -0.5673 0.7678
vn 0.0000 -0.4862 0.8739
vn -0.8739 -0.4862 -0.0000
vn -0.0000 -0.0000 1.0000
vn 0.8739 0.4862 -0.0000
vn 0.9571 0.2896 -0.0000
vn 0.7800 0.5628 -0.2738
vn 0.8806 0.2821 -0.3807
vn 0.3807 0.2821 -0.8806
vn 0.2738 0.5628 -0.7800
vn -0.0000 0.3349 -0.9423
vn -0.0000 0.4862 -0.8739
vn 0.0000 0.0000 -1.0000
vn 0.2486 -0.0000 -0.9686
vn 0.0000 -0.0000 -1.0000
vn 0.7677 0.0000 -0.6408
vn 1.0000 0.0000 -0.0000
vn 0.8388 0.5218 0.1551
vn 0.8489 0.5059 0.1533
vn 0.8505 0.5032 0.1530
vn 0.8599 0.4875 0.1512
vn -0.2550 -0.1889 -0.9483
vn -0.3132 0.0953 -0.9449
vn -0.3202 0.1410 -0.9368
vn -0.3473 0.4092 -0.8437
vn -0.7245 0.2814 -0.6292
vn 0.6104 0.5596 0.5606
vn 0.1430 0.8948 -0.4230
vn -0.6663 0.1848 -0.7224
vn 0.9211 0.1765 0.3471
vn -0.8671 0.3165 -0.3846
# 39 vertex normals

vt 0.8201 -0.5474 0.0000
vt 0.5979 -0.4664 0.0000
vt 0.2221 -0.8864 0.0000
vt 0.5773 0.1891 0.0000
vt 0.1656 0.0695 0.0000
vt 1.1445 0.0440 0.0000
vt 0.2273 -0.1392 0.0000
vt 1.2027 -0.1417 0.0000
vt -0.0115 0.0555 0.0000
vt 0.0453 -0.2249 0.0000
vt 0.0504 -1.0108 0.0000
vt 0.2221 0.8611 0.0000
vt 0.0504 0.8526 0.0000
vt 1.5627 -0.2815 0.0000
vt 0.9142 0.5254 0.0000
vt 0.0504 0.9547 0.0000
vt 0.2127 0.9467 0.0000
vt 0.0504 1.6857 0.0000
vt 0.2127 1.7190 0.0000
vt 0.2127 1.9671 0.0000
vt 0.0504 2.0004 0.0000
vt 0.2127 2.6710 0.0000
vt 0.0504 2.7886 0.0000
vt 0.5679 2.2740 0.0000
vt 0.7778 2.3506 0.0000
vt 1.1394 1.9671 0.0000
vt 1.4797 2.0993 0.0000
vt 1.0845 1.7190 0.0000
vt 0.5484 1.5818 0.0000
vt 0.8668 1.2640 0.0000
vt 0.9858 -0.7582 0.0000
vt 1.3622 -0.7582 0.0000
vt 0.9858 -0.5283 0.0000
vt 1.3622 -0.5283 0.0000
vt 2.6671 -0.7582 0.0000
vt 2.6671 -0.5283 0.0000
vt 9.9130 -0.7582 0.0000
vt 9.9130 -0.5283 0.0000
vt 9.5365 -0.7582 0.0000
vt 9.5365 -0.5283 0.0000
vt 8.2317 -0.7582 0.0000
vt 8.2317 -0.5283 0.0000
vt 5.7731 -0.7582 0.0000
vt 5.7731 -0.5283 0.0000
vt 4.9452 -0.7582 0.0000
vt 4.9452 -0.5283 0.0000
vt 7.4038 -0.7582 0.0000
vt 7.4038 -0.5283 0.0000
vt 6.2492 -0.7582 0.0000
vt 6.2492 -0.5283 0.0000
vt 3.1385 -0.7582 0.0000
vt 3.1385 -0.5283 0.0000
# 52 texture coords

g cpz_glass_tn1_glasstube
usemtl Standardmaterial
s 1
f 127/191/108 128/192/108 129/193/109 
s 2
f 130/194/110 131/195/111 132/196/112 
s 3
f 131/195/111 133/197/113 132/196/112 
s 4
f 132/196/114 133/197/113 134/198/114 
s 5
f 131/195/111 135/199/115 133/197/113 
s 6
f 135/199/115 136/200/116 133/197/113 
s 7
f 133/197/113 136/200/116 129/193/109 
s 8
f 136/200/117 137/201/117 129/193/117 
s 9
f 131/195/111 138/202/118 135/199/115 
s 10
f 135/199/115 138/202/118 139/203/118 
s 11
f 140/204/108 134/198/108 128/192/119 
s 12
f 134/198/108 133/197/119 128/192/119 
s 13
f 128/192/119 133/197/119 129/193/119 
s 14
f 141/205/110 138/202/110 130/194/110 
s 15
f 130/194/110 138/202/110 131/195/110 
s 16
f 142/206/120 143/207/121 144/208/122 
s 17
f 143/207/121 145/209/123 144/208/122 
s 18
f 145/209/123 146/210/124 144/208/122 
s 19
f 144/208/122 146/210/124 147/211/125 
s 20
f 146/210/124 148/212/126 147/211/125 
s 21
f 147/211/125 148/212/126 149/213/127 
s 22
f 146/210/124 150/214/128 148/212/126 
s 23
f 148/212/126 150/214/128 151/215/128 
s 24
f 146/210/124 152/216/129 150/214/128 
s 25
f 150/214/128 152/216/129 153/217/130 
s 26
f 152/216/129 146/210/124 154/218/131 
s 27
f 146/210/124 145/209/123 154/218/131 
s 28
f 154/218/131 145/209/123 155/219/132 
s 29
f 145/209/123 143/207/121 155/219/132 
s 30
f 155/219/132 143/207/121 156/220/132 
s 31
f 149/221/133 148/222/134 137/223/133 
s 32
f 137/223/133 148/222/134 129/224/135 
s 33
f 148/222/134 151/225/136 129/224/135 
s 34
f 129/224/135 151/225/136 127/226/136 
s 35
f 142/227/137 139/228/137 143/229/138 
s 36
f 139/228/137 138/230/139 143/229/138 
s 37
f 143/229/138 138/230/139 156/231/140 
s 38
f 138/230/139 141/232/140 156/231/140 
s 39
f 152/233/141 134/234/141 153/235/141 
s 40
f 153/235/141 134/234/141 140/236/141 
s 41
f 156/231/142 141/232/142 155/237/142 
s 42
f 155/237/142 141/232/142 130/238/142 
s 43
f 154/239/143 132/240/143 152/233/143 
s 44
f 152/233/143 132/240/143 134/234/143 
s 45
f 155/237/144 130/238/144 154/239/144 
s 46
f 154/239/144 130/238/144 132/240/144 
s 47
f 150/241/145 153/235/145 128/242/145 
s 48
f 128/242/145 153/235/145 140/236/145 
s 49
f 127/226/146 151/225/146 128/242/146 
s 50
f 128/242/146 151/225/146 150/241/146 
# 0 polygons - 50 triangles

