# 3ds Max Wavefront OBJ Exporter v0.97b - (c)2007 guruware
# File Created: 27.12.2011 14:35:35

mtllib cpz_obj_pipelinecapA_brk_008.mtl

#
# object cpz_obj_pipelinecapA_brk_008
#

v  0.3572 -0.0188 0.0192
v  0.3572 -0.0188 -0.0168
v  0.3572 0.0172 -0.0168
v  0.3572 0.0172 0.0192
v  0.1772 0.1792 0.1812
v  0.1772 0.1792 -0.1788
v  0.1772 -0.1808 0.1812
v  0.1772 -0.1808 -0.1788
v  -0.0028 -0.0008 0.0012
# 9 vertices

vn 1.0000 0.0000 -0.0000
vn 0.6690 0.7433 -0.0000
vn 0.6690 0.0000 0.7433
vn 0.6690 0.0000 -0.7433
vn 0.6690 -0.7433 -0.0000
vn -0.7071 0.0000 0.7071
vn -0.7071 0.7071 -0.0000
vn -0.7071 0.0000 -0.7071
vn -0.7071 -0.7071 -0.0000
# 9 vertex normals

g cpz_obj_pipelinecapA_brk_008
usemtl wire_255255000
s 1
f 1//1 2//1 3//1 4//1 
s 2
f 5//2 4//2 3//2 6//2 
s 4
f 7//3 1//3 4//3 5//3 
s 8
f 2//4 8//4 6//4 3//4 
s 16
f 1//5 7//5 8//5 2//5 
s 32
f 9//6 7//6 5//6 
s 64
f 9//7 5//7 6//7 
s 128
f 9//8 6//8 8//8 
s 256
f 9//9 8//9 7//9 
# 5 polygons - 4 triangles

#
# object cpz_metal_tn1_footholdA_floor
#

v  -15.7947 0.0059 -8.5246
v  -4.0597 0.0059 -2.8217
v  -16.8288 0.0059 -6.9770
v  -3.9795 0.0059 -0.4990
v  -18.2169 0.0059 0.0012
v  -2.9195 0.0059 0.0012
v  -16.8288 0.0059 6.9794
v  -1.2078 0.0059 0.8090
v  -1.1520 0.0059 2.2836
v  -12.8760 0.0059 12.8952
v  -6.9602 0.0059 16.8480
v  0.0180 0.0059 18.2361
v  4.1243 0.0059 2.8818
v  6.9962 0.0059 16.8480
v  15.8531 0.0059 8.4935
v  12.9120 0.0059 12.8952
v  1.8595 0.0059 1.6096
v  4.1367 0.0059 0.0012
v  3.4565 0.0059 0.0012
v  4.1397 0.0059 -0.6869
v  4.1397 1.7652 -0.6869
v  3.4565 1.7652 0.0012
v  4.1367 1.7652 0.0012
v  4.1243 1.7652 2.8818
v  1.8595 1.7652 1.6096
v  0.0180 1.7652 18.2361
v  6.9962 1.7652 16.8480
v  12.9120 1.7652 12.8952
v  15.8531 1.7652 8.4935
v  -1.1520 1.7652 2.2836
v  -6.9602 1.7652 16.8480
v  -12.8760 1.7652 12.8952
v  -16.8288 1.7652 6.9794
v  -1.2078 1.7652 0.8090
v  -2.9195 1.7652 0.0012
v  -18.2169 1.7652 0.0012
v  -3.9795 1.7652 -0.4990
v  -16.8288 1.7652 -6.9770
v  -4.0597 1.7652 -2.8217
v  -15.7947 1.7652 -8.5246
# 40 vertices

vn 0.0000 -1.0000 -0.0000
vn 0.0000 -1.0000 0.0000
vn -0.0000 -1.0000 0.0000
vn -0.0000 -1.0000 -0.0000
vn 0.0000 1.0000 -0.0000
# 5 vertex normals

vt 1.2130 -0.3254 0.0000
vt 1.4263 -0.4280 0.0000
vt 1.1942 -0.3532 0.0000
vt 1.4278 -0.4697 0.0000
vt 1.1690 -0.4787 0.0000
vt 1.4471 -0.4787 0.0000
vt 1.1936 -0.3532 0.0000
vt 1.4781 -0.4642 0.0000
vt 1.4791 -0.4377 0.0000
vt 1.2655 -0.2468 0.0000
vt 1.3730 -0.1757 0.0000
vt 1.4999 -0.1507 0.0000
vt 1.5750 -0.4269 0.0000
vt 1.6267 -0.1757 0.0000
vt 1.7877 -0.3260 0.0000
vt 1.7343 -0.2468 0.0000
vt 1.5339 -0.4498 0.0000
vt 1.5753 -0.4787 0.0000
vt 1.5630 -0.4787 0.0000
vt 1.5754 -0.4664 0.0000
# 20 texture coords

g cpz_metal_tn1_footholdA_floor
usemtl Standardmaterial
s 1
f 10/1/10 11/2/10 12/3/11 
s 2
f 11/2/12 13/4/12 12/3/11 
s 3
f 12/3/11 13/4/12 14/5/10 
s 4
f 13/4/10 15/6/10 14/5/10 
s 5
f 14/5/10 15/6/10 16/7/10 
s 6
f 15/6/10 17/8/10 16/7/10 
s 7
f 17/8/10 18/9/13 16/7/10 
s 8
f 16/7/11 18/9/13 19/10/11 
s 9
f 19/10/11 18/9/13 20/11/12 
s 10
f 20/11/12 18/9/13 21/12/13 
s 11
f 18/9/13 22/13/10 21/12/13 
s 12
f 21/12/13 22/13/10 23/14/11 
s 13
f 22/13/10 24/15/11 23/14/11 
s 14
f 23/14/11 24/15/11 25/16/11 
s 15
f 18/9/13 26/17/10 22/13/10 
s 16
f 22/13/10 26/17/10 27/18/10 
s 17
f 26/17/10 28/19/10 27/18/10 
s 18
f 27/18/10 28/19/10 29/20/10 
s 19
f 30/20/14 31/19/14 32/18/14 
s 20
f 32/18/14 31/19/14 33/13/14 
s 21
f 31/19/14 34/17/14 33/13/14 
s 22
f 34/17/14 35/12/14 33/13/14 
s 23
f 35/12/14 36/14/14 33/13/14 
s 24
f 36/14/14 37/16/14 33/13/14 
s 25
f 33/13/14 37/16/14 38/15/14 
s 26
f 34/17/14 39/9/14 35/12/14 
s 27
f 35/12/14 39/9/14 40/11/14 
s 28
f 40/11/14 39/9/14 41/10/14 
s 29
f 41/10/14 39/9/14 42/7/14 
s 30
f 39/9/14 43/8/14 42/7/14 
s 31
f 43/8/14 44/6/14 42/7/14 
s 32
f 42/7/14 44/6/14 45/5/14 
s 33
f 44/6/14 46/4/14 45/5/14 
s 34
f 45/5/14 46/4/14 47/3/14 
s 35
f 46/4/14 48/2/14 47/3/14 
s 36
f 47/3/14 48/2/14 49/1/14 
# 0 polygons - 36 triangles

#
# object ccp_metal_yy_gray_Cmn_dpn
#

v  4.1397 1.7652 -0.6869
v  4.1367 1.7652 0.0012
v  4.1397 0.0059 -0.6869
v  4.1367 0.0059 0.0012
v  4.1243 0.0059 2.8818
v  4.1243 1.7652 2.8818
v  -1.1520 0.0059 2.2836
v  -1.2078 0.0059 0.8090
v  -1.1520 1.7652 2.2836
v  -1.2078 1.7652 0.8090
v  -3.9795 0.0059 -0.4990
v  -4.0597 0.0059 -2.8217
v  -3.9795 1.7652 -0.4990
v  -4.0597 1.7652 -2.8217
v  -15.7947 0.0059 -8.5246
v  -16.8288 0.0059 -6.9770
v  -15.7947 1.7652 -8.5246
v  -16.8288 1.7652 -6.9770
v  -18.2169 0.0059 0.0012
v  -18.2169 1.7652 0.0012
v  -16.8288 1.7652 6.9794
v  -16.8288 0.0059 6.9794
v  -12.8760 0.0059 12.8952
v  -12.8760 1.7652 12.8952
v  -6.9602 0.0059 16.8480
v  -6.9602 1.7652 16.8480
v  0.0180 0.0059 18.2361
v  0.0180 1.7652 18.2361
v  6.9962 0.0059 16.8480
v  6.9962 1.7652 16.8480
v  12.9120 0.0059 12.8952
v  12.9120 1.7652 12.8952
v  15.8531 0.0059 8.4935
v  15.8531 1.7652 8.4935
v  3.4565 1.7652 0.0012
v  3.4565 0.0059 0.0012
v  1.8595 0.0059 1.6096
v  1.8595 1.7652 1.6096
v  -2.9195 1.7652 0.0012
v  -2.9195 0.0059 0.0012
# 40 vertices

vn 1.0000 0.0000 0.0043
vn 0.9993 0.0000 -0.0378
vn 0.9994 0.0000 -0.0345
vn -0.8315 0.0000 -0.5556
vn -0.9239 0.0000 -0.3827
vn -1.0000 0.0000 0.0000
vn -0.9301 0.0000 0.3673
vn -0.9239 0.0000 0.3827
vn -0.7071 0.0000 0.7071
vn -0.8315 0.0000 0.5556
vn -0.3827 0.0000 0.9239
vn -0.0000 0.0000 1.0000
vn 0.3827 0.0000 0.9239
vn 0.7071 0.0000 0.7071
vn 0.8315 0.0000 0.5556
vn -0.7096 0.0000 -0.7046
vn -0.7096 -0.0000 -0.7046
vn -0.5331 0.0000 -0.8461
vn -0.4834 0.0000 -0.8754
vn -0.2184 0.0000 -0.9759
vn 0.4268 0.0000 -0.9044
vn 0.4268 -0.0000 -0.9044
vn 0.4371 0.0000 -0.8994
vn 0.4316 0.0000 -0.9021
# 24 vertex normals

vt 5.7514 -0.3712 0.0000
vt 5.8277 -0.3712 0.0000
vt 5.7514 -0.1761 0.0000
vt 5.8277 -0.1761 0.0000
vt 6.1471 -0.1761 0.0000
vt 6.1471 -0.3712 0.0000
vt 5.0587 -0.1761 0.0000
vt 4.8950 -0.1761 0.0000
vt 5.0587 -0.3712 0.0000
vt 4.8950 -0.3712 0.0000
vt 4.5552 -0.1761 0.0000
vt 4.2975 -0.1761 0.0000
vt 4.5552 -0.3712 0.0000
vt 4.2975 -0.3712 0.0000
vt 2.8508 -0.1761 0.0000
vt 2.6792 -0.1761 0.0000
vt 2.8508 -0.3712 0.0000
vt 2.6792 -0.3712 0.0000
vt 1.9054 -0.1761 0.0000
vt 1.9054 -0.3712 0.0000
vt 1.1317 -0.3712 0.0000
vt 1.1317 -0.1761 0.0000
vt 0.4757 -0.1761 0.0000
vt 0.4757 -0.3712 0.0000
vt -0.1802 -0.1761 0.0000
vt -0.1802 -0.3712 0.0000
vt -0.9540 -0.1761 0.0000
vt -0.9540 -0.3712 0.0000
vt -1.7277 -0.1761 0.0000
vt -1.7277 -0.3712 0.0000
vt -2.3837 -0.1761 0.0000
vt -2.3837 -0.3712 0.0000
vt -2.9707 -0.1761 0.0000
vt -2.9707 -0.3712 0.0000
vt 5.6439 -0.3712 0.0000
vt 5.6439 -0.1761 0.0000
vt 5.3926 -0.1761 0.0000
vt 5.3926 -0.3712 0.0000
vt 4.6852 -0.3712 0.0000
vt 4.6852 -0.1761 0.0000
vt 7.5888 -0.1761 0.0000
vt 7.5888 -0.3712 0.0000
# 42 texture coords

g ccp_metal_yy_gray_Cmn_dpn
usemtl Standardmaterial
s 1
f 50/21/15 51/22/15 52/23/15 
s 2
f 52/23/15 51/22/15 53/24/15 
s 3
f 53/24/15 51/22/15 54/25/15 
s 4
f 51/22/15 55/26/15 54/25/15 
s 5
f 56/27/16 57/28/16 58/29/16 
s 6
f 58/29/16 57/28/16 59/30/16 
s 7
f 60/31/17 61/32/17 62/33/17 
s 8
f 62/33/17 61/32/17 63/34/17 
s 9
f 64/35/18 65/36/19 66/37/18 
s 10
f 66/37/18 65/36/19 67/38/19 
s 11
f 65/36/19 68/39/20 67/38/19 
s 12
f 67/38/19 68/39/20 69/40/20 
s 13
f 69/40/20 68/39/20 70/41/21 
s 14
f 68/39/20 71/42/22 70/41/21 
s 15
f 71/42/22 72/43/23 70/41/21 
s 16
f 70/41/24 72/43/23 73/44/23 
s 17
f 72/43/23 74/45/25 73/44/23 
s 18
f 73/44/23 74/45/25 75/46/25 
s 19
f 74/45/25 76/47/26 75/46/25 
s 20
f 75/46/25 76/47/26 77/48/26 
s 21
f 76/47/26 78/49/27 77/48/26 
s 22
f 77/48/26 78/49/27 79/50/27 
s 23
f 78/49/27 80/51/28 79/50/27 
s 24
f 79/50/27 80/51/28 81/52/28 
s 25
f 80/51/28 82/53/29 81/52/28 
s 26
f 81/52/28 82/53/29 83/54/29 
s 27
f 50/21/30 52/23/31 84/55/31 
s 28
f 52/23/31 85/56/31 84/55/31 
s 29
f 85/56/31 86/57/32 84/55/31 
s 30
f 84/55/31 86/57/32 87/58/33 
s 31
f 87/58/33 86/57/32 58/29/34 
s 32
f 86/57/34 56/27/34 58/29/34 
s 33
f 59/30/35 57/28/35 88/59/36 
s 34
f 88/59/36 57/28/35 62/33/36 
s 35
f 57/28/35 89/60/35 62/33/36 
s 36
f 62/33/36 89/60/35 60/31/36 
s 37
f 63/34/37 61/32/37 66/37/37 
s 38
f 66/37/37 61/32/37 64/35/37 
s 39
f 82/61/38 54/25/38 83/62/38 
s 40
f 83/62/38 54/25/38 55/26/38 
# 0 polygons - 40 triangles

