# 3ds Max Wavefront OBJ Exporter v0.97b - (c)2007 guruware
# File Created: 27.12.2011 14:39:14

mtllib cpz_obj_pipelinecapA_brk_013.mtl

#
# object cpz_obj_pipelinecapA_brk_013
#

v  0.3572 -0.0188 0.0192
v  0.3572 -0.0188 -0.0168
v  0.3572 0.0172 -0.0168
v  0.3572 0.0172 0.0192
v  0.1772 0.1792 0.1812
v  0.1772 0.1792 -0.1788
v  0.1772 -0.1808 0.1812
v  0.1772 -0.1808 -0.1788
v  -0.0028 -0.0008 0.0012
# 9 vertices

vn 1.0000 0.0000 -0.0000
vn 0.6690 0.7433 -0.0000
vn 0.6690 0.0000 0.7433
vn 0.6690 0.0000 -0.7433
vn 0.6690 -0.7433 -0.0000
vn -0.7071 0.0000 0.7071
vn -0.7071 0.7071 -0.0000
vn -0.7071 0.0000 -0.7071
vn -0.7071 -0.7071 -0.0000
# 9 vertex normals

g cpz_obj_pipelinecapA_brk_013
usemtl wire_255255000
s 1
f 1//1 2//1 3//1 4//1 
s 2
f 5//2 4//2 3//2 6//2 
s 4
f 7//3 1//3 4//3 5//3 
s 8
f 2//4 8//4 6//4 3//4 
s 16
f 1//5 7//5 8//5 2//5 
s 32
f 9//6 7//6 5//6 
s 64
f 9//7 5//7 6//7 
s 128
f 9//8 6//8 8//8 
s 256
f 9//9 8//9 7//9 
# 5 polygons - 4 triangles

#
# object ccp_metal_yy_floor3_Cmn_dpn
#

v  -2.2885 32.0952 -23.8894
v  -2.2885 32.0952 -21.9121
v  -1.6250 31.1436 -21.7297
v  -1.6250 31.1436 -23.7070
v  -5.9786 6.5321 -24.0152
v  -5.6994 5.6813 -22.9036
v  -5.6994 5.6813 -20.9264
v  -5.7729 32.0952 -21.2190
v  -5.7729 32.0952 -23.1963
v  -5.9786 16.0974 -24.0152
v  -5.9786 11.4429 -24.0152
v  -5.9950 26.0683 23.9453
v  -9.6027 26.0683 23.2277
v  -5.9950 20.7126 23.9453
v  -9.6027 20.7126 23.2277
v  -13.6808 20.7126 20.5028
v  -17.7588 26.0683 17.7780
v  -14.3211 19.9067 20.0750
v  -14.3211 17.0507 20.0750
v  -17.7588 11.4429 17.7780
v  -13.6808 16.0974 20.5028
v  -9.6027 11.4429 23.2277
v  -9.6027 16.0974 23.2277
v  -5.9950 16.0974 23.9453
v  -5.9950 11.4429 23.9453
v  -23.2085 11.4429 9.6219
v  -23.2085 26.0683 9.6219
v  -25.1222 11.4429 0.0012
v  -25.1222 26.0683 0.0012
v  -23.2085 11.4429 -9.6195
v  -23.2085 26.0683 -9.6195
v  -17.7588 11.4429 -17.7756
v  -17.7588 26.0683 -17.7756
v  -9.6027 11.4429 -23.2253
v  -9.6027 26.0683 -23.2253
v  -5.9950 11.4429 -23.9429
v  -5.9950 26.0683 -23.9429
v  -5.8307 26.0683 22.9097
v  -5.8307 20.7126 22.9097
v  -9.2403 26.0683 22.2522
v  -9.2403 20.7126 22.2522
v  -13.1358 20.7126 19.6249
v  -17.0539 26.0683 17.0314
v  -13.7762 19.9067 19.1970
v  -13.7762 17.0507 19.1970
v  -17.0539 11.4429 17.0314
v  -22.2747 11.4429 9.2179
v  -22.2747 26.0683 9.2179
v  -24.1080 11.4429 0.0012
v  -24.1080 26.0683 0.0012
v  -22.2747 11.4429 -9.2154
v  -22.2747 26.0683 -9.2155
v  -17.0539 11.4429 -17.0289
v  -17.0539 26.0683 -17.0289
v  -9.2404 11.4429 -22.2497
v  -9.2403 26.0683 -22.2498
v  -5.8307 11.4429 -22.9073
v  -5.8307 26.0683 -22.9073
v  -13.1358 16.0974 19.6249
v  -9.2403 11.4429 22.2522
v  -9.2404 16.0974 22.2522
v  -5.8307 16.0974 22.9097
v  -5.8307 11.4429 22.9097
v  -2.3708 6.5321 -24.7328
v  -5.9786 20.7126 -24.0152
v  -5.9786 31.2510 -24.0152
v  -2.3708 31.2510 -24.7328
v  -1.6147 6.6070 -23.4668
v  -2.2591 5.6813 -23.5880
v  -1.6147 6.6070 -21.4895
v  -2.2591 5.6813 -21.6107
# 71 vertices

vn 0.8203 0.5719 0.0000
vn 0.8203 0.5719 -0.0000
vn -0.9502 -0.3117 -0.0000
vn -1.0000 -0.0028 -0.0000
vn -0.9699 0.0000 0.2436
vn -0.9949 0.0059 0.1009
vn -0.9959 0.0000 0.0900
vn -0.1951 -0.0000 0.9808
vn -0.3827 -0.0000 0.9239
vn -0.5556 -0.0000 0.8315
vn -0.7071 -0.0000 0.7071
vn -0.5556 0.0000 0.8315
vn -0.7071 0.0000 0.7071
vn -0.3827 0.0000 0.9239
vn -0.9239 0.0000 0.3827
vn -1.0000 0.0000 -0.0000
vn -0.9239 0.0000 -0.3827
vn -0.7071 0.0000 -0.7071
vn -0.3827 0.0000 -0.9239
vn -0.1951 0.0000 -0.9808
vn 0.1894 0.0000 -0.9819
vn 0.3809 0.0010 -0.9246
vn 0.3820 0.0000 -0.9242
vn 0.5556 0.0022 -0.8314
vn 0.7064 0.0011 -0.7078
vn 0.5521 0.0007 -0.8337
vn 0.5520 -0.0007 -0.8338
vn 0.7063 -0.0012 -0.7079
vn 0.9239 0.0000 -0.3827
vn 1.0000 -0.0000 0.0000
vn 1.0000 0.0000 -0.0000
vn 0.9239 -0.0000 0.3827
vn 0.7071 0.0000 0.7071
vn 0.7071 -0.0000 0.7071
vn 0.3800 -0.0000 0.9250
vn 0.1894 -0.0000 0.9819
vn 0.5554 -0.0025 -0.8316
vn 0.3810 -0.0011 -0.9246
vn 0.1894 -0.0000 -0.9819
vn -0.1951 -0.0000 -0.9808
vn 0.7518 0.4280 -0.5017
vn 0.8070 0.1663 -0.5667
vn 0.8050 0.1752 -0.5668
vn 0.8571 -0.0045 -0.5152
vn 0.8587 -0.0047 -0.5125
vn 0.7665 -0.4774 -0.4295
vn -0.1380 0.7067 -0.6939
vn -0.1164 -0.8026 -0.5851
vn 0.0000 1.0000 -0.0000
vn 0.8207 -0.5714 -0.0000
vn 0.0000 -1.0000 -0.0000
vn 0.1951 0.0114 0.9807
vn -0.1979 0.0095 0.9802
vn -0.2502 0.0108 0.9681
vn -0.2002 0.0096 0.9797
vn -0.2507 0.0108 0.9680
# 56 vertex normals

vt 0.9852 0.5779 0.0000
vt 0.9382 0.5779 0.0000
vt 0.9383 0.5894 0.0000
vt 0.9998 0.5894 0.0000
vt 1.9845 0.5075 0.0000
vt 2.0041 0.4805 0.0000
vt 2.0041 0.4327 0.0000
vt 1.0052 0.4397 0.0000
vt 1.0052 0.4876 0.0000
vt 1.5602 0.5075 0.0000
vt 1.8649 0.5075 0.0000
vt -0.0023 -0.5922 0.0000
vt -0.0537 -0.5922 0.0000
vt -0.0023 -0.7224 0.0000
vt -0.0537 -0.7224 0.0000
vt -0.1221 -0.7224 0.0000
vt -0.1906 -0.5924 0.0000
vt -0.1299 -0.7315 0.0000
vt -0.1299 -0.7638 0.0000
vt -0.1906 -0.9075 0.0000
vt -0.1221 -0.7746 0.0000
vt -0.0537 -0.9078 0.0000
vt -0.0537 -0.7746 0.0000
vt -0.0023 -0.7746 0.0000
vt -0.0023 -0.9078 0.0000
vt -0.3276 -0.9075 0.0000
vt -0.3276 -0.5924 0.0000
vt -0.4646 -0.9075 0.0000
vt -0.4646 -0.5924 0.0000
vt -0.6016 -0.9075 0.0000
vt -0.6016 -0.5924 0.0000
vt -0.7385 -0.9075 0.0000
vt -0.7385 -0.5924 0.0000
vt -0.8755 -0.9075 0.0000
vt -0.8755 -0.5924 0.0000
vt -0.9269 -0.9075 0.0000
vt -0.9269 -0.5924 0.0000
vt 1.9853 0.5776 0.0000
vt 1.4469 0.5075 0.0000
vt 1.0152 0.5075 0.0000
vt 1.0135 0.5776 0.0000
vt 1.9835 0.5919 0.0000
vt 1.9990 0.5776 0.0000
vt 0.9850 0.5077 0.0000
vt 1.9990 0.5075 0.0000
vt 0.9383 0.5077 0.0000
vt 0.0202 0.5915 0.0000
vt 0.0200 0.5779 0.0000
vt 0.0015 0.5915 0.0000
vt 0.0010 0.5776 0.0000
vt 0.0200 0.5077 0.0000
vt 0.0010 0.5074 0.0000
# 52 texture coords

g ccp_metal_yy_floor3_Cmn_dpn
usemtl Standardmaterial
s 1
f 10/1/10 11/2/10 12/3/10 
s 2
f 12/3/11 13/4/11 10/1/11 
s 3
f 14/5/12 15/6/12 16/7/12 
s 4
f 16/7/13 17/8/13 18/9/13 
s 5
f 18/9/14 19/10/14 20/11/14 
s 6
f 16/7/15 18/9/15 20/11/15 
s 7
f 14/5/16 16/7/16 20/11/16 
s 8
f 21/12/17 22/13/18 23/14/17 
s 9
f 23/14/17 22/13/18 24/15/18 
s 10
f 24/15/18 22/13/18 25/16/19 
s 11
f 22/13/18 26/17/20 25/16/19 
s 12
f 25/16/19 26/17/20 27/18/21 
s 13
f 27/18/21 26/17/20 28/19/21 
s 14
f 26/17/20 29/20/22 28/19/21 
s 15
f 28/19/21 29/20/22 30/21/19 
s 16
f 29/20/22 31/22/18 30/21/19 
s 17
f 30/21/19 31/22/18 32/23/23 
s 18
f 32/23/23 31/22/18 33/24/17 
s 19
f 31/22/18 34/25/17 33/24/17 
s 20
f 29/20/22 26/17/20 35/26/24 
s 21
f 26/17/20 36/27/24 35/26/24 
s 22
f 35/26/24 36/27/24 37/28/25 
s 23
f 36/27/24 38/29/25 37/28/25 
s 24
f 37/28/25 38/29/25 39/30/26 
s 25
f 38/29/25 40/31/26 39/30/26 
s 26
f 39/30/26 40/31/26 41/32/27 
s 27
f 40/31/26 42/33/27 41/32/27 
s 28
f 41/32/27 42/33/27 43/34/28 
s 29
f 42/33/27 44/35/28 43/34/28 
s 30
f 43/34/28 44/35/28 45/36/29 
s 31
f 44/35/28 46/37/29 45/36/29 
s 32
f 47/12/30 48/14/30 49/13/31 
s 33
f 48/14/30 50/15/32 49/13/31 
s 34
f 50/15/32 51/16/33 49/13/31 
s 35
f 49/13/31 51/16/33 52/17/34 
s 36
f 51/16/33 53/18/35 52/17/34 
s 37
f 53/18/35 54/19/36 52/17/34 
s 38
f 54/19/36 55/20/37 52/17/34 
s 39
f 55/20/37 56/26/38 52/17/34 
s 40
f 52/17/34 56/26/38 57/27/38 
s 41
f 56/26/38 58/28/39 57/27/38 
s 42
f 57/27/38 58/28/39 59/29/40 
s 43
f 58/28/39 60/30/41 59/29/40 
s 44
f 59/29/40 60/30/41 61/31/41 
s 45
f 60/30/41 62/32/42 61/31/41 
s 46
f 61/31/41 62/32/42 63/33/43 
s 47
f 62/32/42 64/34/44 63/33/43 
s 48
f 63/33/43 64/34/44 65/35/44 
s 49
f 64/34/44 66/36/45 65/35/44 
s 50
f 65/35/44 66/36/45 67/37/45 
s 51
f 54/19/36 68/21/46 55/20/37 
s 52
f 55/20/37 68/21/46 69/22/47 
s 53
f 68/21/46 70/23/32 69/22/47 
s 54
f 70/23/32 71/24/48 69/22/47 
s 55
f 69/22/47 71/24/48 72/25/30 
s 56
f 14/5/29 20/11/49 73/38/49 
s 57
f 20/11/49 19/10/49 73/38/49 
s 58
f 19/10/49 74/39/29 73/38/49 
s 59
f 74/39/29 75/40/49 73/38/49 
s 60
f 73/38/49 75/40/49 76/41/49 
s 61
f 10/1/50 13/4/51 76/41/52 
s 62
f 76/41/52 13/4/51 73/38/53 
s 63
f 13/4/51 77/42/54 73/38/53 
s 64
f 73/38/55 77/42/55 78/43/55 
s 65
f 18/44/56 10/1/56 75/40/56 
s 66
f 75/40/56 10/1/56 76/41/56 
s 67
f 15/45/57 14/5/57 78/43/57 
s 68
f 78/43/57 14/5/57 73/38/57 
s 69
f 17/46/58 11/2/58 18/44/58 
s 70
f 18/44/58 11/2/58 10/1/58 
s 71
f 79/47/59 80/48/59 77/49/59 
s 72
f 77/49/59 80/48/59 78/50/59 
s 73
f 80/48/60 16/51/60 78/50/60 
s 74
f 78/50/60 16/51/60 15/52/60 
s 75
f 80/48/61 11/2/61 16/51/61 
s 76
f 16/51/61 11/2/61 17/46/61 
s 77
f 79/47/62 12/3/63 80/48/64 
s 78
f 80/48/64 12/3/63 11/2/65 
s 79
f 75/40/14 74/39/14 18/9/14 
s 80
f 18/9/14 74/39/14 19/10/14 
# 0 polygons - 80 triangles

#
# object ccp_metal_yy_gray_Cmn_dpn
#

v  -5.9950 26.0683 23.9453
v  -5.9950 20.7126 23.9453
v  -5.8307 26.0683 22.9097
v  -5.8307 20.7126 22.9097
v  -5.9950 16.0974 23.9453
v  -5.9950 11.4429 23.9453
v  -5.8307 16.0974 22.9097
v  -5.8307 11.4429 22.9097
v  -5.8307 26.0683 -22.9073
v  -5.9950 26.0683 -23.9429
v  -9.2403 26.0683 -22.2498
v  -9.6027 26.0683 -23.2253
v  -17.0539 26.0683 -17.0289
v  -17.7588 26.0683 -17.7756
v  -22.2747 26.0683 -9.2155
v  -23.2085 26.0683 -9.6195
v  -24.1080 26.0683 0.0012
v  -25.1222 26.0683 0.0012
v  -22.2747 26.0683 9.2179
v  -23.2085 26.0683 9.6219
v  -17.0539 26.0683 17.0314
v  -17.7588 26.0683 17.7780
v  -9.2403 26.0683 22.2522
v  -9.6027 26.0683 23.2277
v  -5.8307 11.4429 -22.9073
v  -9.2404 11.4429 -22.2497
v  -5.9950 11.4429 -23.9429
v  -9.6027 11.4429 -23.2253
v  -17.7588 11.4429 -17.7756
v  -17.0539 11.4429 -17.0289
v  -23.2085 11.4429 -9.6195
v  -22.2747 11.4429 -9.2154
v  -25.1222 11.4429 0.0012
v  -24.1080 11.4429 0.0012
v  -23.2085 11.4429 9.6219
v  -22.2747 11.4429 9.2179
v  -17.7588 11.4429 17.7780
v  -17.0539 11.4429 17.0314
v  -9.6027 11.4429 23.2277
v  -9.2403 11.4429 22.2522
v  -13.6808 20.7126 20.5028
v  -14.3211 19.9067 20.0750
v  -13.1358 20.7126 19.6249
v  -13.7762 19.9067 19.1970
v  -13.7762 17.0507 19.1970
v  -14.3211 17.0507 20.0750
v  -13.1358 16.0974 19.6249
v  -13.6808 16.0974 20.5028
v  -9.6027 16.0974 23.2277
v  -9.2404 16.0974 22.2522
v  -9.6027 20.7126 23.2277
v  -9.2403 20.7126 22.2522
v  0.0344 6.6070 -23.4668
v  0.0344 31.1436 -23.7070
v  0.0344 6.6070 -21.4895
v  0.0344 31.1436 -21.7297
# 56 vertices

vn 0.9876 -0.0000 0.1567
vn 0.0000 1.0000 -0.0000
vn 0.0000 1.0000 0.0000
vn -0.0000 1.0000 0.0000
vn 0.0000 -1.0000 -0.0000
vn 0.6144 -0.6907 0.3814
vn 0.7877 -0.3748 0.4889
vn 0.7896 -0.3693 0.4901
vn 0.8018 0.3309 0.4977
vn 0.8004 0.3354 0.4968
vn 0.6611 0.6282 0.4103
vn -0.0000 1.0000 -0.0000
vn -0.0000 -1.0000 0.0000
vn 0.0000 -1.0000 0.0000
vn 1.0000 0.0000 -0.0000
# 15 vertex normals

vt 0.3157 -1.2789 0.0000
vt 0.9803 -1.2789 0.0000
vt 0.3157 -1.1531 0.0000
vt 0.9803 -1.1531 0.0000
vt 2.1653 -1.2789 0.0000
vt 2.8286 -1.2789 0.0000
vt 2.1653 -1.1531 0.0000
vt 2.8286 -1.1531 0.0000
vt -2.8831 -1.1531 0.0000
vt -2.8831 -1.2789 0.0000
vt -2.6897 -1.1531 0.0000
vt -2.6897 -1.2789 0.0000
vt -2.1766 -1.1531 0.0000
vt -2.1766 -1.2789 0.0000
vt -1.7795 -1.1531 0.0000
vt -1.7795 -1.2789 0.0000
vt -1.2664 -1.1531 0.0000
vt -1.2664 -1.2789 0.0000
vt -0.8463 -1.1531 0.0000
vt -0.8463 -1.2789 0.0000
vt -0.3698 -1.1531 0.0000
vt -0.3698 -1.2789 0.0000
vt 0.1225 -1.1531 0.0000
vt 0.1225 -1.2789 0.0000
vt 5.9676 -1.1531 0.0000
vt 5.7745 -1.1531 0.0000
vt 5.9676 -1.2789 0.0000
vt 5.7745 -1.2789 0.0000
vt 5.3255 -1.2789 0.0000
vt 5.3255 -1.1531 0.0000
vt 4.8007 -1.2789 0.0000
vt 4.8140 -1.1531 0.0000
vt 4.4037 -1.2789 0.0000
vt 4.4037 -1.1531 0.0000
vt 4.0010 -1.2789 0.0000
vt 3.9941 -1.1531 0.0000
vt 3.4792 -1.2789 0.0000
vt 3.4792 -1.1531 0.0000
vt 3.0210 -1.2789 0.0000
vt 3.0210 -1.1531 0.0000
vt 1.4402 -1.2789 0.0000
vt 1.5005 -1.2789 0.0000
vt 1.4402 -1.1531 0.0000
vt 1.5005 -1.1531 0.0000
vt 1.6549 -1.1531 0.0000
vt 1.6549 -1.2789 0.0000
vt 1.7211 -1.1531 0.0000
vt 1.7211 -1.2789 0.0000
vt 1.9789 -1.2789 0.0000
vt 1.9752 -1.1531 0.0000
vt 1.1800 -1.2789 0.0000
vt 1.1858 -1.1531 0.0000
vt 0.0114 -0.4960 0.0000
vt 0.9476 -0.4925 0.0000
vt 0.0114 -0.5244 0.0000
vt 0.9476 -0.5209 0.0000
# 56 texture coords

g ccp_metal_yy_gray_Cmn_dpn
usemtl Standardmaterial
s 1
f 81/53/66 82/54/66 83/55/66 
s 2
f 83/55/66 82/54/66 84/56/66 
s 3
f 85/57/66 86/58/66 87/59/66 
s 4
f 87/59/66 86/58/66 88/60/66 
s 5
f 89/61/67 90/62/67 91/63/67 
s 6
f 90/62/67 92/64/67 91/63/67 
s 7
f 91/63/67 92/64/67 93/65/68 
s 8
f 92/64/68 94/66/68 93/65/68 
s 9
f 93/65/68 94/66/68 95/67/68 
s 10
f 94/66/68 96/68/69 95/67/68 
s 11
f 95/67/68 96/68/69 97/69/67 
s 12
f 96/68/69 98/70/67 97/69/67 
s 13
f 97/69/67 98/70/67 99/71/67 
s 14
f 98/70/67 100/72/67 99/71/67 
s 15
f 99/71/67 100/72/67 101/73/67 
s 16
f 100/72/67 102/74/67 101/73/67 
s 17
f 101/73/67 102/74/67 103/75/67 
s 18
f 102/74/67 104/76/67 103/75/67 
s 19
f 103/75/67 104/76/67 83/55/67 
s 20
f 104/76/67 81/53/67 83/55/67 
s 21
f 105/77/70 106/78/70 107/79/70 
s 22
f 107/79/70 106/78/70 108/80/70 
s 23
f 108/80/70 106/78/70 109/81/70 
s 24
f 106/78/70 110/82/70 109/81/70 
s 25
f 109/81/70 110/82/70 111/83/70 
s 26
f 110/82/70 112/84/70 111/83/70 
s 27
f 111/83/70 112/84/70 113/85/70 
s 28
f 112/84/70 114/86/70 113/85/70 
s 29
f 113/85/70 114/86/70 115/87/70 
s 30
f 114/86/70 116/88/70 115/87/70 
s 31
f 115/87/70 116/88/70 117/89/70 
s 32
f 116/88/70 118/90/70 117/89/70 
s 33
f 117/89/70 118/90/70 119/91/70 
s 34
f 118/90/70 120/92/70 119/91/70 
s 35
f 119/91/70 120/92/70 86/58/70 
s 36
f 120/92/70 88/60/70 86/58/70 
s 37
f 121/93/71 122/94/72 123/95/71 
s 38
f 123/95/71 122/94/72 124/96/73 
s 39
f 124/96/73 122/94/72 125/97/74 
s 40
f 122/94/72 126/98/75 125/97/74 
s 41
f 125/97/74 126/98/75 127/99/76 
s 42
f 126/98/75 128/100/76 127/99/76 
s 43
f 128/100/67 129/101/77 127/99/67 
s 44
f 127/99/67 129/101/77 130/102/77 
s 45
f 130/102/77 129/101/77 87/59/67 
s 46
f 129/101/77 85/57/67 87/59/67 
s 47
f 121/93/78 123/95/78 131/103/79 
s 48
f 123/95/78 132/104/79 131/103/79 
s 49
f 132/104/79 84/56/70 131/103/79 
s 50
f 131/103/79 84/56/70 82/54/70 
s 51
f 133/105/80 134/106/80 135/107/80 
s 52
f 135/107/80 134/106/80 136/108/80 
# 0 polygons - 52 triangles

#
# object cpz_metal_st1_floor01_Lumi_dpnE
#

v  -1.6147 6.6070 -23.4668
v  -1.6250 31.1436 -23.7070
v  0.0344 6.6070 -23.4668
v  0.0344 31.1436 -23.7070
v  0.0344 6.6070 -21.4895
v  -1.6147 6.6070 -21.4895
v  -1.6250 31.1436 -21.7297
v  0.0344 31.1436 -21.7297
# 8 vertices

vn 0.0000 -0.0098 -1.0000
vn 0.0000 -1.0000 -0.0000
vn 0.0000 1.0000 -0.0000
vn 0.0000 0.0098 1.0000
# 4 vertex normals

vt 1.1897 0.0841 0.0000
vt 1.1881 -0.5825 0.0000
vt 1.0978 0.0841 0.0000
vt 1.0978 -0.5825 0.0000
vt 0.0941 0.0470 0.0000
vt 0.0028 0.0470 0.0000
vt 0.0941 0.0771 0.0000
vt 0.0028 0.0771 0.0000
vt 0.0023 -0.5449 0.0000
vt 0.0941 -0.5449 0.0000
vt 0.0023 -0.5751 0.0000
vt 0.0941 -0.5751 0.0000
# 12 texture coords

g cpz_metal_st1_floor01_Lumi_dpnE
usemtl Standardmaterial
s 1
f 137/109/81 138/110/81 139/111/81 
s 2
f 139/111/81 138/110/81 140/112/81 
s 3
f 141/113/82 142/114/82 139/115/82 
s 4
f 139/115/82 142/114/82 137/116/82 
s 5
f 143/117/83 144/118/83 138/119/83 
s 6
f 138/119/83 144/118/83 140/120/83 
s 7
f 141/113/84 144/118/84 142/114/84 
s 8
f 142/114/84 144/118/84 143/117/84 
# 0 polygons - 8 triangles

