# 3ds Max Wavefront OBJ Exporter v0.97b - (c)2007 guruware
# File Created: 27.12.2011 03:13:24

mtllib cpz_obj_pipelinecapA_brk_002.mtl

#
# object cpz_obj_pipelinecapA_brk_002
#

v  0.3572 -0.0188 0.0192
v  0.3572 -0.0188 -0.0168
v  0.3572 0.0172 -0.0168
v  0.3572 0.0172 0.0192
v  0.1772 0.1792 0.1812
v  0.1772 0.1792 -0.1788
v  0.1772 -0.1808 0.1812
v  0.1772 -0.1808 -0.1788
v  -0.0028 -0.0008 0.0012
# 9 vertices

vn 1.0000 0.0000 -0.0000
vn 0.6690 0.7433 -0.0000
vn 0.6690 0.0000 0.7433
vn 0.6690 0.0000 -0.7433
vn 0.6690 -0.7433 -0.0000
vn -0.7071 0.0000 0.7071
vn -0.7071 0.7071 -0.0000
vn -0.7071 0.0000 -0.7071
vn -0.7071 -0.7071 -0.0000
# 9 vertex normals

g cpz_obj_pipelinecapA_brk_002
usemtl wire_255255000
s 1
f 1//1 2//1 3//1 4//1 
s 2
f 5//2 4//2 3//2 6//2 
s 4
f 7//3 1//3 4//3 5//3 
s 8
f 2//4 8//4 6//4 3//4 
s 16
f 1//5 7//5 8//5 2//5 
s 32
f 9//6 7//6 5//6 
s 64
f 9//7 5//7 6//7 
s 128
f 9//8 6//8 8//8 
s 256
f 9//9 8//9 7//9 
# 5 polygons - 4 triangles

#
# object ccp_metal_yy_yelow_Cmn_dpn
#

v  -22.4144 34.0914 0.0012
v  -22.4144 31.5882 0.0012
v  -20.7069 34.0914 8.5857
v  -20.7069 31.5882 8.5857
v  -15.8441 34.0914 15.8633
v  -15.8441 31.5882 15.8633
v  -11.3104 31.5882 18.8927
v  -11.3051 34.0914 18.8962
v  -11.4086 34.0914 -18.8246
v  -11.4818 31.5882 -18.7757
v  -15.8441 34.0914 -15.8609
v  -15.8441 31.5882 -15.8609
v  -20.7069 34.0914 -8.5833
v  -20.7069 31.5882 -8.5833
v  -21.4719 34.9950 0.0012
v  -19.8360 34.9950 8.2250
v  -15.1776 34.9950 15.1968
v  -10.8920 34.9950 18.0604
v  -10.8442 34.9950 -18.0899
v  -15.1776 34.9950 -15.1944
v  -19.8360 34.9950 -8.2226
v  -18.3323 34.9950 0.0012
v  -16.9354 34.9950 7.0235
v  -12.9576 34.9950 12.9768
v  -9.2930 34.9950 15.4254
v  -9.2842 34.9950 -15.4289
v  -12.9576 34.9950 -12.9744
v  -16.9354 34.9950 -7.0211
v  -15.5699 33.3366 0.0012
v  -14.3833 33.3366 5.9664
v  -11.0043 33.3366 11.0235
v  -7.8483 33.3366 13.1323
v  -7.8440 33.3366 -13.1327
v  -11.0043 33.3366 -11.0211
v  -14.3833 33.3366 -5.9640
# 35 vertices

vn -0.9808 0.0000 0.1951
vn -0.9239 0.0000 0.3827
vn -0.9311 0.0000 0.3647
vn -0.7071 0.0000 0.7071
vn -0.8315 0.0000 0.5556
vn -0.5556 0.0000 0.8315
vn -0.5556 0.0000 -0.8315
vn -0.7071 0.0000 -0.7071
vn -0.9239 0.0000 -0.3827
vn -0.9808 0.0000 -0.1951
vn -0.6855 0.7151 0.1364
vn -0.6393 0.7219 0.2648
vn -0.6422 0.7219 0.2578
vn -0.4893 0.7219 0.4893
vn -0.5812 0.7151 0.3883
vn -0.3883 0.7151 0.5812
vn -0.3883 0.7151 -0.5812
vn -0.4893 0.7219 -0.4893
vn -0.6393 0.7219 -0.2648
vn -0.6855 0.7151 -0.1364
vn 0.0000 1.0000 -0.0000
vn -0.0000 1.0000 -0.0000
vn 0.5120 0.8529 -0.1018
vn 0.4755 0.8574 -0.1970
vn 0.3640 0.8574 -0.3640
vn 0.2900 0.8529 -0.4341
vn 0.2900 0.8529 0.4341
vn 0.3640 0.8574 0.3640
vn 0.4755 0.8574 0.1970
vn 0.5120 0.8529 0.1019
vn 0.5120 0.8529 0.1018
vn 0.1400 -0.9677 -0.2096
vn 0.1750 -0.9689 -0.1750
vn 0.2287 -0.9689 -0.0947
vn 0.2475 -0.9689 0.0000
vn 0.2287 -0.9689 0.0947
vn 0.1750 -0.9689 0.1750
vn 0.1400 -0.9677 0.2096
vn 0.8129 -0.0352 -0.5813
vn 0.8510 -0.0541 -0.5224
vn 0.8457 -0.0392 -0.5322
vn 0.8478 -0.0266 -0.5296
vn 0.8424 -0.0142 -0.5387
vn 0.8536 0.0241 0.5203
vn 0.8539 0.0235 0.5199
vn 0.8636 0.0176 0.5038
vn 0.8650 0.0163 0.5015
vn 0.8976 -0.0025 0.4409
# 48 vertex normals

vt -2.0014 -1.1656 0.0000
vt -2.0014 -1.2448 0.0000
vt -1.7511 -1.1656 0.0000
vt -1.7511 -1.2448 0.0000
vt -1.5008 -1.1656 0.0000
vt -1.5008 -1.2448 0.0000
vt -1.3449 -1.2448 0.0000
vt -1.3447 -1.1656 0.0000
vt 1.3482 -1.1656 0.0000
vt 1.3507 -1.2447 0.0000
vt 1.5007 -1.1655 0.0000
vt 1.5007 -1.2447 0.0000
vt 1.7529 -1.1655 0.0000
vt 1.7529 -1.2447 0.0000
vt 2.0032 -1.1655 0.0000
vt 2.0032 -1.2447 0.0000
vt -2.0014 -1.1129 0.0000
vt -1.7511 -1.1129 0.0000
vt -1.5008 -1.1129 0.0000
vt -1.3470 -1.1129 0.0000
vt 1.3452 -1.1128 0.0000
vt 1.5007 -1.1128 0.0000
vt 1.7529 -1.1128 0.0000
vt 2.0032 -1.1128 0.0000
vt 1.9898 -0.1731 0.0000
vt 1.9898 -0.0107 0.0000
vt 1.7410 -0.1731 0.0000
vt 1.7410 -0.0107 0.0000
vt 1.4923 -0.1731 0.0000
vt 1.4923 -0.0107 0.0000
vt 1.3393 -0.0107 0.0000
vt 1.3391 -0.1731 0.0000
vt -1.3395 -0.1732 0.0000
vt -1.3384 -0.0108 0.0000
vt -1.4930 -0.1732 0.0000
vt -1.4930 -0.0108 0.0000
vt -1.7418 -0.1732 0.0000
vt -1.7418 -0.0108 0.0000
vt -1.9905 -0.1732 0.0000
vt -1.9905 -0.0108 0.0000
vt 1.9898 -0.2763 0.0000
vt 1.7410 -0.2763 0.0000
vt 1.4923 -0.2763 0.0000
vt 1.3370 -0.2763 0.0000
vt -1.3375 -0.2781 0.0000
vt -1.4930 -0.2781 0.0000
vt -1.7418 -0.2781 0.0000
vt -1.9905 -0.2781 0.0000
vt 1.0606 -0.1830 0.0000
vt 1.0606 -0.0015 0.0000
vt 0.9592 -0.1830 0.0000
vt 0.9592 -0.0015 0.0000
vt 0.8606 -0.0015 0.0000
vt 0.8606 -0.1830 0.0000
vt 0.7605 -0.0015 0.0000
vt 0.7605 -0.1830 0.0000
vt 0.6616 -0.0015 0.0000
vt 0.6616 -0.1830 0.0000
vt 0.5610 -0.0015 0.0000
vt 0.5610 -0.1830 0.0000
vt 0.4620 -0.0015 0.0000
vt 0.4620 -0.1830 0.0000
vt 0.2328 -0.1290 0.0000
vt 0.2574 -0.1466 0.0000
vt 0.2167 -0.0659 0.0000
vt 0.3242 -0.1282 0.0000
vt 0.3703 -0.0708 0.0000
vt 0.0684 -0.0609 0.0000
vt 0.1122 -0.1201 0.0000
vt 0.2250 -0.0628 0.0000
vt 0.1776 -0.1407 0.0000
vt 0.2054 -0.1249 0.0000
# 72 texture coords

g ccp_metal_yy_yelow_Cmn_dpn
usemtl Standardmaterial
s 1
f 10/1/10 11/2/10 12/3/11 
s 2
f 11/2/10 13/4/12 12/3/11 
s 3
f 12/3/11 13/4/12 14/5/13 
s 4
f 13/4/14 15/6/13 14/5/13 
s 5
f 15/6/13 16/7/15 14/5/13 
s 6
f 14/5/13 16/7/15 17/8/15 
s 7
f 18/9/16 19/10/16 20/11/17 
s 8
f 19/10/16 21/12/17 20/11/17 
s 9
f 20/11/17 21/12/17 22/13/18 
s 10
f 21/12/17 23/14/18 22/13/18 
s 11
f 22/13/18 23/14/18 10/15/19 
s 12
f 23/14/18 11/16/19 10/15/19 
s 13
f 24/17/20 10/1/20 25/18/21 
s 14
f 10/1/20 12/3/22 25/18/21 
s 15
f 25/18/21 12/3/22 26/19/23 
s 16
f 12/3/24 14/5/23 26/19/23 
s 17
f 14/5/23 17/8/25 26/19/23 
s 18
f 26/19/23 17/8/25 27/20/25 
s 19
f 28/21/26 18/9/26 29/22/27 
s 20
f 18/9/26 20/11/27 29/22/27 
s 21
f 29/22/27 20/11/27 30/23/28 
s 22
f 20/11/27 22/13/28 30/23/28 
s 23
f 30/23/28 22/13/28 24/24/29 
s 24
f 22/13/28 10/15/29 24/24/29 
s 25
f 31/25/30 24/26/30 32/27/30 
s 26
f 24/26/30 25/28/30 32/27/30 
s 27
f 32/27/30 25/28/30 33/29/30 
s 28
f 25/28/30 26/30/30 33/29/30 
s 29
f 26/30/30 27/31/30 33/29/30 
s 30
f 33/29/30 27/31/30 34/32/30 
s 31
f 35/33/31 28/34/31 36/35/30 
s 32
f 28/34/30 29/36/30 36/35/30 
s 33
f 36/35/30 29/36/30 37/37/30 
s 34
f 29/36/30 30/38/30 37/37/30 
s 35
f 37/37/30 30/38/30 31/39/30 
s 36
f 30/38/30 24/40/30 31/39/30 
s 37
f 38/41/32 31/25/32 39/42/33 
s 38
f 31/25/32 32/27/33 39/42/33 
s 39
f 39/42/33 32/27/33 40/43/34 
s 40
f 32/27/33 33/29/34 40/43/34 
s 41
f 33/29/34 34/32/35 40/43/34 
s 42
f 40/43/34 34/32/35 41/44/35 
s 43
f 42/45/36 35/33/36 43/46/37 
s 44
f 35/33/36 36/35/37 43/46/37 
s 45
f 43/46/37 36/35/37 44/47/38 
s 46
f 36/35/37 37/37/38 44/47/38 
s 47
f 44/47/38 37/37/38 38/48/39 
s 48
f 37/37/38 31/39/40 38/48/39 
s 49
f 41/49/41 16/50/41 40/51/42 
s 50
f 16/50/41 15/52/42 40/51/42 
s 51
f 15/52/42 13/53/43 40/51/42 
s 52
f 40/51/42 13/53/43 39/54/43 
s 53
f 13/53/43 11/55/44 39/54/43 
s 54
f 39/54/43 11/55/44 38/56/44 
s 55
f 11/55/44 23/57/45 38/56/44 
s 56
f 38/56/44 23/57/45 44/58/45 
s 57
f 23/57/45 21/59/46 44/58/45 
s 58
f 44/58/45 21/59/46 43/60/46 
s 59
f 21/59/46 19/61/47 43/60/46 
s 60
f 43/60/46 19/61/47 42/62/47 
s 61
f 18/63/48 28/64/49 19/65/50 
s 62
f 28/64/49 35/66/51 19/65/50 
s 63
f 19/65/50 35/66/51 42/67/52 
s 64
f 41/68/53 34/69/54 16/70/55 
s 65
f 34/69/54 27/71/56 16/70/55 
s 66
f 16/70/55 27/71/56 17/72/57 
# 0 polygons - 66 triangles

#
# object cpz_metal_tn1_footholdA_floor
#

v  -2.7824 36.1634 -1.7691
v  -3.0710 36.1305 -2.2438
v  -2.7927 36.1848 -1.1656
v  -5.5324 35.9948 -2.3028
v  -2.8077 36.1987 -0.0010
v  -5.9916 35.9948 -0.0034
v  -2.8174 36.1832 1.1731
v  -5.5359 35.9948 2.2967
v  -2.8203 36.1575 1.8764
v  -3.0463 36.1346 2.1714
v  -4.9954 35.9948 3.1069
v  -10.3451 35.2689 5.7085
v  -11.0898 35.2689 4.5922
v  -12.6304 34.9112 6.8246
v  -16.6437 34.4324 6.8876
v  -12.7400 34.4324 12.7396
v  -10.9817 34.9165 9.2292
v  -11.5406 34.6683 11.5420
v  -9.1394 34.4324 15.0685
v  -8.0818 34.7019 13.5725
v  -18.0107 34.4324 -0.0127
v  -12.0011 35.2689 -0.0080
v  -16.6330 34.4324 -6.9109
v  -11.0827 35.2689 -4.6069
v  -12.5707 34.9137 -6.8835
v  -12.7204 34.4324 -12.7568
v  -8.9658 35.1721 -8.9965
v  -9.2687 34.7003 -12.7904
v  -8.1071 34.7099 -13.4839
v  -9.1908 34.4324 -15.1073
v  -7.3444 35.1681 -10.1121
v  -10.9997 35.1592 -6.1206
v  -4.9505 35.9948 -3.1722
v  -2.7824 35.3287 -1.7691
v  -2.7927 35.3501 -1.1656
v  -3.0710 35.2958 -2.2438
v  -5.5324 35.1601 -2.3028
v  -4.9505 35.1601 -3.1722
v  -10.9997 34.3245 -6.1206
v  -11.0827 34.4342 -4.6069
v  -12.5707 34.0790 -6.8835
v  -8.9658 34.3374 -8.9965
v  -12.7204 33.5977 -12.7568
v  -9.2687 33.8656 -12.7904
v  -7.3444 34.3334 -10.1121
v  -8.1071 33.8752 -13.4839
v  -9.1908 33.5977 -15.1073
v  -2.8077 35.3640 -0.0010
v  -5.9916 35.1601 -0.0034
v  -12.0011 34.4342 -0.0080
v  -16.6330 33.5977 -6.9109
v  -18.0107 33.5977 -0.0127
v  -11.0898 34.4342 4.5922
v  -16.6437 33.5977 6.8876
v  -12.6304 34.0765 6.8246
v  -12.7400 33.5977 12.7396
v  -10.9817 34.0818 9.2292
v  -11.5406 33.8336 11.5420
v  -9.1394 33.5977 15.0685
v  -8.0818 33.8672 13.5725
v  -10.3451 34.4342 5.7085
v  -5.5359 35.1601 2.2967
v  -4.9954 35.1601 3.1069
v  -3.0463 35.2999 2.1714
v  -2.8203 35.3228 1.8764
v  -2.8174 35.3485 1.1731
# 66 vertices

vn -0.0541 0.9979 -0.0362
vn -0.0602 0.9980 -0.0217
vn -0.0884 0.9954 -0.0372
vn -0.0639 0.9980 -0.0001
vn -0.0858 0.9963 0.0093
vn -0.0603 0.9980 0.0214
vn -0.0882 0.9954 0.0365
vn -0.0542 0.9979 0.0362
vn -0.0759 0.9958 0.0506
vn -0.1087 0.9914 0.0725
vn -0.1202 0.9915 0.0497
vn -0.1169 0.9901 0.0780
vn -0.1274 0.9905 0.0527
vn -0.0969 0.9905 0.0981
vn -0.1007 0.9904 0.0950
vn -0.0797 0.9895 0.1205
vn -0.0807 0.9893 0.1212
vn -0.1379 0.9905 -0.0001
vn -0.1300 0.9915 -0.0001
vn -0.1273 0.9905 -0.0529
vn -0.1176 0.9917 -0.0518
vn -0.1168 0.9901 -0.0782
vn -0.0974 0.9904 -0.0976
vn -0.0973 0.9905 -0.0976
vn -0.0780 0.9901 -0.1169
vn -0.0780 0.9901 -0.1171
vn -0.0780 0.9900 -0.1172
vn -0.1199 0.9925 -0.0239
vn -0.1124 0.9906 -0.0777
vn -0.0767 0.9957 -0.0513
vn 0.0541 -0.9979 0.0362
vn 0.0602 -0.9980 0.0217
vn 0.0884 -0.9954 0.0372
vn 0.0767 -0.9957 0.0513
vn 0.1124 -0.9906 0.0777
vn 0.1176 -0.9917 0.0518
vn 0.1168 -0.9901 0.0782
vn 0.0973 -0.9905 0.0976
vn 0.0974 -0.9904 0.0976
vn 0.0780 -0.9901 0.1169
vn 0.0780 -0.9901 0.1171
vn 0.0780 -0.9900 0.1171
vn 0.0639 -0.9980 0.0001
vn 0.0954 -0.9954 0.0001
vn 0.1300 -0.9915 0.0001
vn 0.1273 -0.9905 0.0529
vn 0.1379 -0.9905 0.0001
vn 0.1202 -0.9915 -0.0497
vn 0.1274 -0.9905 -0.0527
vn 0.1169 -0.9901 -0.0780
vn 0.0969 -0.9905 -0.0981
vn 0.1007 -0.9904 -0.0950
vn 0.0797 -0.9895 -0.1205
vn 0.0807 -0.9893 -0.1212
vn 0.1087 -0.9914 -0.0725
vn 0.0882 -0.9954 -0.0365
vn 0.0759 -0.9958 -0.0506
vn 0.0542 -0.9979 -0.0362
vn 0.0603 -0.9980 -0.0214
# 59 vertex normals

vt 0.4269 -0.4323 0.0000
vt 0.4193 -0.4204 0.0000
vt 0.4266 -0.4475 0.0000
vt 0.3551 -0.4191 0.0000
vt 0.4263 -0.4766 0.0000
vt 0.3433 -0.4765 0.0000
vt 0.4261 -0.4470 0.0000
vt 0.3553 -0.4186 0.0000
vt 0.4261 -0.4293 0.0000
vt 0.4202 -0.4218 0.0000
vt 0.3694 -0.3982 0.0000
vt 0.2300 -0.3323 0.0000
vt 0.2106 -0.3604 0.0000
vt 0.1705 -0.3041 0.0000
vt 0.0658 -0.3023 0.0000
vt 0.1680 -0.1550 0.0000
vt 0.2136 -0.2435 0.0000
vt 0.1992 -0.1852 0.0000
vt 0.2638 -0.0933 0.0000
vt 0.2895 -0.1342 0.0000
vt 0.0298 -0.4761 0.0000
vt 0.1866 -0.4763 0.0000
vt 0.0654 -0.3035 0.0000
vt 0.2103 -0.3613 0.0000
vt 0.1713 -0.3040 0.0000
vt 0.1671 -0.1560 0.0000
vt 0.2654 -0.2504 0.0000
vt 0.2572 -0.1549 0.0000
vt 0.2875 -0.1374 0.0000
vt 0.2616 -0.0948 0.0000
vt 0.3076 -0.2222 0.0000
vt 0.2125 -0.3229 0.0000
vt 0.3703 -0.3971 0.0000
# 33 texture coords

g cpz_metal_tn1_footholdA_floor
usemtl Standardmaterial
s 1
f 45/73/58 46/74/58 47/75/59 
s 2
f 46/74/58 48/76/60 47/75/59 
s 3
f 47/75/59 48/76/60 49/77/61 
s 4
f 48/76/60 50/78/62 49/77/61 
s 5
f 49/77/61 50/78/62 51/79/63 
s 6
f 50/78/62 52/80/64 51/79/63 
s 7
f 51/79/63 52/80/64 53/81/65 
s 8
f 53/81/65 52/80/64 54/82/65 
s 9
f 54/82/65 52/80/64 55/83/66 
s 10
f 55/83/66 52/80/64 56/84/67 
s 11
f 52/80/64 57/85/68 56/84/67 
s 12
f 56/84/67 57/85/68 58/86/69 
s 13
f 57/85/68 59/87/70 58/86/69 
s 14
f 59/87/70 60/88/71 58/86/69 
s 15
f 58/86/69 60/88/71 61/89/69 
s 16
f 61/89/69 60/88/71 62/90/72 
s 17
f 60/88/71 63/91/73 62/90/72 
s 18
f 62/90/72 63/91/73 64/92/74 
s 19
f 59/87/70 57/85/68 65/93/75 
s 20
f 57/85/68 66/94/76 65/93/75 
s 21
f 65/93/75 66/94/76 67/95/77 
s 22
f 66/94/76 68/96/78 67/95/77 
s 23
f 68/96/78 69/97/79 67/95/77 
s 24
f 67/95/77 69/97/79 70/98/80 
s 25
f 69/97/79 71/99/81 70/98/80 
s 26
f 71/99/81 72/100/82 70/98/80 
s 27
f 72/100/82 73/101/83 70/98/80 
s 28
f 70/98/80 73/101/83 74/102/84 
s 29
f 72/100/82 71/99/81 75/103/82 
s 30
f 57/85/68 52/80/64 66/94/76 
s 31
f 52/80/64 50/78/62 66/94/76 
s 32
f 50/78/85 48/76/60 66/94/76 
s 33
f 66/94/76 48/76/60 68/96/78 
s 34
f 48/76/60 76/104/86 68/96/78 
s 35
f 68/96/78 76/104/86 69/97/79 
s 36
f 76/104/86 71/99/81 69/97/79 
s 37
f 76/104/86 48/76/60 77/105/87 
s 38
f 77/105/87 48/76/60 46/74/58 
s 39
f 78/73/88 79/75/89 80/74/88 
s 40
f 79/75/89 81/76/90 80/74/88 
s 41
f 80/74/88 81/76/90 82/105/91 
s 42
f 82/105/91 81/76/90 83/104/92 
s 43
f 81/76/90 84/96/93 83/104/92 
s 44
f 84/96/93 85/97/94 83/104/92 
s 45
f 83/104/92 85/97/94 86/99/95 
s 46
f 85/97/94 87/98/96 86/99/95 
s 47
f 87/98/96 88/100/97 86/99/95 
s 48
f 86/99/95 88/100/97 89/103/97 
s 49
f 88/100/97 87/98/96 90/101/98 
s 50
f 90/101/98 87/98/96 91/102/99 
s 51
f 79/75/89 92/77/100 81/76/90 
s 52
f 92/77/100 93/78/101 81/76/90 
s 53
f 93/78/101 94/94/102 81/76/90 
s 54
f 81/76/90 94/94/102 84/96/93 
s 55
f 94/94/102 95/95/103 84/96/93 
s 56
f 84/96/93 95/95/103 85/97/94 
s 57
f 95/95/103 87/98/96 85/97/94 
s 58
f 95/95/103 94/94/102 96/93/104 
s 59
f 94/94/102 97/85/105 96/93/104 
s 60
f 96/93/104 97/85/105 98/87/106 
s 61
f 97/85/105 99/86/107 98/87/106 
s 62
f 98/87/106 99/86/107 100/88/108 
s 63
f 99/86/107 101/89/107 100/88/108 
s 64
f 101/89/107 102/90/109 100/88/108 
s 65
f 100/88/108 102/90/109 103/91/110 
s 66
f 102/90/109 104/92/111 103/91/110 
s 67
f 99/86/107 97/85/105 105/84/112 
s 68
f 97/85/105 106/80/113 105/84/112 
s 69
f 105/84/112 106/80/113 107/83/114 
s 70
f 107/83/114 106/80/113 108/82/115 
s 71
f 108/82/115 106/80/113 109/81/115 
s 72
f 109/81/115 106/80/113 110/79/116 
s 73
f 106/80/113 93/78/101 110/79/116 
s 74
f 110/79/116 93/78/101 92/77/100 
s 75
f 93/78/101 106/80/113 94/94/102 
s 76
f 94/94/102 106/80/113 97/85/105 
# 0 polygons - 76 triangles

#
# object ccp_metal_yy_gray_Cmn_dpn
#

v  -8.0818 34.7019 13.5725
v  -9.1394 34.4324 15.0685
v  -8.0818 33.8672 13.5725
v  -9.1394 33.5977 15.0685
v  -9.1908 33.5977 -15.1073
v  -9.1908 34.4324 -15.1073
v  -8.1071 33.8752 -13.4839
v  -8.1071 34.7099 -13.4839
v  -10.9997 35.1592 -6.1206
v  -10.9997 34.3245 -6.1206
v  -8.9658 35.1721 -8.9965
v  -8.9658 34.3374 -8.9965
v  -7.3444 34.3334 -10.1121
v  -7.3444 35.1681 -10.1121
v  -9.2687 33.8656 -12.7904
v  -9.2687 34.7003 -12.7904
v  -4.9505 35.1601 -3.1722
v  -4.9505 35.9948 -3.1722
v  -3.0710 35.2958 -2.2438
v  -3.0710 36.1305 -2.2438
v  -2.7824 35.3287 -1.7691
v  -2.7824 36.1634 -1.7691
v  -2.7927 35.3501 -1.1656
v  -2.7927 36.1848 -1.1656
v  -2.8077 35.3640 -0.0010
v  -2.8077 36.1987 -0.0010
v  -2.8174 36.1832 1.1731
v  -2.8174 35.3485 1.1731
v  -2.8203 36.1575 1.8764
v  -2.8203 35.3228 1.8764
v  -3.0463 36.1346 2.1714
v  -3.0463 35.2999 2.1714
v  -4.9954 35.9948 3.1069
v  -4.9954 35.1601 3.1069
v  -10.3451 35.2689 5.7085
v  -10.3451 34.4342 5.7085
v  -12.6304 34.0765 6.8246
v  -12.6304 34.9112 6.8246
v  -10.9817 34.0818 9.2292
v  -10.9817 34.9165 9.2292
v  -11.5406 33.8336 11.5420
v  -11.5406 34.6683 11.5420
# 42 vertices

vn 0.8166 0.0000 0.5773
vn 0.8317 0.0000 -0.5552
vn 0.8164 0.0000 0.5774
vn 0.7208 0.0000 0.6931
vn 0.7026 0.0000 0.7116
vn 0.5669 0.0000 0.8238
vn 0.8121 0.0000 -0.5835
vn 0.4381 0.0000 -0.8989
vn 0.4404 0.0000 -0.8978
vn 0.4406 0.0000 -0.8977
vn 0.6671 0.0000 -0.7450
vn 0.5798 0.0000 -0.8148
vn 0.9629 0.0000 -0.2698
vn 0.8545 0.0000 -0.5194
vn 0.9675 0.0000 -0.2530
vn 0.9999 0.0000 0.0150
vn 0.9999 0.0000 0.0149
vn 0.9999 0.0000 0.0106
vn 1.0000 0.0000 0.0063
vn 1.0000 -0.0000 0.0062
vn 0.9498 -0.0000 0.3129
vn 0.9430 -0.0000 0.3328
vn 0.6381 -0.0000 0.7700
vn 0.6232 0.0000 0.7821
vn 0.4349 0.0000 0.9005
vn 0.4352 0.0000 0.9004
vn 0.4379 0.0000 0.8990
vn 0.4381 0.0000 0.8989
vn 0.4388 0.0000 0.8986
vn 0.8248 0.0000 -0.5655
vn 0.9720 0.0000 0.2349
vn 0.5063 0.0000 -0.8624
vn 0.5126 0.0000 0.8586
# 33 vertex normals

vt -2.2931 -0.1037 0.0000
vt -2.5760 -0.1037 0.0000
vt -2.2931 -0.2979 0.0000
vt -2.5760 -0.2979 0.0000
vt 3.8168 -0.2979 0.0000
vt 3.8168 -0.1037 0.0000
vt 3.5269 -0.2979 0.0000
vt 3.5269 -0.1037 0.0000
vt 2.1055 -0.1037 0.0000
vt 2.1055 -0.2979 0.0000
vt 2.6049 -0.1037 0.0000
vt 2.6049 -0.2979 0.0000
vt 2.8551 -0.2979 0.0000
vt 2.8551 -0.1037 0.0000
vt 3.3163 -0.2979 0.0000
vt 3.3163 -0.1037 0.0000
vt 1.2520 -0.2979 0.0000
vt 1.2300 -0.1037 0.0000
vt 0.9765 -0.2979 0.0000
vt 0.9765 -0.1037 0.0000
vt 0.9155 -0.2979 0.0000
vt 0.9155 -0.1037 0.0000
vt 0.8323 -0.2979 0.0000
vt 0.8323 -0.1037 0.0000
vt 0.6718 -0.2979 0.0000
vt 0.6718 -0.1037 0.0000
vt 0.5100 -0.1037 0.0000
vt 0.5100 -0.2979 0.0000
vt 0.4130 -0.1037 0.0000
vt 0.4130 -0.2979 0.0000
vt 0.3551 -0.1037 0.0000
vt 0.3551 -0.2979 0.0000
vt 0.0925 -0.1037 0.0000
vt 0.0794 -0.2979 0.0000
vt -0.6514 -0.1037 0.0000
vt -0.6645 -0.2979 0.0000
vt -0.9786 -0.2979 0.0000
vt -0.9786 -0.1037 0.0000
vt -1.3944 -0.2979 0.0000
vt -1.3944 -0.1037 0.0000
vt -1.7263 -0.2979 0.0000
vt -1.7263 -0.1037 0.0000
# 42 texture coords

g ccp_metal_yy_gray_Cmn_dpn
usemtl Standardmaterial
s 1
f 111/106/117 112/107/117 113/108/117 
s 2
f 113/108/117 112/107/117 114/109/117 
s 3
f 115/110/118 116/111/118 117/112/118 
s 4
f 117/112/118 116/111/118 118/113/118 
s 5
f 119/114/119 120/115/119 121/116/120 
s 6
f 120/115/119 122/117/121 121/116/120 
s 7
f 122/117/121 123/118/122 121/116/120 
s 8
f 121/116/122 123/118/122 124/119/122 
s 9
f 125/120/123 126/121/123 123/118/123 
s 10
f 123/118/123 126/121/123 124/119/123 
s 11
f 120/115/124 119/114/124 127/122/125 
s 12
f 119/114/124 128/123/126 127/122/125 
s 13
f 127/122/125 128/123/126 129/124/127 
s 14
f 128/123/126 130/125/128 129/124/127 
s 15
f 129/124/127 130/125/128 131/126/129 
s 16
f 130/125/130 132/127/131 131/126/129 
s 17
f 131/126/129 132/127/131 133/128/132 
s 18
f 132/127/131 134/129/133 133/128/132 
s 19
f 133/128/132 134/129/133 135/130/134 
s 20
f 134/129/133 136/131/134 135/130/134 
s 21
f 136/131/134 137/132/135 135/130/134 
s 22
f 135/130/134 137/132/135 138/133/136 
s 23
f 137/132/135 139/134/137 138/133/136 
s 24
f 138/133/136 139/134/137 140/135/138 
s 25
f 139/134/137 141/136/139 140/135/138 
s 26
f 140/135/138 141/136/139 142/137/140 
s 27
f 141/136/139 143/138/141 142/137/140 
s 28
f 142/137/140 143/138/141 144/139/142 
s 29
f 143/138/141 145/140/143 144/139/142 
s 30
f 144/139/142 145/140/143 146/141/144 
s 31
f 146/141/144 145/140/143 147/142/145 
s 32
f 145/140/145 148/143/145 147/142/145 
s 33
f 149/144/146 147/142/146 150/145/146 
s 34
f 150/145/146 147/142/146 148/143/146 
s 35
f 151/146/147 149/144/147 152/147/147 
s 36
f 152/147/147 149/144/147 150/145/147 
s 37
f 113/108/148 151/146/148 111/106/148 
s 38
f 111/106/148 151/146/148 152/147/148 
s 39
f 118/113/149 126/121/149 117/112/149 
s 40
f 117/112/149 126/121/149 125/120/149 
# 0 polygons - 40 triangles

