# 3ds Max Wavefront OBJ Exporter v0.97b - (c)2007 guruware
# File Created: 27.12.2011 03:14:07

mtllib cpz_obj_pipelinecapA_brk_003.mtl

#
# object cpz_obj_pipelinecapA_brk_003
#

v  0.3572 -0.0188 0.0192
v  0.3572 -0.0188 -0.0168
v  0.3572 0.0172 -0.0168
v  0.3572 0.0172 0.0192
v  0.1772 0.1792 0.1812
v  0.1772 0.1792 -0.1788
v  0.1772 -0.1808 0.1812
v  0.1772 -0.1808 -0.1788
v  -0.0028 -0.0008 0.0012
# 9 vertices

vn 1.0000 0.0000 -0.0000
vn 0.6690 0.7433 -0.0000
vn 0.6690 0.0000 0.7433
vn 0.6690 0.0000 -0.7433
vn 0.6690 -0.7433 -0.0000
vn -0.7071 0.0000 0.7071
vn -0.7071 0.7071 -0.0000
vn -0.7071 0.0000 -0.7071
vn -0.7071 -0.7071 -0.0000
# 9 vertex normals

g cpz_obj_pipelinecapA_brk_003
usemtl wire_255255000
s 1
f 1//1 2//1 3//1 4//1 
s 2
f 5//2 4//2 3//2 6//2 
s 4
f 7//3 1//3 4//3 5//3 
s 8
f 2//4 8//4 6//4 3//4 
s 16
f 1//5 7//5 8//5 2//5 
s 32
f 9//6 7//6 5//6 
s 64
f 9//7 5//7 6//7 
s 128
f 9//8 6//8 8//8 
s 256
f 9//9 8//9 7//9 
# 5 polygons - 4 triangles

#
# object cpz_metal_tn1_footholdA_floor
#

v  0.0143 36.0716 4.8122
v  1.9364 36.0581 4.6428
v  0.0170 36.2982 1.2719
v  0.0180 36.3796 0.0012
v  -0.5212 36.2896 1.3001
v  -1.0582 36.2822 1.0757
v  -1.3203 36.2869 0.5543
v  -2.8077 36.1987 -0.0010
v  -2.7927 36.1848 -1.1656
v  -2.7824 36.1634 -1.7691
v  -4.2281 35.9948 -4.2515
v  -3.0710 36.1305 -2.2438
v  -4.9505 35.9948 -3.1722
v  -10.9997 35.1592 -6.1206
v  -8.9658 35.1721 -8.9965
v  -2.2775 35.9948 -5.5527
v  -4.8667 35.1619 -11.8171
v  0.0279 35.1515 -12.8613
v  0.0226 35.9948 -6.0083
v  4.9510 35.1509 -11.8823
v  2.3220 35.9948 -5.5491
v  9.0568 35.1640 -9.0237
v  4.2707 35.9948 -4.2449
v  11.1811 35.1479 -6.0432
v  5.0789 35.9948 -3.0333
v  2.9630 36.1457 -2.0395
v  2.9599 36.1758 -1.2147
v  2.9502 36.1919 0.0035
v  2.9352 36.1774 1.2122
v  2.9210 36.1474 2.0599
v  3.5945 36.0555 3.5832
v  4.4738 36.0349 2.8382
v  2.6484 36.0856 3.6597
v  0.0143 35.4051 4.8122
v  0.0170 35.6317 1.2719
v  1.9364 35.3915 4.6428
v  0.0180 35.7131 0.0012
v  2.6484 35.4191 3.6597
v  3.5945 35.3890 3.5832
v  2.9210 35.4808 2.0599
v  4.4738 35.3683 2.8382
v  2.9352 35.5109 1.2122
v  2.9502 35.5253 0.0035
v  2.9599 35.5093 -1.2147
v  2.9630 35.4792 -2.0395
v  4.2707 35.3283 -4.2449
v  5.0789 35.3283 -3.0333
v  11.1811 34.4814 -6.0432
v  9.0568 34.4975 -9.0237
v  2.3220 35.3283 -5.5491
v  4.9510 34.4844 -11.8823
v  0.0226 35.3283 -6.0083
v  0.0279 34.4850 -12.8613
v  -2.2775 35.3283 -5.5527
v  -4.8667 34.4954 -11.8171
v  -8.9658 34.5056 -8.9965
v  -4.2281 35.3283 -4.2515
v  -10.9997 34.4927 -6.1206
v  -4.9505 35.3283 -3.1722
v  -3.0710 35.4640 -2.2438
v  -2.7824 35.4969 -1.7691
v  -2.7927 35.5182 -1.1656
v  -2.8077 35.5322 -0.0010
v  -1.3203 35.6204 0.5543
v  -1.0582 35.6157 1.0757
v  -0.5212 35.6230 1.3001
# 66 vertices

vn 0.0127 0.9979 0.0639
vn 0.0237 0.9980 0.0593
vn 0.0040 0.9979 0.0639
vn 0.0126 0.9979 0.0639
vn 0.0000 1.0000 0.0000
vn -0.0128 0.9979 0.0639
vn -0.0362 0.9979 0.0541
vn -0.0455 0.9980 0.0449
vn -0.0602 0.9980 0.0217
vn -0.0639 0.9979 -0.0080
vn -0.0639 0.9979 -0.0128
vn -0.0541 0.9979 -0.0362
vn -0.0682 0.9953 -0.0683
vn -0.0540 0.9979 -0.0363
vn -0.0809 0.9953 -0.0541
vn -0.1035 0.9923 -0.0688
vn -0.0862 0.9926 -0.0861
vn -0.0368 0.9953 -0.0893
vn -0.0688 0.9922 -0.1035
vn -0.0239 0.9922 -0.1220
vn 0.0003 0.9925 -0.1221
vn 0.0001 0.9953 -0.0967
vn 0.0465 0.9925 -0.1129
vn 0.0370 0.9953 -0.0893
vn 0.0865 0.9925 -0.0860
vn 0.0684 0.9953 -0.0682
vn 0.1037 0.9922 -0.0687
vn 0.0811 0.9952 -0.0541
vn 0.0542 0.9979 -0.0361
vn 0.0578 0.9980 -0.0274
vn 0.0639 0.9980 -0.0000
vn 0.0578 0.9980 0.0273
vn 0.0541 0.9979 0.0362
vn 0.0361 0.9979 0.0542
vn -0.0127 -0.9979 -0.0639
vn -0.0040 -0.9979 -0.0639
vn -0.0231 -0.9980 -0.0596
vn -0.0000 -1.0000 0.0000
vn -0.0362 -0.9979 -0.0542
vn -0.0480 -0.9979 -0.0424
vn -0.0541 -0.9979 -0.0362
vn -0.0578 -0.9980 -0.0273
vn -0.0639 -0.9980 0.0000
vn -0.0578 -0.9980 0.0274
vn -0.0542 -0.9979 0.0361
vn -0.0684 -0.9953 0.0682
vn -0.0811 -0.9952 0.0541
vn -0.1037 -0.9922 0.0687
vn -0.0865 -0.9925 0.0860
vn -0.0370 -0.9953 0.0893
vn -0.0465 -0.9925 0.1129
vn -0.0001 -0.9953 0.0967
vn -0.0003 -0.9925 0.1221
vn 0.0368 -0.9953 0.0893
vn 0.0461 -0.9925 0.1129
vn 0.0862 -0.9926 0.0861
vn 0.0682 -0.9953 0.0683
vn 0.1035 -0.9923 0.0688
vn 0.0809 -0.9953 0.0541
vn 0.0540 -0.9979 0.0363
vn 0.0541 -0.9979 0.0362
vn 0.0578 -0.9980 0.0273
vn 0.0639 -0.9979 0.0080
vn 0.0602 -0.9980 -0.0217
vn 0.0455 -0.9980 -0.0449
vn 0.0264 -0.9980 -0.0582
# 66 vertex normals

vt 0.5002 -0.3554 0.0000
vt 0.5503 -0.3598 0.0000
vt 0.5000 -0.4447 0.0000
vt 0.5000 -0.4767 0.0000
vt 0.4860 -0.4439 0.0000
vt 0.4720 -0.4496 0.0000
vt 0.4651 -0.4627 0.0000
vt 0.4263 -0.4766 0.0000
vt 0.4266 -0.4475 0.0000
vt 0.4269 -0.4323 0.0000
vt 0.3890 -0.3699 0.0000
vt 0.4193 -0.4204 0.0000
vt 0.3703 -0.3971 0.0000
vt 0.2125 -0.3229 0.0000
vt 0.2654 -0.2504 0.0000
vt 0.4398 -0.3370 0.0000
vt 0.3721 -0.1792 0.0000
vt 0.4995 -0.1526 0.0000
vt 0.4998 -0.3254 0.0000
vt 0.6278 -0.1770 0.0000
vt 0.5598 -0.3368 0.0000
vt 0.7350 -0.2487 0.0000
vt 0.6107 -0.3696 0.0000
vt 0.7908 -0.3239 0.0000
vt 0.6318 -0.4001 0.0000
vt 0.5767 -0.4252 0.0000
vt 0.5767 -0.4460 0.0000
vt 0.5765 -0.4768 0.0000
vt 0.5761 -0.4463 0.0000
vt 0.5758 -0.4250 0.0000
vt 0.5935 -0.3866 0.0000
vt 0.6164 -0.4054 0.0000
vt 0.5688 -0.3846 0.0000
# 33 texture coords

g cpz_metal_tn1_footholdA_floor
usemtl Standardmaterial
s 1
f 10/1/10 11/2/11 12/3/12 
s 2
f 11/2/13 13/4/14 12/3/12 
s 3
f 12/3/12 13/4/14 14/5/15 
s 4
f 14/5/16 13/4/14 15/6/17 
s 5
f 15/6/17 13/4/14 16/7/18 
s 6
f 16/7/18 13/4/14 17/8/19 
s 7
f 17/8/19 13/4/14 18/9/20 
s 8
f 18/9/21 13/4/14 19/10/21 
s 9
f 13/4/14 20/11/22 19/10/21 
s 10
f 19/10/21 20/11/22 21/12/23 
s 11
f 21/12/23 20/11/22 22/13/24 
s 12
f 22/13/24 20/11/22 23/14/25 
s 13
f 23/14/25 20/11/22 24/15/26 
s 14
f 20/11/22 25/16/27 24/15/26 
s 15
f 24/15/26 25/16/27 26/17/28 
s 16
f 26/17/29 25/16/27 27/18/30 
s 17
f 25/16/27 28/19/31 27/18/30 
s 18
f 27/18/30 28/19/31 29/20/32 
s 19
f 28/19/31 30/21/33 29/20/32 
s 20
f 29/20/32 30/21/33 31/22/34 
s 21
f 30/21/33 32/23/35 31/22/34 
s 22
f 31/22/34 32/23/35 33/24/36 
s 23
f 33/24/36 32/23/35 34/25/37 
s 24
f 34/25/37 32/23/35 35/26/38 
s 25
f 32/23/35 13/4/14 35/26/38 
s 26
f 35/26/38 13/4/14 36/27/39 
s 27
f 36/27/39 13/4/14 37/28/40 
s 28
f 37/28/40 13/4/14 38/29/41 
s 29
f 38/29/41 13/4/14 39/30/42 
s 30
f 13/4/14 40/31/42 39/30/42 
s 31
f 39/30/42 40/31/42 41/32/42 
s 32
f 40/31/43 13/4/14 42/33/43 
s 33
f 42/33/43 13/4/14 11/2/11 
s 34
f 32/23/35 30/21/33 13/4/14 
s 35
f 30/21/33 28/19/31 13/4/14 
s 36
f 28/19/31 25/16/27 13/4/14 
s 37
f 13/4/14 25/16/27 20/11/22 
s 38
f 43/1/44 44/3/45 45/2/46 
s 39
f 44/3/45 46/4/47 45/2/46 
s 40
f 45/2/46 46/4/47 47/33/48 
s 41
f 47/33/48 46/4/47 48/31/49 
s 42
f 46/4/47 49/30/50 48/31/49 
s 43
f 48/31/49 49/30/50 50/32/50 
s 44
f 49/30/50 46/4/47 51/29/51 
s 45
f 51/29/51 46/4/47 52/28/52 
s 46
f 52/28/52 46/4/47 53/27/53 
s 47
f 53/27/53 46/4/47 54/26/54 
s 48
f 46/4/47 55/23/55 54/26/54 
s 49
f 54/26/54 55/23/55 56/25/56 
s 50
f 56/25/56 55/23/55 57/24/57 
s 51
f 57/24/57 55/23/55 58/22/58 
s 52
f 55/23/55 59/21/59 58/22/58 
s 53
f 58/22/58 59/21/59 60/20/60 
s 54
f 59/21/59 61/19/61 60/20/60 
s 55
f 60/20/60 61/19/61 62/18/62 
s 56
f 61/19/61 63/16/63 62/18/62 
s 57
f 62/18/62 63/16/63 64/17/64 
s 58
f 64/17/64 63/16/63 65/15/65 
s 59
f 63/16/63 66/11/66 65/15/65 
s 60
f 65/15/65 66/11/66 67/14/67 
s 61
f 67/14/67 66/11/66 68/13/68 
s 62
f 68/13/68 66/11/66 69/12/69 
s 63
f 69/12/69 66/11/66 70/10/70 
s 64
f 66/11/66 46/4/47 70/10/70 
s 65
f 70/10/70 46/4/47 71/9/71 
s 66
f 71/9/71 46/4/47 72/8/72 
s 67
f 72/8/72 46/4/47 73/7/73 
s 68
f 73/7/73 46/4/47 74/6/74 
s 69
f 74/6/74 46/4/47 75/5/75 
s 70
f 46/4/47 44/3/45 75/5/75 
s 71
f 66/11/66 63/16/63 46/4/47 
s 72
f 63/16/63 61/19/61 46/4/47 
s 73
f 61/19/61 59/21/59 46/4/47 
s 74
f 46/4/47 59/21/59 55/23/55 
# 0 polygons - 74 triangles

#
# object ccp_metal_yy_gray_Cmn_dpn
#

v  0.0143 35.4051 4.8122
v  0.0143 36.0716 4.8122
v  0.0170 35.6317 1.2719
v  0.0170 36.2982 1.2719
v  2.9210 35.4808 2.0599
v  2.9352 35.5109 1.2122
v  2.9210 36.1474 2.0599
v  2.9352 36.1774 1.2122
v  2.9502 35.5253 0.0035
v  2.9502 36.1919 0.0035
v  2.9599 36.1758 -1.2147
v  2.9599 35.5093 -1.2147
v  2.9630 36.1457 -2.0395
v  2.9630 35.4792 -2.0395
v  11.1811 34.4814 -6.0432
v  11.1811 35.1479 -6.0432
v  5.0789 35.3283 -3.0333
v  5.0789 35.9948 -3.0333
v  9.0568 34.4975 -9.0237
v  9.0568 35.1640 -9.0237
v  4.9510 34.4844 -11.8823
v  4.9510 35.1509 -11.8823
v  0.0279 34.4850 -12.8613
v  0.0279 35.1515 -12.8613
v  -4.8667 34.4954 -11.8171
v  -4.8667 35.1619 -11.8171
v  -8.9658 34.5056 -8.9965
v  -8.9658 35.1721 -8.9965
v  -10.9997 34.4927 -6.1206
v  -10.9997 35.1592 -6.1206
v  4.4738 35.3683 2.8382
v  4.4738 36.0349 2.8382
v  3.5945 35.3890 3.5832
v  3.5945 36.0555 3.5832
v  2.6484 35.4191 3.6597
v  2.6484 36.0856 3.6597
v  1.9364 35.3915 4.6428
v  1.9364 36.0581 4.6428
v  -0.5212 36.2896 1.3001
v  -0.5212 35.6230 1.3001
v  -1.0582 36.2822 1.0757
v  -1.0582 35.6157 1.0757
v  -1.3203 35.6204 0.5543
v  -1.3203 36.2869 0.5543
v  -2.8077 36.1987 -0.0010
v  -2.8077 35.5322 -0.0010
v  -2.7927 36.1848 -1.1656
v  -2.7927 35.5182 -1.1656
v  -2.7824 36.1634 -1.7691
v  -2.7824 35.4969 -1.7691
v  -3.0710 36.1305 -2.2438
v  -3.0710 35.4640 -2.2438
v  -4.9505 35.9948 -3.1722
v  -4.9505 35.3283 -3.1722
# 54 vertices

vn -1.0000 0.0000 -0.0008
vn 0.9999 0.0000 0.0167
vn 0.9999 0.0000 0.0146
vn 0.9999 0.0000 0.0106
vn 0.9999 -0.0000 0.0102
vn 1.0000 -0.0000 0.0059
vn 1.0000 0.0000 0.0079
vn 1.0000 0.0000 0.0058
vn 1.0000 0.0000 0.0037
vn 0.4424 0.0000 0.8968
vn 0.4424 -0.0000 0.8968
vn 0.4343 -0.0000 0.9008
vn 0.4332 -0.0000 0.9013
vn 0.4251 -0.0000 0.9051
vn 0.4251 0.0000 0.9051
vn 0.8143 0.0000 -0.5804
vn 0.7033 0.0000 -0.7109
vn 0.7031 0.0000 -0.7111
vn 0.3913 0.0000 -0.9202
vn 0.3916 -0.0000 -0.9201
vn -0.0068 -0.0000 -1.0000
vn -0.0071 -0.0000 -1.0000
vn -0.3951 -0.0000 -0.9186
vn -0.3956 -0.0000 -0.9184
vn -0.7026 -0.0000 -0.7116
vn -0.7025 -0.0000 -0.7117
vn -0.8164 -0.0000 -0.5774
vn -0.8164 0.0000 -0.5774
vn 0.4481 0.0000 -0.8940
vn 0.6464 0.0000 0.7630
vn 0.3866 0.0000 0.9223
vn 0.4479 0.0000 0.8941
vn 0.0806 0.0000 0.9967
vn 0.0806 -0.0000 0.9967
vn 0.8099 0.0000 0.5866
vn 0.8099 -0.0000 0.5866
vn 0.0878 0.0000 0.9961
vn 0.0523 -0.0000 0.9986
vn -0.1688 0.0000 0.9856
vn 0.0523 0.0000 0.9986
vn -0.1729 0.0000 0.9849
vn -0.6815 0.0000 0.7318
vn -0.6823 0.0000 0.7310
vn -0.6634 -0.0000 0.7483
vn -0.6722 -0.0000 0.7403
vn -0.3498 -0.0000 0.9368
vn -0.3498 0.0000 0.9368
vn -0.9999 0.0000 -0.0128
vn -0.9999 0.0000 -0.0149
vn -0.9999 0.0000 -0.0150
vn -0.9675 0.0000 0.2530
vn -0.9629 0.0000 0.2698
vn -0.6840 0.0000 0.7295
vn -0.6671 0.0000 0.7450
vn -0.4406 0.0000 0.8977
vn -0.4404 0.0000 0.8978
vn -0.4381 0.0000 0.8989
# 57 vertex normals

vt 4.3563 -1.0699 0.0000
vt 4.3493 -1.3086 0.0000
vt 4.9377 -1.0699 0.0000
vt 4.9308 -1.3086 0.0000
vt 3.3170 -1.0699 0.0000
vt 3.1859 -1.0699 0.0000
vt 3.3100 -1.3086 0.0000
vt 3.1790 -1.3086 0.0000
vt 2.9990 -1.0699 0.0000
vt 2.9921 -1.3086 0.0000
vt 2.8037 -1.3086 0.0000
vt 2.8106 -1.0699 0.0000
vt 2.6770 -1.3086 0.0000
vt 2.6839 -1.0699 0.0000
vt 1.2417 -1.0699 0.0000
vt 1.2347 -1.3086 0.0000
vt 2.3149 -1.0699 0.0000
vt 2.3161 -1.3086 0.0000
vt 0.6586 -1.0699 0.0000
vt 0.6517 -1.3086 0.0000
vt 0.0237 -1.0699 0.0000
vt 0.0168 -1.3086 0.0000
vt -0.7375 -1.0699 0.0000
vt -0.7444 -1.3086 0.0000
vt -1.4944 -1.0699 0.0000
vt -1.5013 -1.3086 0.0000
vt -2.1274 -1.0699 0.0000
vt -2.1343 -1.3086 0.0000
vt -2.6713 -1.0699 0.0000
vt -2.6782 -1.3086 0.0000
vt 3.6082 -1.0699 0.0000
vt 3.6013 -1.3086 0.0000
vt 3.7960 -1.0699 0.0000
vt 3.7891 -1.3086 0.0000
vt 3.9152 -1.0699 0.0000
vt 3.9083 -1.3086 0.0000
vt 4.0975 -1.0699 0.0000
vt 4.0906 -1.3086 0.0000
vt 5.0291 -1.3086 0.0000
vt 5.0360 -1.0699 0.0000
vt 5.1121 -1.3086 0.0000
vt 5.1190 -1.0699 0.0000
vt 5.2084 -1.0699 0.0000
vt 5.2015 -1.3086 0.0000
vt 5.3815 -1.3086 0.0000
vt 5.3884 -1.0699 0.0000
vt 5.5414 -1.3086 0.0000
vt 5.5483 -1.0699 0.0000
vt 5.6240 -1.3086 0.0000
vt 5.6310 -1.0699 0.0000
vt 5.7097 -1.3086 0.0000
vt 5.7166 -1.0699 0.0000
vt 5.9685 -1.3086 0.0000
vt 5.9754 -1.0699 0.0000
vt 6.8164 -1.3086 0.0000
vt 6.8234 -1.0699 0.0000
# 56 texture coords

g ccp_metal_yy_gray_Cmn_dpn
usemtl Standardmaterial
s 1
f 76/34/76 77/35/76 78/36/76 
s 2
f 78/36/76 77/35/76 79/37/76 
s 3
f 80/38/77 81/39/78 82/40/77 
s 4
f 82/40/77 81/39/78 83/41/78 
s 5
f 81/39/78 84/42/79 83/41/78 
s 6
f 83/41/78 84/42/79 85/43/80 
s 7
f 85/43/80 84/42/79 86/44/81 
s 8
f 84/42/82 87/45/83 86/44/81 
s 9
f 86/44/81 87/45/83 88/46/84 
s 10
f 87/45/83 89/47/84 88/46/84 
s 11
f 90/48/85 91/49/86 92/50/87 
s 12
f 91/49/86 93/51/88 92/50/87 
s 13
f 92/50/87 93/51/88 89/47/89 
s 14
f 93/51/88 88/46/90 89/47/89 
s 15
f 90/48/91 94/52/92 91/49/91 
s 16
f 91/49/91 94/52/92 95/53/93 
s 17
f 94/52/92 96/54/94 95/53/93 
s 18
f 95/53/93 96/54/94 97/55/95 
s 19
f 96/54/94 98/56/96 97/55/95 
s 20
f 97/55/95 98/56/96 99/57/97 
s 21
f 98/56/96 100/58/98 99/57/97 
s 22
f 99/57/97 100/58/98 101/59/99 
s 23
f 100/58/98 102/60/100 101/59/99 
s 24
f 101/59/99 102/60/100 103/61/101 
s 25
f 102/60/100 104/62/102 103/61/101 
s 26
f 103/61/101 104/62/102 105/63/103 
s 27
f 106/64/104 80/38/104 107/65/104 
s 28
f 107/65/104 80/38/104 82/40/104 
s 29
f 106/64/105 107/65/105 108/66/106 
s 30
f 107/65/105 109/67/107 108/66/106 
s 31
f 108/66/106 109/67/107 110/68/108 
s 32
f 109/67/109 111/69/109 110/68/109 
s 33
f 112/70/110 110/68/111 113/71/111 
s 34
f 113/71/111 110/68/111 111/69/111 
s 35
f 76/34/112 112/70/112 77/35/112 
s 36
f 77/35/112 112/70/112 113/71/112 
s 37
f 79/37/113 114/72/114 78/36/115 
s 38
f 78/36/115 114/72/114 115/73/116 
s 39
f 114/72/114 116/74/117 115/73/116 
s 40
f 115/73/116 116/74/117 117/75/118 
s 41
f 117/75/118 116/74/117 118/76/119 
s 42
f 116/74/117 119/77/120 118/76/119 
s 43
f 119/77/120 120/78/121 118/76/119 
s 44
f 118/76/119 120/78/121 121/79/122 
s 45
f 120/78/123 122/80/124 121/79/123 
s 46
f 121/79/123 122/80/124 123/81/125 
s 47
f 122/80/124 124/82/126 123/81/125 
s 48
f 123/81/125 124/82/126 125/83/127 
s 49
f 124/82/126 126/84/128 125/83/127 
s 50
f 125/83/127 126/84/128 127/85/129 
s 51
f 126/84/128 128/86/130 127/85/129 
s 52
f 127/85/129 128/86/130 129/87/131 
s 53
f 128/86/130 105/88/132 129/87/131 
s 54
f 129/87/131 105/88/132 104/89/132 
# 0 polygons - 54 triangles

