# 3ds Max Wavefront OBJ Exporter v0.97b - (c)2007 guruware
# File Created: 27.12.2011 14:32:59

mtllib cpz_obj_pipelinecapA_brk_006.mtl

#
# object cpz_obj_pipelinecapA_brk_006
#

v  0.3572 -0.0188 0.0192
v  0.3572 -0.0188 -0.0168
v  0.3572 0.0172 -0.0168
v  0.3572 0.0172 0.0192
v  0.1772 0.1792 0.1812
v  0.1772 0.1792 -0.1788
v  0.1772 -0.1808 0.1812
v  0.1772 -0.1808 -0.1788
v  -0.0028 -0.0008 0.0012
# 9 vertices

vn 1.0000 0.0000 -0.0000
vn 0.6690 0.7433 -0.0000
vn 0.6690 0.0000 0.7433
vn 0.6690 0.0000 -0.7433
vn 0.6690 -0.7433 -0.0000
vn -0.7071 0.0000 0.7071
vn -0.7071 0.7071 -0.0000
vn -0.7071 0.0000 -0.7071
vn -0.7071 -0.7071 -0.0000
# 9 vertex normals

g cpz_obj_pipelinecapA_brk_006
usemtl wire_255255000
s 1
f 1//1 2//1 3//1 4//1 
s 2
f 5//2 4//2 3//2 6//2 
s 4
f 7//3 1//3 4//3 5//3 
s 8
f 2//4 8//4 6//4 3//4 
s 16
f 1//5 7//5 8//5 2//5 
s 32
f 9//6 7//6 5//6 
s 64
f 9//7 5//7 6//7 
s 128
f 9//8 6//8 8//8 
s 256
f 9//9 8//9 7//9 
# 5 polygons - 4 triangles

#
# object ccp_metal_yy_yelow_Cmn_dpn
#

v  11.5944 31.5882 18.7270
v  15.8801 31.5882 15.8633
v  11.6124 34.0914 18.7149
v  15.8801 34.0914 15.8633
v  20.7428 34.0914 8.5857
v  20.7428 31.5882 8.5857
v  22.4504 34.0914 0.0012
v  22.4504 31.5882 0.0012
v  20.7428 34.0914 -8.5833
v  20.7428 31.5882 -8.5833
v  15.8801 34.0914 -15.8609
v  15.8801 31.5882 -15.8609
v  8.6025 34.0914 -20.7236
v  8.6025 31.5882 -20.7236
v  0.0180 34.0914 -22.4312
v  0.0180 31.5882 -22.4312
v  -8.5665 34.0914 -20.7236
v  -8.5665 31.5882 -20.7236
v  -11.4086 34.0914 -18.8246
v  -11.4818 31.5882 -18.7757
v  11.0967 34.9950 17.9477
v  15.2136 34.9950 15.1968
v  19.8720 34.9950 8.2250
v  21.5078 34.9950 0.0012
v  19.8720 34.9950 -8.2226
v  15.2136 34.9950 -15.1944
v  8.2418 34.9950 -19.8528
v  0.0180 34.9950 -21.4886
v  -8.2058 34.9950 -19.8528
v  -10.8442 34.9950 -18.0899
v  9.3786 34.9950 15.3923
v  12.9936 34.9950 12.9768
v  16.9714 34.9950 7.0236
v  18.3682 34.9950 0.0012
v  16.9714 34.9950 -7.0211
v  12.9936 34.9950 -12.9744
v  7.0403 34.9950 -16.9522
v  0.0180 34.9950 -18.3490
v  -7.0044 34.9950 -16.9522
v  -9.2842 34.9950 -15.4289
v  7.8989 33.3366 13.1225
v  11.0403 33.3366 11.0235
v  14.4193 33.3366 5.9664
v  15.6058 33.3366 0.0012
v  14.4193 33.3366 -5.9640
v  11.0403 33.3366 -11.0211
v  5.9832 33.3366 -14.4001
v  0.0180 33.3366 -15.5866
v  -5.9472 33.3366 -14.4001
v  -7.8440 33.3366 -13.1327
# 50 vertices

vn 0.5556 0.0000 0.8315
vn 0.6933 0.0000 0.7207
vn 0.7071 0.0000 0.7071
vn 0.9239 0.0000 0.3827
vn 0.8315 0.0000 0.5556
vn 0.9239 -0.0000 0.3827
vn 1.0000 0.0000 0.0000
vn 0.9998 -0.0000 0.0193
vn 0.9239 0.0000 -0.3827
vn 0.9808 0.0000 -0.1951
vn 0.7071 0.0000 -0.7071
vn 0.3827 0.0000 -0.9239
vn 0.0000 0.0000 -1.0000
vn 0.0194 0.0000 -0.9998
vn -0.3827 0.0000 -0.9239
vn -0.1951 0.0000 -0.9808
vn -0.5556 0.0000 -0.8315
vn 0.3883 0.7151 0.5812
vn 0.4893 0.7219 0.4893
vn 0.6393 0.7219 0.2648
vn 0.6920 0.7219 -0.0000
vn 0.6920 0.7219 0.0000
vn 0.6393 0.7219 -0.2648
vn 0.4893 0.7219 -0.4893
vn 0.2648 0.7219 -0.6393
vn 0.2718 0.7219 -0.6364
vn 0.0000 0.7219 -0.6920
vn 0.1364 0.7151 -0.6855
vn -0.2648 0.7219 -0.6393
vn -0.3883 0.7151 -0.5812
vn 0.0000 1.0000 -0.0000
vn -0.0000 1.0000 -0.0000
vn -0.0000 1.0000 0.0000
vn -0.2900 0.8529 -0.4341
vn -0.3640 0.8574 -0.3640
vn -0.4755 0.8574 -0.1970
vn -0.5147 0.8574 -0.0000
vn -0.4755 0.8574 0.1970
vn -0.4829 0.8572 0.1790
vn -0.3640 0.8574 0.3640
vn -0.4341 0.8529 0.2900
vn -0.1970 0.8574 0.4755
vn 0.0000 0.8574 0.5147
vn 0.1970 0.8574 0.4755
vn 0.2900 0.8529 0.4341
vn -0.1400 -0.9677 -0.2096
vn -0.1750 -0.9689 -0.1750
vn -0.2287 -0.9689 -0.0947
vn -0.2475 -0.9689 -0.0000
vn -0.2287 -0.9689 0.0947
vn -0.1750 -0.9689 0.1750
vn -0.0947 -0.9689 0.2287
vn 0.0000 -0.9689 0.2475
vn -0.0000 -0.9689 0.2475
vn 0.0947 -0.9689 0.2287
vn 0.1400 -0.9677 0.2096
vn -0.8251 0.0087 0.5649
vn -0.8288 0.0069 0.5595
vn -0.8309 0.0026 0.5564
vn -0.8341 -0.0026 0.5516
vn -0.8357 -0.0060 0.5492
vn -0.8424 0.0142 0.5387
vn -0.8478 0.0266 0.5296
vn -0.8457 0.0392 0.5322
vn -0.8510 0.0541 0.5224
vn -0.8129 0.0352 0.5813
# 66 vertex normals

vt -0.6471 -1.2448 0.0000
vt -0.4997 -1.2448 0.0000
vt -0.6464 -1.1656 0.0000
vt -0.4997 -1.1656 0.0000
vt -0.2494 -1.1656 0.0000
vt -0.2494 -1.2448 0.0000
vt 0.0009 -1.1656 0.0000
vt 0.0009 -1.2448 0.0000
vt 0.2512 -1.1656 0.0000
vt 0.2512 -1.2448 0.0000
vt 0.5004 -1.1656 0.0000
vt 0.5004 -1.2447 0.0000
vt 0.7518 -1.1656 0.0000
vt 0.7518 -1.2447 0.0000
vt 1.0002 -1.1656 0.0000
vt 1.0002 -1.2447 0.0000
vt 1.2505 -1.1656 0.0000
vt 1.2505 -1.2447 0.0000
vt 1.3482 -1.1656 0.0000
vt 1.3507 -1.2447 0.0000
vt -0.6475 -1.1129 0.0000
vt -0.4997 -1.1129 0.0000
vt -0.2494 -1.1129 0.0000
vt 0.0009 -1.1129 0.0000
vt 0.2512 -1.1129 0.0000
vt 0.5004 -1.1128 0.0000
vt 0.7518 -1.1128 0.0000
vt 1.0002 -1.1128 0.0000
vt 1.2505 -1.1128 0.0000
vt 1.3452 -1.1128 0.0000
vt 0.6482 -0.1732 0.0000
vt 0.6441 -0.0107 0.0000
vt 0.4972 -0.1732 0.0000
vt 0.4972 -0.0107 0.0000
vt 0.2484 -0.1732 0.0000
vt 0.2484 -0.0107 0.0000
vt -0.0004 -0.1732 0.0000
vt -0.0004 -0.0108 0.0000
vt -0.2491 -0.1732 0.0000
vt -0.2491 -0.0108 0.0000
vt -0.4979 -0.1732 0.0000
vt -0.4979 -0.0108 0.0000
vt -0.7467 -0.1732 0.0000
vt -0.7467 -0.0108 0.0000
vt -0.9955 -0.1732 0.0000
vt -0.9955 -0.0108 0.0000
vt -1.2442 -0.1732 0.0000
vt -1.2442 -0.0108 0.0000
vt -1.3384 -0.0108 0.0000
vt -1.3395 -0.1732 0.0000
vt 0.6517 -0.2763 0.0000
vt 0.4972 -0.2763 0.0000
vt 0.2484 -0.2763 0.0000
vt -0.0004 -0.2763 0.0000
vt -0.2491 -0.2763 0.0000
vt -0.4979 -0.2763 0.0000
vt -0.7467 -0.2781 0.0000
vt -0.9955 -0.2781 0.0000
vt -1.2442 -0.2781 0.0000
vt -1.3375 -0.2781 0.0000
vt -0.9943 -0.1751 0.0000
vt -0.7906 -0.1751 0.0000
vt -0.9943 -0.0041 0.0000
vt -0.7906 -0.0041 0.0000
vt -0.5806 -0.1751 0.0000
vt -0.5806 -0.0041 0.0000
vt -0.3815 -0.1751 0.0000
vt -0.3815 -0.0041 0.0000
vt -0.1755 -0.1751 0.0000
vt -0.1755 -0.0041 0.0000
vt 0.0197 -0.1751 0.0000
vt 0.0197 -0.0041 0.0000
vt 0.2271 -0.0041 0.0000
vt 0.2271 -0.1751 0.0000
vt 0.4296 -0.1751 0.0000
vt 0.4296 -0.0041 0.0000
vt 0.6213 -0.1751 0.0000
vt 0.6213 -0.0041 0.0000
vt 0.8254 -0.0041 0.0000
vt 0.8254 -0.1751 0.0000
vt 1.4881 -0.0510 0.0000
vt 1.4237 -0.0135 0.0000
vt 1.5326 -0.1865 0.0000
vt 1.2618 -0.0516 0.0000
vt 1.1469 -0.1755 0.0000
vt 1.1457 -0.1785 0.0000
vt 1.0346 -0.0506 0.0000
vt 0.7573 -0.1765 0.0000
vt 0.8678 -0.0055 0.0000
vt 0.8038 -0.0415 0.0000
# 90 texture coords

g ccp_metal_yy_yelow_Cmn_dpn
usemtl Standardmaterial
s 1
f 10/1/10 11/2/11 12/3/10 
s 2
f 12/3/10 11/2/11 13/4/12 
s 3
f 13/4/12 11/2/11 14/5/13 
s 4
f 11/2/14 15/6/15 14/5/13 
s 5
f 14/5/13 15/6/15 16/7/16 
s 6
f 15/6/15 17/8/17 16/7/16 
s 7
f 16/7/16 17/8/17 18/9/18 
s 8
f 17/8/19 19/10/18 18/9/18 
s 9
f 18/9/18 19/10/18 20/11/20 
s 10
f 19/10/18 21/12/20 20/11/20 
s 11
f 20/11/20 21/12/20 22/13/21 
s 12
f 21/12/20 23/14/21 22/13/21 
s 13
f 22/13/21 23/14/21 24/15/22 
s 14
f 23/14/21 25/16/23 24/15/22 
s 15
f 24/15/22 25/16/23 26/17/24 
s 16
f 25/16/25 27/18/24 26/17/24 
s 17
f 26/17/24 27/18/24 28/19/26 
s 18
f 27/18/24 29/20/26 28/19/26 
s 19
f 30/21/27 12/3/27 31/22/28 
s 20
f 12/3/27 13/4/28 31/22/28 
s 21
f 31/22/28 13/4/28 32/23/29 
s 22
f 13/4/28 14/5/29 32/23/29 
s 23
f 32/23/29 14/5/29 33/24/30 
s 24
f 14/5/29 16/7/31 33/24/30 
s 25
f 33/24/30 16/7/31 34/25/32 
s 26
f 16/7/31 18/9/32 34/25/32 
s 27
f 34/25/32 18/9/32 35/26/33 
s 28
f 18/9/32 20/11/33 35/26/33 
s 29
f 35/26/33 20/11/33 36/27/34 
s 30
f 20/11/33 22/13/35 36/27/34 
s 31
f 36/27/34 22/13/35 37/28/36 
s 32
f 22/13/37 24/15/36 37/28/36 
s 33
f 37/28/36 24/15/36 38/29/38 
s 34
f 24/15/36 26/17/38 38/29/38 
s 35
f 26/17/38 28/19/39 38/29/38 
s 36
f 38/29/38 28/19/39 39/30/39 
s 37
f 40/31/40 30/32/40 41/33/40 
s 38
f 30/32/40 31/34/40 41/33/40 
s 39
f 41/33/40 31/34/40 42/35/40 
s 40
f 31/34/40 32/36/40 42/35/40 
s 41
f 42/35/40 32/36/40 43/37/40 
s 42
f 32/36/40 33/38/40 43/37/40 
s 43
f 43/37/40 33/38/40 44/39/40 
s 44
f 33/38/40 34/40/40 44/39/40 
s 45
f 44/39/40 34/40/40 45/41/40 
s 46
f 34/40/40 35/42/40 45/41/40 
s 47
f 45/41/40 35/42/40 46/43/40 
s 48
f 35/42/40 36/44/40 46/43/40 
s 49
f 46/43/40 36/44/40 47/45/40 
s 50
f 36/44/40 37/46/40 47/45/40 
s 51
f 47/45/40 37/46/40 48/47/41 
s 52
f 37/46/40 38/48/42 48/47/41 
s 53
f 38/48/42 39/49/41 48/47/41 
s 54
f 48/47/41 39/49/41 49/50/41 
s 55
f 50/51/43 40/31/43 51/52/44 
s 56
f 40/31/43 41/33/44 51/52/44 
s 57
f 51/52/44 41/33/44 52/53/45 
s 58
f 41/33/44 42/35/45 52/53/45 
s 59
f 52/53/45 42/35/45 53/54/46 
s 60
f 42/35/45 43/37/46 53/54/46 
s 61
f 53/54/46 43/37/46 54/55/47 
s 62
f 43/37/46 44/39/48 54/55/47 
s 63
f 54/55/47 44/39/48 55/56/49 
s 64
f 44/39/50 45/41/49 55/56/49 
s 65
f 55/56/49 45/41/49 56/57/51 
s 66
f 45/41/49 46/43/51 56/57/51 
s 67
f 56/57/51 46/43/51 57/58/52 
s 68
f 46/43/51 47/45/52 57/58/52 
s 69
f 57/58/52 47/45/52 58/59/53 
s 70
f 47/45/52 48/47/53 58/59/53 
s 71
f 48/47/53 49/50/54 58/59/53 
s 72
f 58/59/53 49/50/54 59/60/54 
s 73
f 50/61/55 51/62/56 10/63/55 
s 74
f 10/63/55 51/62/56 11/64/56 
s 75
f 51/62/56 52/65/57 11/64/56 
s 76
f 11/64/56 52/65/57 15/66/57 
s 77
f 52/65/57 53/67/58 15/66/57 
s 78
f 15/66/57 53/67/58 17/68/58 
s 79
f 53/67/58 54/69/59 17/68/58 
s 80
f 17/68/58 54/69/59 19/70/59 
s 81
f 54/69/59 55/71/60 19/70/59 
s 82
f 19/70/59 55/71/60 21/72/60 
s 83
f 21/72/60 55/71/60 23/73/61 
s 84
f 55/71/60 56/74/61 23/73/61 
s 85
f 56/74/61 57/75/62 23/73/61 
s 86
f 23/73/61 57/75/62 25/76/63 
s 87
f 57/75/62 58/77/64 25/76/63 
s 88
f 25/76/63 58/77/64 27/78/64 
s 89
f 27/78/64 58/77/64 29/79/65 
s 90
f 58/77/64 59/80/65 29/79/65 
s 91
f 12/81/66 30/82/67 10/83/68 
s 92
f 30/82/67 40/84/69 10/83/68 
s 93
f 10/83/68 40/84/69 50/85/70 
s 94
f 59/86/71 49/87/72 29/88/73 
s 95
f 49/87/72 39/89/74 29/88/73 
s 96
f 29/88/73 39/89/74 28/90/75 
# 0 polygons - 96 triangles

#
# object cpz_metal_tn1_footholdA_floor
#

v  8.2007 34.6868 13.6437
v  9.3301 34.4324 15.1244
v  11.5800 34.6642 11.5811
v  12.7564 34.4324 12.7592
v  12.7573 34.8951 6.8962
v  11.0554 34.8998 9.3801
v  16.6690 34.4324 6.9133
v  11.1187 35.2689 4.6093
v  10.3667 35.2689 5.7329
v  5.5683 35.9948 2.3053
v  5.0263 35.9948 3.1151
v  2.9210 36.1474 2.0599
v  2.9352 36.1774 1.2122
v  6.0275 35.9948 0.0058
v  2.9502 36.1919 0.0035
v  5.5719 35.9948 -2.2943
v  2.9599 36.1758 -1.2147
v  2.9630 36.1457 -2.0395
v  5.0789 35.9948 -3.0333
v  11.1811 35.1479 -6.0432
v  11.1258 35.2689 -4.5897
v  16.6796 34.4324 -6.8852
v  12.7760 34.4324 -12.7372
v  9.0568 35.1640 -9.0237
v  4.9510 35.1509 -11.8823
v  6.9301 34.4324 -16.6498
v  0.0279 35.1515 -12.8613
v  0.0319 34.4324 -18.0275
v  -4.8667 35.1619 -11.8171
v  -6.8685 34.4324 -16.6604
v  -8.1071 34.7099 -13.4839
v  -9.2687 34.7003 -12.7904
v  -7.3444 35.1681 -10.1121
v  -8.9651 34.4324 -15.1778
v  12.0371 35.2689 0.0105
v  18.0467 34.4324 0.0151
v  8.2007 33.7396 13.6437
v  11.5800 33.7169 11.5811
v  9.4585 33.4852 15.0417
v  12.7564 33.4852 12.7592
v  12.7573 33.9479 6.8962
v  16.6690 33.4852 6.9133
v  11.1187 34.3217 4.6093
v  12.0371 34.3217 0.0105
v  18.0467 33.4852 0.0151
v  11.1258 34.3217 -4.5897
v  16.6796 33.4852 -6.8852
v  11.1811 34.2007 -6.0432
v  12.7760 33.4852 -12.7372
v  9.0568 34.2168 -9.0237
v  4.9510 34.2037 -11.8823
v  6.9301 33.4852 -16.6498
v  0.0279 34.2043 -12.8613
v  0.0319 33.4852 -18.0275
v  -4.8667 34.2147 -11.8171
v  -6.8685 33.4852 -16.6604
v  -8.1071 33.7627 -13.4839
v  -8.9651 33.4852 -15.1778
v  -9.2687 33.7531 -12.7904
v  -7.3444 34.2208 -10.1121
v  11.0554 33.9525 9.3801
v  10.3667 34.3217 5.7329
v  5.5683 35.0476 2.3053
v  6.0275 35.0476 0.0058
v  5.5719 35.0476 -2.2943
v  5.0789 35.0476 -3.0333
v  2.9630 35.1985 -2.0395
v  2.9599 35.2286 -1.2147
v  2.9502 35.2446 0.0035
v  2.9352 35.2302 1.2122
v  2.9210 35.2002 2.0599
v  5.0263 35.0476 3.1151
# 72 vertices

vn 0.0754 0.9908 0.1127
vn 0.0992 0.9905 0.0950
vn 0.0796 0.9901 0.1153
vn 0.0981 0.9904 0.0969
vn 0.1168 0.9901 0.0782
vn 0.1273 0.9905 0.0529
vn 0.1201 0.9915 0.0498
vn 0.1085 0.9914 0.0726
vn 0.0881 0.9954 0.0366
vn 0.0759 0.9958 0.0508
vn 0.0541 0.9979 0.0362
vn 0.0602 0.9980 0.0217
vn 0.0954 0.9954 0.0001
vn 0.0639 0.9980 0.0001
vn 0.0885 0.9954 -0.0371
vn 0.0639 0.9979 -0.0127
vn 0.0542 0.9979 -0.0362
vn 0.0768 0.9957 -0.0512
vn 0.1127 0.9906 -0.0779
vn 0.1172 0.9917 -0.0522
vn 0.1274 0.9905 -0.0527
vn 0.0976 0.9905 -0.0974
vn 0.0975 0.9905 -0.0975
vn 0.0530 0.9905 -0.1273
vn 0.0529 0.9905 -0.1273
vn -0.0000 0.9905 -0.1379
vn 0.0001 0.9905 -0.1379
vn -0.0529 0.9905 -0.1273
vn -0.0454 0.9904 -0.1304
vn -0.0780 0.9901 -0.1169
vn -0.0844 0.9893 -0.1193
vn 0.1300 0.9915 0.0001
vn 0.1379 0.9905 0.0001
vn -0.0753 -0.9908 -0.1125
vn -0.1011 -0.9905 -0.0931
vn -0.0764 -0.9906 -0.1132
vn -0.0982 -0.9904 -0.0968
vn -0.1168 -0.9901 -0.0782
vn -0.1273 -0.9905 -0.0529
vn -0.1201 -0.9915 -0.0498
vn -0.1300 -0.9915 -0.0001
vn -0.1379 -0.9905 -0.0001
vn -0.1172 -0.9917 0.0522
vn -0.1274 -0.9905 0.0527
vn -0.1127 -0.9906 0.0779
vn -0.0976 -0.9905 0.0974
vn -0.0975 -0.9905 0.0975
vn -0.0530 -0.9905 0.1273
vn -0.0529 -0.9905 0.1273
vn 0.0000 -0.9905 0.1379
vn -0.0001 -0.9905 0.1379
vn 0.0529 -0.9905 0.1273
vn 0.0538 -0.9903 0.1280
vn 0.0791 -0.9899 0.1173
vn 0.0844 -0.9893 0.1193
vn 0.0780 -0.9901 0.1169
vn -0.1085 -0.9914 -0.0726
vn -0.0881 -0.9954 -0.0366
vn -0.0954 -0.9954 -0.0001
vn -0.0885 -0.9954 0.0371
vn -0.0768 -0.9957 0.0512
vn -0.0542 -0.9979 0.0361
vn -0.0603 -0.9980 0.0214
vn -0.0639 -0.9980 -0.0001
vn -0.0602 -0.9980 -0.0217
vn -0.0541 -0.9979 -0.0362
vn -0.0759 -0.9958 -0.0508
# 67 vertex normals

vt 0.7141 -0.1333 0.0000
vt 0.7405 -0.0960 0.0000
vt 0.8021 -0.1854 0.0000
vt 0.8329 -0.1558 0.0000
vt 0.8326 -0.3036 0.0000
vt 0.7883 -0.2409 0.0000
vt 0.9346 -0.3033 0.0000
vt 0.7897 -0.3611 0.0000
vt 0.7702 -0.3328 0.0000
vt 0.6449 -0.4189 0.0000
vt 0.6308 -0.3985 0.0000
vt 0.5758 -0.4250 0.0000
vt 0.5761 -0.4463 0.0000
vt 0.6567 -0.4769 0.0000
vt 0.5765 -0.4768 0.0000
vt 0.6447 -0.4187 0.0000
vt 0.5767 -0.4460 0.0000
vt 0.5767 -0.4252 0.0000
vt 0.6318 -0.4001 0.0000
vt 0.7908 -0.3239 0.0000
vt 0.7894 -0.3606 0.0000
vt 0.9341 -0.3024 0.0000
vt 0.8320 -0.1551 0.0000
vt 0.7350 -0.2487 0.0000
vt 0.6278 -0.1770 0.0000
vt 0.6794 -0.0568 0.0000
vt 0.4995 -0.1526 0.0000
vt 0.4994 -0.0225 0.0000
vt 0.3721 -0.1792 0.0000
vt 0.3195 -0.0573 0.0000
vt 0.2875 -0.1374 0.0000
vt 0.2572 -0.1549 0.0000
vt 0.3076 -0.2222 0.0000
vt 0.2616 -0.0948 0.0000
vt 0.8134 -0.4771 0.0000
vt 0.9702 -0.4773 0.0000
# 36 texture coords

g cpz_metal_tn1_footholdA_floor
usemtl Standardmaterial
s 1
f 60/91/76 61/92/76 62/93/77 
s 2
f 61/92/78 63/94/79 62/93/77 
s 3
f 63/94/79 64/95/80 62/93/77 
s 4
f 62/93/80 64/95/80 65/96/80 
s 5
f 63/94/79 66/97/81 64/95/80 
s 6
f 66/97/81 67/98/82 64/95/80 
s 7
f 64/95/80 67/98/82 68/99/83 
s 8
f 67/98/82 69/100/84 68/99/83 
s 9
f 68/99/83 69/100/84 70/101/85 
s 10
f 70/101/85 69/100/84 71/102/86 
s 11
f 71/102/86 69/100/84 72/103/87 
s 12
f 69/100/84 73/104/88 72/103/87 
s 13
f 72/103/87 73/104/88 74/105/89 
s 14
f 73/104/88 75/106/90 74/105/89 
s 15
f 74/105/89 75/106/90 76/107/91 
s 16
f 76/107/92 75/106/90 77/108/92 
s 17
f 77/108/92 75/106/90 78/109/93 
s 18
f 78/109/93 75/106/90 79/110/94 
s 19
f 75/106/90 80/111/95 79/110/94 
s 20
f 80/111/95 81/112/96 79/110/94 
s 21
f 81/112/96 82/113/97 79/110/94 
s 22
f 79/110/94 82/113/97 83/114/98 
s 23
f 83/114/98 82/113/97 84/115/99 
s 24
f 82/113/97 85/116/100 84/115/99 
s 25
f 84/115/99 85/116/100 86/117/101 
s 26
f 85/116/100 87/118/102 86/117/101 
s 27
f 86/117/101 87/118/102 88/119/103 
s 28
f 87/118/102 89/120/104 88/119/103 
s 29
f 89/120/104 90/121/105 88/119/103 
s 30
f 90/121/105 91/122/105 88/119/103 
s 31
f 88/119/103 91/122/105 92/123/105 
s 32
f 90/121/106 89/120/106 93/124/106 
s 33
f 69/100/84 67/98/82 73/104/88 
s 34
f 67/98/82 94/125/107 73/104/88 
s 35
f 73/104/88 94/125/107 75/106/90 
s 36
f 75/106/90 94/125/107 80/111/95 
s 37
f 94/125/107 95/126/108 80/111/95 
s 38
f 80/111/95 95/126/108 81/112/96 
s 39
f 95/126/108 94/125/107 66/97/81 
s 40
f 66/97/81 94/125/107 67/98/82 
s 41
f 96/91/109 97/93/110 98/92/111 
s 42
f 98/92/111 97/93/110 99/94/112 
s 43
f 97/93/110 100/95/113 99/94/112 
s 44
f 99/94/112 100/95/113 101/97/114 
s 45
f 100/95/113 102/98/115 101/97/114 
s 46
f 102/98/115 103/125/116 101/97/114 
s 47
f 101/97/114 103/125/116 104/126/117 
s 48
f 103/125/116 105/111/118 104/126/117 
s 49
f 104/126/117 105/111/118 106/112/119 
s 50
f 105/111/118 107/110/120 106/112/119 
s 51
f 106/112/119 107/110/120 108/113/121 
s 52
f 107/110/120 109/114/122 108/113/121 
s 53
f 109/114/122 110/115/123 108/113/121 
s 54
f 108/113/121 110/115/123 111/116/124 
s 55
f 110/115/123 112/117/125 111/116/124 
s 56
f 111/116/124 112/117/125 113/118/126 
s 57
f 112/117/125 114/119/127 113/118/126 
s 58
f 113/118/126 114/119/127 115/120/128 
s 59
f 114/119/127 116/121/129 115/120/128 
s 60
f 115/120/128 116/121/129 117/124/130 
s 61
f 116/121/129 114/119/127 118/122/131 
s 62
f 118/122/131 114/119/127 119/123/131 
s 63
f 120/96/113 100/95/113 97/93/110 
s 64
f 100/95/113 121/99/132 102/98/115 
s 65
f 121/99/132 122/100/133 102/98/115 
s 66
f 122/100/133 123/104/134 102/98/115 
s 67
f 102/98/115 123/104/134 103/125/116 
s 68
f 123/104/134 124/106/135 103/125/116 
s 69
f 103/125/116 124/106/135 105/111/118 
s 70
f 105/111/118 124/106/135 107/110/120 
s 71
f 107/110/120 124/106/135 125/109/136 
s 72
f 125/109/136 124/106/135 126/108/137 
s 73
f 126/108/137 124/106/135 127/107/138 
s 74
f 127/107/138 124/106/135 128/105/139 
s 75
f 124/106/135 123/104/134 128/105/139 
s 76
f 128/105/139 123/104/134 129/103/140 
s 77
f 123/104/134 122/100/133 129/103/140 
s 78
f 129/103/140 122/100/133 130/102/141 
s 79
f 130/102/141 122/100/133 131/101/142 
s 80
f 122/100/133 121/99/132 131/101/142 
# 0 polygons - 80 triangles

#
# object ccp_metal_yy_gray_Cmn_dpn
#

v  2.9210 35.2002 2.0599
v  2.9210 36.1474 2.0599
v  2.9352 35.2302 1.2122
v  2.9352 36.1774 1.2122
v  2.9502 35.2446 0.0035
v  2.9502 36.1919 0.0035
v  2.9599 36.1758 -1.2147
v  2.9599 35.2286 -1.2147
v  2.9630 36.1457 -2.0395
v  2.9630 35.1985 -2.0395
v  9.4585 33.4852 15.0417
v  9.3301 34.4324 15.1244
v  8.2007 33.7396 13.6437
v  8.2007 34.6868 13.6437
v  -8.1071 34.7099 -13.4839
v  -8.9651 34.4324 -15.1778
v  -8.1071 33.7627 -13.4839
v  -8.9651 33.4852 -15.1778
v  -9.2687 33.7531 -12.7904
v  -7.3444 34.2208 -10.1121
v  -9.2687 34.7003 -12.7904
v  -7.3444 35.1681 -10.1121
v  -4.8667 34.2147 -11.8171
v  -4.8667 35.1619 -11.8171
v  0.0279 34.2043 -12.8613
v  0.0279 35.1515 -12.8613
v  4.9510 35.1509 -11.8823
v  4.9510 34.2037 -11.8823
v  9.0568 34.2168 -9.0237
v  9.0568 35.1640 -9.0237
v  11.1811 34.2007 -6.0432
v  11.1811 35.1479 -6.0432
v  5.0789 35.9948 -3.0333
v  5.0789 35.0476 -3.0333
v  11.5800 33.7169 11.5811
v  11.5800 34.6642 11.5811
v  12.7573 33.9479 6.8962
v  12.7573 34.8951 6.8962
v  10.3667 34.3217 5.7329
v  10.3667 35.2689 5.7329
v  5.0263 35.0476 3.1151
v  5.0263 35.9948 3.1151
v  11.0554 33.9525 9.3801
v  11.0554 34.8998 9.3801
# 44 vertices

vn -0.9999 0.0000 -0.0167
vn -0.9999 0.0000 -0.0146
vn -0.9999 0.0000 -0.0151
vn -0.9999 0.0000 -0.0102
vn -0.9999 0.0000 -0.0125
vn -1.0000 0.0000 -0.0059
vn -1.0000 0.0000 -0.0066
vn -1.0000 0.0000 -0.0037
vn -0.7482 -0.1577 0.6445
vn -0.7638 -0.1130 0.6355
vn -0.7838 -0.0459 0.6193
vn -0.7951 0.0000 0.6065
vn -0.8921 0.0000 0.4519
vn -0.8121 0.0000 0.5835
vn -0.5126 0.0000 -0.8586
vn 0.5669 0.0000 0.8238
vn 0.3951 0.0000 0.9186
vn 0.3956 0.0000 0.9184
vn 0.0068 0.0000 1.0000
vn 0.0071 0.0000 1.0000
vn -0.3916 0.0000 0.9201
vn -0.3913 0.0000 0.9202
vn -0.7033 0.0000 0.7109
vn -0.7031 0.0000 0.7111
vn -0.8143 0.0000 0.5804
vn -0.4424 0.0000 -0.8968
vn -0.4332 0.0000 -0.9013
vn -0.4343 0.0000 -0.9008
vn -0.4251 0.0000 -0.9051
vn -0.5210 0.0000 -0.8536
vn -0.4376 0.0000 0.8992
vn -0.4388 0.0000 0.8986
vn -0.4390 -0.0000 0.8985
vn -0.4439 -0.0000 0.8961
vn -0.4444 -0.0000 0.8958
vn -0.4481 -0.0000 0.8940
vn -0.4481 0.0000 0.8940
vn -0.8249 0.0000 -0.5652
vn -0.9728 0.0000 0.2318
# 39 vertex normals

vt 1.7461 -0.2435 0.0000
vt 1.7461 -0.1871 0.0000
vt 1.6868 -0.2435 0.0000
vt 1.6868 -0.1871 0.0000
vt 1.6146 -0.2435 0.0000
vt 1.6146 -0.1871 0.0000
vt 1.5418 -0.1871 0.0000
vt 1.5418 -0.2435 0.0000
vt 1.4925 -0.1871 0.0000
vt 1.4925 -0.2435 0.0000
vt 3.0878 -0.2435 0.0000
vt 3.0878 -0.1871 0.0000
vt 2.9731 -0.2435 0.0000
vt 2.9731 -0.1871 0.0000
vt -0.5295 -0.1871 0.0000
vt -0.6441 -0.1871 0.0000
vt -0.5295 -0.2435 0.0000
vt -0.6441 -0.2435 0.0000
vt -0.4394 -0.2435 0.0000
vt -0.2295 -0.2435 0.0000
vt -0.4394 -0.1871 0.0000
vt -0.2295 -0.1871 0.0000
vt -0.0815 -0.2435 0.0000
vt -0.0815 -0.1871 0.0000
vt 0.2110 -0.2435 0.0000
vt 0.2110 -0.1871 0.0000
vt 0.5052 -0.1871 0.0000
vt 0.5052 -0.2435 0.0000
vt 0.7479 -0.2435 0.0000
vt 0.7479 -0.1871 0.0000
vt 0.9863 -0.2435 0.0000
vt 0.9863 -0.1871 0.0000
vt 1.3581 -0.1871 0.0000
vt 1.3516 -0.2435 0.0000
vt 2.7392 -0.2435 0.0000
vt 2.7392 -0.1871 0.0000
vt 2.4147 -0.2435 0.0000
vt 2.4147 -0.1871 0.0000
vt 2.2489 -0.2435 0.0000
vt 2.2423 -0.1871 0.0000
vt 1.8909 -0.2435 0.0000
vt 1.8843 -0.1871 0.0000
vt 2.5946 -0.2435 0.0000
vt 2.5946 -0.1871 0.0000
# 44 texture coords

g ccp_metal_yy_gray_Cmn_dpn
usemtl Standardmaterial
s 1
f 132/127/143 133/128/143 134/129/144 
s 2
f 133/128/143 135/130/145 134/129/144 
s 3
f 134/129/144 135/130/145 136/131/146 
s 4
f 135/130/147 137/132/146 136/131/146 
s 5
f 137/132/146 138/133/148 136/131/146 
s 6
f 136/131/146 138/133/148 139/134/149 
s 7
f 138/133/148 140/135/150 139/134/149 
s 8
f 139/134/150 140/135/150 141/136/150 
s 9
f 142/137/151 143/138/152 144/139/153 
s 10
f 144/139/153 143/138/152 145/140/154 
s 11
f 146/141/155 147/142/155 148/143/155 
s 12
f 148/143/155 147/142/155 149/144/155 
s 13
f 150/145/156 151/146/156 152/147/156 
s 14
f 152/147/156 151/146/156 153/148/156 
s 15
f 146/141/157 148/143/157 152/147/157 
s 16
f 152/147/157 148/143/157 150/145/157 
s 17
f 151/146/158 154/149/159 153/148/158 
s 18
f 153/148/158 154/149/159 155/150/160 
s 19
f 154/149/159 156/151/161 155/150/160 
s 20
f 155/150/160 156/151/161 157/152/162 
s 21
f 157/152/162 156/151/161 158/153/163 
s 22
f 156/151/161 159/154/164 158/153/163 
s 23
f 159/154/164 160/155/165 158/153/163 
s 24
f 158/153/163 160/155/165 161/156/166 
s 25
f 160/155/165 162/157/167 161/156/166 
s 26
f 161/156/166 162/157/167 163/158/167 
s 27
f 163/158/168 162/157/168 164/159/169 
s 28
f 162/157/168 165/160/170 164/159/169 
s 29
f 165/160/170 141/136/171 164/159/169 
s 30
f 164/159/169 141/136/171 140/135/171 
s 31
f 144/139/172 145/140/172 166/161/172 
s 32
f 166/161/172 145/140/172 167/162/172 
s 33
f 168/163/173 169/164/173 170/165/174 
s 34
f 169/164/173 171/166/175 170/165/174 
s 35
f 170/165/174 171/166/175 172/167/176 
s 36
f 171/166/175 173/168/177 172/167/176 
s 37
f 172/167/176 173/168/177 132/127/178 
s 38
f 173/168/177 133/128/179 132/127/178 
s 39
f 168/163/180 174/169/180 169/164/180 
s 40
f 169/164/180 174/169/180 175/170/180 
s 41
f 175/170/181 174/169/181 167/162/181 
s 42
f 167/162/181 174/169/181 166/161/181 
# 0 polygons - 42 triangles

