# 3ds Max Wavefront OBJ Exporter v0.97b - (c)2007 guruware
# File Created: 27.12.2011 03:03:10

mtllib cpz_obj_breakboxtall_brk_001.mtl

#
# object cpz_obj_breakboxtall_brk_001
#

v  0.3600 -0.0180 0.0180
v  0.3600 -0.0180 -0.0180
v  0.3600 0.0180 -0.0180
v  0.3600 0.0180 0.0180
v  0.1800 0.1800 0.1800
v  0.1800 0.1800 -0.1800
v  0.1800 -0.1800 0.1800
v  0.1800 -0.1800 -0.1800
v  0.0000 0.0000 -0.0000
# 9 vertices

vn 1.0000 0.0000 -0.0000
vn 0.6690 0.7433 -0.0000
vn 0.6690 0.0000 0.7433
vn 0.6690 0.0000 -0.7433
vn 0.6690 -0.7433 -0.0000
vn -0.7071 0.0000 0.7071
vn -0.7071 0.7071 -0.0000
vn -0.7071 0.0000 -0.7071
vn -0.7071 -0.7071 -0.0000
# 9 vertex normals

g cpz_obj_breakboxtall_brk_001
usemtl wire_255255000
s 1
f 1//1 2//1 3//1 4//1 
s 2
f 5//2 4//2 3//2 6//2 
s 4
f 7//3 1//3 4//3 5//3 
s 8
f 2//4 8//4 6//4 3//4 
s 16
f 1//5 7//5 8//5 2//5 
s 32
f 9//6 7//6 5//6 
s 64
f 9//7 5//7 6//7 
s 128
f 9//8 6//8 8//8 
s 256
f 9//9 8//9 7//9 
# 5 polygons - 4 triangles

#
# object cpz_yy1_road_cmn_dp
#

v  -33.2679 71.0253 0.5335
v  -33.2679 88.2048 17.7533
v  -31.8781 72.7256 -1.1705
v  -31.8781 89.9621 16.1065
v  -31.8781 72.7207 1.0928
v  -31.8573 55.4139 18.3776
v  -30.4966 71.0270 -0.5974
v  -30.4759 53.7734 16.6342
v  -33.2596 71.0285 -0.5989
v  -33.2388 53.6780 16.7295
v  -31.8781 43.5052 -30.4596
v  -30.4883 41.8048 -28.7556
v  -30.4883 71.0253 0.5335
v  -33.2679 41.8048 -28.7556
v  -31.8987 89.8979 -16.0625
v  -30.5173 88.2413 -17.7898
v  -33.2802 88.2304 -17.7790
v  -28.2387 80.1798 8.5301
v  -34.0515 80.1798 8.5301
v  -28.2387 71.6230 12.0745
v  -34.0515 71.6230 12.0745
v  -28.2387 83.7241 -0.0267
v  -34.0515 83.7241 -0.0267
v  -28.2387 80.1798 -8.5834
v  -34.0515 80.1798 -8.5834
v  -28.2387 71.6230 -12.1278
v  -34.0515 71.6230 -12.1278
v  -28.2387 63.0662 -8.5834
v  -34.0515 63.0662 -8.5834
v  -28.2387 59.5219 -0.0266
v  -34.0515 59.5219 -0.0266
v  -28.2387 63.0662 8.5301
v  -34.0515 63.0662 8.5301
v  -30.4883 88.1639 17.7123
# 34 vertices

vn -0.8660 0.3540 -0.3531
vn 0.8660 0.3538 0.3533
vn -0.8660 0.3528 0.3543
vn 0.8660 0.3540 -0.3531
vn -0.0000 -0.7079 0.7063
vn 0.0000 -0.7067 -0.7076
vn -0.0000 0.3827 0.9239
vn 0.0000 0.3827 0.9239
vn -0.0000 0.9239 0.3827
vn 0.0000 0.9239 -0.3827
vn 0.0000 0.3827 -0.9239
vn -0.0000 -0.3827 -0.9239
vn 0.0000 -0.3827 -0.9239
vn 0.0000 -0.9239 -0.3827
vn -0.0000 -0.9239 -0.3827
vn -0.0000 -0.9239 0.3827
vn 0.0000 -0.9239 0.3827
vn 0.0000 -0.3827 0.9239
vn -0.0000 -0.3827 0.9239
vn 0.0000 -0.7079 0.7063
# 20 vertex normals

vt 1.3483 -0.5935 0.0000
vt 1.3483 -0.9953 0.0000
vt 1.3839 -0.5935 0.0000
vt 1.3839 -0.9966 0.0000
vt 1.3839 -0.9975 0.0000
vt 1.3482 -0.5935 0.0000
vt 1.3482 -0.9963 0.0000
vt 1.3483 -0.9986 0.0000
vt 1.3838 -1.2785 0.0000
vt 1.3482 -1.2785 0.0000
vt 1.3839 -1.2785 0.0000
vt 1.3483 -1.2785 0.0000
vt 1.3838 -0.9955 0.0000
vt 1.3839 -0.9963 0.0000
vt 1.3483 -0.9961 0.0000
vt 0.2547 3.1069 0.0000
vt 0.0971 3.1069 0.0000
vt 0.2547 2.4725 0.0000
vt 0.0971 2.4725 0.0000
vt 0.2547 3.7414 0.0000
vt 0.0971 3.7414 0.0000
vt 0.2547 -0.6997 0.0000
vt 0.0971 -0.6997 0.0000
vt 0.2547 -1.3341 0.0000
vt 0.0971 -1.3341 0.0000
vt 0.2547 -0.0652 0.0000
vt 0.0971 -0.0652 0.0000
vt 0.2547 0.5692 0.0000
vt 0.0971 0.5692 0.0000
vt 0.2547 1.2036 0.0000
vt 0.0971 1.2036 0.0000
vt 0.2547 1.8381 0.0000
vt 0.0971 1.8381 0.0000
vt 1.3839 -0.9943 0.0000
vt 1.3482 -0.9943 0.0000
# 35 texture coords

g cpz_yy1_road_cmn_dp
usemtl Standardmaterial
s 1
f 10/1/10 11/2/10 12/3/10 
s 2
f 12/3/10 11/2/10 13/4/10 
s 3
f 14/3/11 15/5/11 16/6/11 
s 4
f 16/6/11 15/5/11 17/7/11 
s 5
f 18/1/12 19/8/12 14/3/12 
s 6
f 14/3/12 19/8/12 15/5/12 
s 7
f 20/9/13 12/3/13 21/10/13 
s 8
f 21/10/13 12/3/13 22/6/13 
s 9
f 21/11/14 22/3/14 23/12/14 
s 10
f 23/12/14 22/3/14 10/1/14 
s 11
f 23/12/10 10/1/10 20/9/10 
s 12
f 20/9/10 10/1/10 12/3/10 
s 13
f 24/13/11 14/3/11 25/7/11 
s 14
f 25/7/11 14/3/11 16/6/11 
s 15
f 25/14/15 16/3/15 26/15/15 
s 16
f 26/15/15 16/3/15 18/1/15 
s 17
f 26/15/12 18/1/12 24/13/12 
s 18
f 24/13/12 18/1/12 14/3/12 
s 19
f 27/16/16 28/17/16 29/18/16 
s 20
f 29/18/16 28/17/16 30/19/17 
s 21
f 31/20/18 32/21/18 27/16/18 
s 22
f 27/16/18 32/21/18 28/17/18 
s 23
f 33/22/19 34/23/19 31/24/19 
s 24
f 31/24/19 34/23/19 32/25/19 
s 25
f 35/26/20 36/27/20 33/22/20 
s 26
f 33/22/20 36/27/20 34/23/20 
s 27
f 37/28/21 38/29/21 35/26/21 
s 28
f 35/26/21 38/29/21 36/27/22 
s 29
f 39/30/23 40/31/24 37/28/24 
s 30
f 37/28/24 40/31/24 38/29/24 
s 31
f 41/32/25 42/33/25 39/30/25 
s 32
f 39/30/26 42/33/26 40/31/26 
s 33
f 29/18/27 30/19/28 41/32/28 
s 34
f 41/32/28 30/19/28 42/33/28 
s 35
f 16/3/15 17/14/15 18/1/15 
s 36
f 18/1/15 17/14/15 19/8/15 
s 37
f 22/3/14 43/34/29 10/1/14 
s 38
f 10/1/14 43/34/29 11/2/29 
s 39
f 22/6/13 12/3/13 43/35/13 
s 40
f 43/35/13 12/3/13 13/4/13 
# 0 polygons - 40 triangles

#
# object ccp_metal_yy_circle_Cmn_dpn
#

v  -34.0515 59.5219 -0.0266
v  -34.0515 63.0662 8.5301
v  -34.0515 71.6230 -0.0267
v  -34.0515 71.6230 12.0745
v  -34.0515 63.0662 -8.5834
v  -34.0515 71.6230 -12.1278
v  -34.0515 80.1798 8.5301
v  -34.0515 83.7241 -0.0267
v  -34.0515 80.1798 -8.5834
# 9 vertices

vn -1.0000 0.0000 -0.0000
# 1 vertex normals

vt 0.5913 -0.9949 0.0000
vt 0.7097 -0.7102 0.0000
vt 0.9973 -0.9949 0.0000
vt 0.9973 -0.5878 0.0000
vt 0.9973 -0.5882 0.0000
# 5 texture coords

g ccp_metal_yy_circle_Cmn_dpn
usemtl Standardmaterial
s 1
f 44/36/30 45/37/30 46/38/30 
s 2
f 46/38/30 45/37/30 47/39/30 
s 3
f 44/36/30 46/38/30 48/37/30 
s 4
f 48/37/30 46/38/30 49/40/30 
s 5
f 47/39/30 50/37/30 46/38/30 
s 6
f 46/38/30 50/37/30 51/36/30 
s 7
f 51/36/30 52/37/30 46/38/30 
s 8
f 46/38/30 52/37/30 49/40/30 
# 0 polygons - 8 triangles

#
# object cpz_metal_yy_slop_cmn_dpn
#

v  -33.2388 53.6780 16.7295
v  -30.4759 53.7734 16.6342
v  -31.8573 55.4139 18.3776
v  -33.2679 88.2048 17.7533
v  -30.4883 88.1639 17.7123
v  -31.8781 89.9621 16.1065
v  -31.8987 89.8979 -16.0625
v  -30.5173 88.2413 -17.7898
v  -33.2802 88.2304 -17.7790
v  -30.4883 41.8048 -28.7556
v  -33.2679 41.8048 -28.7556
v  -31.8781 43.5052 -30.4596
v  -28.2387 59.5219 -0.0266
v  -28.2387 63.0662 -8.5834
v  -28.2387 63.0662 8.5301
v  -28.2387 80.1798 8.5301
v  -28.2387 71.6230 12.0745
v  -28.2387 80.1798 -8.5834
v  -28.2387 83.7241 -0.0267
v  -28.2387 71.6230 -12.1278
# 20 vertices

vn 0.0487 -0.7078 0.7047
vn 0.0208 0.6748 0.7377
vn -0.0056 0.7195 -0.6945
vn 0.0000 -0.7079 -0.7064
vn 1.0000 0.0000 0.0000
vn 1.0000 0.0000 -0.0000
# 6 vertex normals

vt 0.4231 0.5313 0.0000
vt 0.3583 0.4579 0.0000
vt 0.4371 0.4564 0.0000
vt 0.4220 0.4315 0.0000
vt 0.3583 0.3564 0.0000
vt 0.4388 0.3538 0.0000
vt 0.3394 0.5857 0.0000
vt 0.3555 0.5089 0.0000
vt 0.4175 0.5848 0.0000
vt 0.2461 -0.5733 0.0000
vt 0.6936 -0.5733 0.0000
vt 0.4699 -0.2990 0.0000
vt 0.4983 -0.6612 0.0000
vt 0.7300 -0.6590 0.0000
vt 0.3328 -0.4990 0.0000
vt 0.4928 -0.1018 0.0000
vt 0.3305 -0.2673 0.0000
vt 0.8900 -0.2618 0.0000
vt 0.7245 -0.0996 0.0000
vt 0.8922 -0.4935 0.0000
# 20 texture coords

g cpz_metal_yy_slop_cmn_dpn
usemtl Standardmaterial
s 1
f 53/41/31 54/42/31 55/43/31 
s 2
f 56/44/32 57/45/32 58/46/32 
s 3
f 59/47/33 60/48/33 61/49/33 
s 4
f 62/50/34 63/51/34 64/52/34 
s 5
f 65/53/35 66/54/35 67/55/35 
s 6
f 66/54/35 68/56/35 67/55/35 
s 7
f 67/55/35 68/56/35 69/57/36 
s 8
f 66/54/35 70/58/36 68/56/35 
s 9
f 68/56/35 70/58/36 71/59/36 
s 10
f 66/54/35 72/60/36 70/58/36 
# 0 polygons - 10 triangles

