# 3ds Max Wavefront OBJ Exporter v0.97b - (c)2007 guruware
# File Created: 27.12.2011 15:08:09

mtllib cpz_obj_roundirontower_brk_14.mtl

#
# object cpz_obj_roundirontower_brk_14
#

v  0.3600 -0.0180 0.0180
v  0.3600 -0.0180 -0.0180
v  0.3600 0.0180 -0.0180
v  0.3600 0.0180 0.0180
v  0.1800 0.1800 0.1800
v  0.1800 0.1800 -0.1800
v  0.1800 -0.1800 0.1800
v  0.1800 -0.1800 -0.1800
v  0.0000 0.0000 -0.0000
# 9 vertices

vn 1.0000 0.0000 -0.0000
vn 0.6690 0.7433 -0.0000
vn 0.6690 0.0000 0.7433
vn 0.6690 0.0000 -0.7433
vn 0.6690 -0.7433 -0.0000
vn -0.7071 0.0000 0.7071
vn -0.7071 0.7071 -0.0000
vn -0.7071 0.0000 -0.7071
vn -0.7071 -0.7071 -0.0000
# 9 vertex normals

g cpz_obj_roundirontower_brk_14
usemtl wire_255255000
s 1
f 1//1 2//1 3//1 4//1 
s 2
f 5//2 4//2 3//2 6//2 
s 4
f 7//3 1//3 4//3 5//3 
s 8
f 2//4 8//4 6//4 3//4 
s 16
f 1//5 7//5 8//5 2//5 
s 32
f 9//6 7//6 5//6 
s 64
f 9//7 5//7 6//7 
s 128
f 9//8 6//8 8//8 
s 256
f 9//9 8//9 7//9 
# 5 polygons - 4 triangles

#
# object cpz_metal_tn1_roundirontowerbar
#

v  95.3892 338.5151 15.5909
v  100.0886 335.4680 22.0590
v  163.7504 424.5332 88.8024
v  170.8397 424.2472 97.5648
v  38.8129 563.9467 118.2536
v  33.7701 561.9445 109.3382
v  44.0312 569.4904 117.0669
v  181.9717 423.7756 95.7849
v  45.1735 571.9913 106.8140
v  186.0162 423.5902 85.2422
v  178.9273 423.8759 76.4781
v  41.2006 568.8655 97.7500
v  167.7935 424.3474 78.2585
v  34.3731 565.0370 99.1869
v  99.6773 338.4716 5.2008
v  109.7003 336.6721 2.3796
v  113.4040 332.3751 7.7926
v  109.6379 333.0857 18.7461
v  165.5912 234.4003 84.0676
v  177.3194 234.1859 99.6581
v  189.5132 707.4102 104.1648
v  202.5313 706.5844 118.6835
v  221.5522 704.7004 114.5820
v  196.5327 231.2165 97.1805
v  204.2544 232.8473 79.2736
v  227.6096 704.5181 95.9914
v  192.5874 234.3182 63.7262
v  214.6051 705.5947 81.4734
v  195.6124 708.3018 85.6143
v  173.5520 241.4004 66.3872
# 30 vertices

vn -0.7824 0.0985 0.6149
vn -0.7559 -0.2554 0.6029
vn -0.7735 0.0819 0.6285
vn -0.1418 -0.3883 0.9106
vn -0.2598 -0.3778 0.8887
vn -0.5992 -0.6389 0.4824
vn 0.5493 0.4125 0.7267
vn 0.3797 -0.6013 0.7031
vn 0.7109 0.6923 -0.1239
vn 0.7184 0.6434 0.2643
vn 0.9977 0.0265 -0.0621
vn 0.5372 0.3518 -0.7666
vn 0.2207 0.3449 -0.9123
vn -0.4675 0.3468 -0.8131
vn -0.5671 -0.4323 -0.7011
vn -0.9239 -0.1525 -0.3510
vn -0.7229 -0.6479 -0.2403
vn -0.6378 0.7259 -0.2574
vn -0.6333 0.7273 -0.2644
vn -0.3730 0.7548 -0.5395
vn 0.3426 0.4357 -0.8323
vn 0.8553 -0.4045 -0.3237
vn 0.4028 -0.7575 0.5138
vn 0.0816 -0.6826 0.7262
vn -0.7989 0.0149 0.6012
vn -0.3812 -0.0168 0.9243
vn -0.7456 0.0129 0.6663
vn -0.3162 -0.0213 0.9484
vn 0.6538 -0.0624 0.7541
vn 0.6053 -0.0612 0.7936
vn 0.9931 -0.0474 -0.1071
vn 0.9553 -0.0576 0.2899
vn 0.4496 0.0121 -0.8931
vn 0.7445 -0.0096 -0.6676
vn 0.2944 0.0222 -0.9554
vn -0.6774 0.0603 -0.7332
vn -0.6034 0.0633 -0.7949
vn -0.9485 0.0577 -0.3114
vn -0.9191 0.0630 -0.3889
vn 0.0928 0.9953 -0.0266
vn 0.0809 0.9967 0.0014
vn 0.1045 0.9943 0.0235
vn 0.0983 0.9946 0.0333
vn 0.1618 0.9817 0.1004
vn 0.0686 0.9976 0.0126
vn -0.5001 0.8624 -0.0782
vn -0.5857 0.8049 0.0956
vn -0.6219 0.7751 0.1117
vn -0.6253 0.7572 0.1888
vn -0.6601 0.7359 0.1505
vn -0.7156 0.6927 0.0892
vn -0.3059 -0.9275 -0.2147
vn -0.3207 -0.9338 -0.1585
vn -0.3574 -0.9161 -0.1818
vn -0.2764 -0.9454 -0.1727
vn -0.3706 -0.9070 -0.2002
vn -0.6319 -0.7566 -0.1682
vn -0.1711 -0.9718 -0.1623
vn -0.0595 -0.9784 -0.1981
vn -0.2230 -0.9703 -0.0938
vn -0.1045 -0.9875 -0.1184
vn -0.3252 -0.9327 0.1558
vn 0.2944 -0.9265 -0.2342
# 63 vertex normals

vt 0.5303 -0.6549 0.0000
vt 0.5406 -0.6599 0.0000
vt 0.5303 -0.5041 0.0000
vt 0.5406 -0.5041 0.0000
vt 0.5406 -0.2790 0.0000
vt 0.5303 -0.2828 0.0000
vt 0.5509 -0.2690 0.0000
vt 0.5509 -0.5041 0.0000
vt 0.5613 -0.2646 0.0000
vt 0.5613 -0.5041 0.0000
vt 0.5716 -0.5041 0.0000
vt 0.5716 -0.2702 0.0000
vt 0.5820 -0.5041 0.0000
vt 0.5820 -0.2774 0.0000
vt 0.5923 -0.5041 0.0000
vt 0.5923 -0.2828 0.0000
vt 0.5923 -0.6549 0.0000
vt 0.5820 -0.6547 0.0000
vt 0.5716 -0.6573 0.0000
vt 0.5613 -0.6644 0.0000
vt 0.5509 -0.6634 0.0000
vt 0.9048 -0.4987 0.0000
vt 0.9379 -0.4988 0.0000
vt 0.9048 -0.9734 0.0000
vt 0.9379 -0.9734 0.0000
vt 0.8975 -0.9728 0.0000
vt 0.8975 -0.4960 0.0000
vt 0.8294 -0.4979 0.0000
vt 0.8294 -0.9732 0.0000
vt 0.7891 -0.4992 0.0000
vt 0.7891 -0.9735 0.0000
vt 0.8222 -0.9749 0.0000
vt 0.8222 -0.5063 0.0000
vt 0.1000 -0.5002 0.0000
vt 0.1812 -0.6374 0.0000
vt 0.1790 -0.3614 0.0000
vt 0.4205 -0.4975 0.0000
vt 0.3390 -0.3606 0.0000
vt 0.3414 -0.6362 0.0000
vt 0.8611 -0.4649 0.0000
vt 0.8656 -0.3661 0.0000
vt 0.7227 -0.4873 0.0000
vt 0.7285 -0.3219 0.0000
vt 0.5882 -0.3595 0.0000
vt 0.5860 -0.4353 0.0000
vt 0.5859 -0.1992 0.0000
vt 0.6447 -0.2961 0.0000
vt 0.6815 -0.0925 0.0000
vt 0.8040 -0.2970 0.0000
vt 0.8958 -0.1814 0.0000
vt 0.8453 -0.1034 0.0000
vt 0.1830 -0.3467 0.0000
vt 0.3417 -0.3451 0.0000
vt 0.1000 -0.2102 0.0000
vt 0.3345 -0.0708 0.0000
vt 0.1770 -0.0708 0.0000
vt 0.4192 -0.2052 0.0000
# 57 texture coords

g cpz_metal_tn1_roundirontowerbar
usemtl Standardmaterial
s 1
f 10/1/10 11/2/10 12/3/11 
s 2
f 11/2/12 13/4/13 12/3/11 
s 3
f 13/4/13 14/5/14 12/3/11 
s 4
f 12/3/15 14/5/14 15/6/15 
s 5
f 14/5/14 13/4/13 16/7/16 
s 6
f 13/4/13 17/8/17 16/7/16 
s 7
f 16/7/16 17/8/17 18/9/18 
s 8
f 17/8/19 19/10/20 18/9/18 
s 9
f 19/10/20 20/11/21 18/9/18 
s 10
f 18/9/18 20/11/21 21/12/22 
s 11
f 20/11/21 22/13/23 21/12/22 
s 12
f 21/12/22 22/13/23 23/14/24 
s 13
f 22/13/23 12/15/25 23/14/24 
s 14
f 23/14/24 12/15/25 15/16/26 
s 15
f 12/15/25 22/13/23 10/17/27 
s 16
f 10/17/28 22/13/23 24/18/29 
s 17
f 24/18/29 22/13/23 25/19/30 
s 18
f 22/13/23 20/11/21 25/19/30 
s 19
f 25/19/30 20/11/21 26/20/31 
s 20
f 20/11/21 19/10/20 26/20/31 
s 21
f 26/20/31 19/10/20 27/21/32 
s 22
f 19/10/20 17/8/17 27/21/32 
s 23
f 17/8/17 13/4/13 27/21/32 
s 24
f 27/21/32 13/4/13 11/2/33 
s 25
f 28/22/34 29/23/35 30/24/36 
s 26
f 30/24/36 29/23/35 31/25/37 
s 27
f 31/25/37 29/23/35 32/26/38 
s 28
f 29/23/35 33/27/39 32/26/38 
s 29
f 33/27/39 34/28/40 32/26/38 
s 30
f 32/26/38 34/28/40 35/29/41 
s 31
f 34/28/40 36/30/42 35/29/41 
s 32
f 35/29/43 36/30/42 37/31/44 
s 33
f 37/31/44 36/30/42 38/32/45 
s 34
f 36/30/42 39/33/46 38/32/45 
s 35
f 38/32/45 39/33/46 30/24/47 
s 36
f 39/33/46 28/22/48 30/24/47 
s 37
f 31/34/49 32/35/50 30/36/51 
s 38
f 32/35/50 37/37/52 30/36/51 
s 39
f 30/36/51 37/37/52 38/38/53 
s 40
f 32/35/50 35/39/54 37/37/52 
s 41
f 21/40/55 23/41/56 18/42/57 
s 42
f 23/41/56 15/43/58 18/42/57 
s 43
f 15/43/58 14/44/59 18/42/57 
s 44
f 18/42/57 14/44/59 16/45/60 
s 45
f 11/46/61 10/47/62 27/48/63 
s 46
f 10/47/62 24/49/64 27/48/63 
s 47
f 24/49/64 25/50/65 27/48/63 
s 48
f 27/48/63 25/50/65 26/51/66 
s 49
f 33/52/67 29/53/68 34/54/69 
s 50
f 29/53/68 39/55/70 34/54/69 
s 51
f 34/54/69 39/55/70 36/56/71 
s 52
f 29/53/68 28/57/72 39/55/70 
# 0 polygons - 52 triangles

