# 3ds Max Wavefront OBJ Exporter v0.97b - (c)2007 guruware
# File Created: 27.12.2011 02:58:05

mtllib cpz01_pipemarkL.mtl

#
# object cpz01_pipemarkL
#

v  0.3600 -0.0180 0.0180
v  0.3600 -0.0180 -0.0180
v  0.3600 0.0180 -0.0180
v  0.3600 0.0180 0.0180
v  0.1800 0.1800 0.1800
v  0.1800 0.1800 -0.1800
v  0.1800 -0.1800 0.1800
v  0.1800 -0.1800 -0.1800
v  0.0000 0.0000 0.0000
# 9 vertices

vn 1.0000 0.0000 -0.0000
vn 0.6690 0.7433 -0.0000
vn 0.6690 0.0000 0.7433
vn 0.6690 0.0000 -0.7433
vn 0.6690 -0.7433 -0.0000
vn -0.7071 0.0000 0.7071
vn -0.7071 0.7071 -0.0000
vn -0.7071 0.0000 -0.7071
vn -0.7071 -0.7071 -0.0000
# 9 vertex normals

g cpz01_pipemarkL
usemtl wire_255255000
s 1
f 1//1 2//1 3//1 4//1 
s 2
f 5//2 4//2 3//2 6//2 
s 4
f 7//3 1//3 4//3 5//3 
s 8
f 2//4 8//4 6//4 3//4 
s 16
f 1//5 7//5 8//5 2//5 
s 32
f 9//6 7//6 5//6 
s 64
f 9//7 5//7 6//7 
s 128
f 9//8 6//8 8//8 
s 256
f 9//9 8//9 7//9 
# 5 polygons - 4 triangles

#
# object cpz_obj_etc_tn1_towerlight_001
#

v  -4.7748 -13.0757 38.0894
v  -18.1689 -20.6816 38.0894
v  -4.7748 -20.6816 38.0894
v  5.2225 -13.0757 38.0894
v  5.2225 -20.6816 38.0894
v  18.6166 -20.6816 38.0894
v  -3.8245 -20.6816 38.0894
v  -2.9795 -20.6816 38.0894
v  -3.8332 -13.0806 38.0894
v  -2.9795 -13.0757 38.0894
v  4.2722 -20.6816 38.0894
v  4.2809 -13.0806 38.0894
v  3.4272 -20.6816 38.0894
v  3.4272 -13.0757 38.0894
v  5.2189 0.0405 -24.3709
v  5.2189 -1.1443 -24.3709
v  -4.0957 0.0405 -24.3709
v  -4.0957 -1.1443 -24.3709
v  -12.7014 0.0405 -20.8063
v  -12.7014 -1.1443 -20.8063
v  -19.2878 0.0405 -14.2199
v  -19.2878 -1.1443 -14.2199
v  -22.8524 0.0405 -5.6143
v  -22.8524 -1.1443 -5.6143
v  -22.8524 0.0405 3.7004
v  -22.8524 -1.1443 3.7004
v  -19.2878 0.0405 12.3060
v  -19.2878 -1.1443 12.3060
v  -12.7014 0.0404 18.8925
v  -12.7014 -1.1443 18.8925
v  -4.0958 0.0404 22.4571
v  -4.0958 -1.1443 22.4571
v  5.2189 0.0404 22.4571
v  5.2189 -1.1443 22.4571
v  13.8245 0.0404 18.8925
v  13.8245 -1.1443 18.8925
v  20.4110 0.0405 12.3060
v  20.4110 -1.1443 12.3060
v  23.9756 0.0405 3.7004
v  23.9756 -1.1443 3.7004
v  23.9756 0.0405 -5.6143
v  23.9756 -1.1443 -5.6143
v  20.4110 0.0405 -14.2199
v  20.4110 -1.1443 -14.2199
v  13.8245 0.0405 -20.8064
v  13.8245 -1.1443 -20.8064
v  4.8743 0.0405 -22.6382
v  -3.7511 0.0405 -22.6382
v  -11.7198 0.0405 -19.3374
v  -17.8189 0.0405 -13.2384
v  -21.1197 0.0405 -5.2696
v  -21.1197 0.0405 3.3557
v  -17.8189 0.0405 11.3245
v  -11.7198 0.0405 17.4235
v  -3.7511 0.0404 20.7243
v  4.8742 0.0404 20.7243
v  12.8430 0.0405 17.4235
v  18.9421 0.0405 11.3245
v  22.2428 0.0405 3.3557
v  22.2428 0.0405 -5.2696
v  18.9421 0.0405 -13.2384
v  12.8430 0.0405 -19.3374
# 62 vertices

vn 0.0000 0.0000 1.0000
vn 1.0000 0.0000 -0.0000
vn 0.0000 0.0000 -1.0000
vn -0.3827 0.0000 -0.9239
vn -0.7071 0.0000 -0.7071
vn -0.9239 0.0000 -0.3827
vn -1.0000 0.0000 -0.0000
vn -0.9239 0.0000 0.3827
vn -0.7071 0.0000 0.7071
vn -0.3827 0.0000 0.9239
vn 0.3827 0.0000 0.9239
vn 0.7071 0.0000 0.7071
vn 0.9239 0.0000 0.3827
vn 0.9239 0.0000 -0.3827
vn 0.7071 0.0000 -0.7071
vn 0.3827 0.0000 -0.9239
vn 0.0000 1.0000 -0.0000
vn 0.0000 1.0000 0.0000
vn -0.0000 1.0000 0.0000
vn -0.0000 1.0000 -0.0000
# 20 vertex normals

vt 1.6958 0.6226 0.0000
vt -3.3931 -1.8113 0.0000
vt 1.6958 -1.8113 0.0000
vt 5.4941 0.6226 0.0000
vt 5.4941 -1.8113 0.0000
vt 10.5830 -1.8113 0.0000
vt 2.0568 -1.8113 0.0000
vt 2.3779 -1.8113 0.0000
vt 2.0535 0.6210 0.0000
vt 2.3779 0.6226 0.0000
vt 5.1331 -1.8113 0.0000
vt 5.1364 0.6210 0.0000
vt 4.8120 -1.8113 0.0000
vt 4.8120 0.6226 0.0000
vt 0.6585 -0.5872 0.0000
vt 0.6585 -0.5272 0.0000
vt 0.6355 -0.4717 0.0000
vt 0.5930 -0.4292 0.0000
vt 0.5375 -0.4062 0.0000
vt 0.4775 -0.4062 0.0000
vt 0.4220 -0.4292 0.0000
vt 0.3795 -0.4717 0.0000
vt 0.3565 -0.5272 0.0000
vt 0.3565 -0.5872 0.0000
vt 0.3795 -0.6427 0.0000
vt 0.4220 -0.6852 0.0000
vt 0.4775 -0.7082 0.0000
vt 0.5375 -0.7082 0.0000
vt 0.5930 -0.6852 0.0000
vt 0.6355 -0.6427 0.0000
vt 0.6348 -0.5825 0.0000
vt 0.6348 -0.5319 0.0000
vt 0.6154 -0.4851 0.0000
vt 0.5796 -0.4493 0.0000
vt 0.5328 -0.4300 0.0000
vt 0.4822 -0.4300 0.0000
vt 0.4354 -0.4493 0.0000
vt 0.3996 -0.4851 0.0000
vt 0.3803 -0.5319 0.0000
vt 0.3803 -0.5825 0.0000
vt 0.3996 -0.6293 0.0000
vt 0.4354 -0.6651 0.0000
vt 0.4822 -0.6845 0.0000
vt 0.5328 -0.6845 0.0000
vt 0.5796 -0.6651 0.0000
vt 0.6154 -0.6293 0.0000
# 46 texture coords

g cpz_obj_etc_tn1_towerlight_001
usemtl Standardmaterial
s 1
f 10/1/10 11/2/10 12/3/10 
s 2
f 13/4/10 14/5/10 15/6/10 
s 3
f 16/7/10 17/8/10 18/9/10 
s 4
f 18/9/10 17/8/10 19/10/10 
s 5
f 17/8/10 19/10/11 19/10/10 
s 6
f 20/11/10 21/12/10 22/13/10 
s 7
f 21/12/10 23/14/10 22/13/10 
s 8
f 22/13/11 23/14/11 23/14/11 
s 9
f 24/15/12 25/15/12 26/16/12 
s 10
f 26/16/12 25/15/12 27/16/12 
s 11
f 26/16/13 27/16/13 28/17/13 
s 12
f 28/17/13 27/16/13 29/17/13 
s 13
f 28/17/14 29/17/14 30/18/14 
s 14
f 30/18/14 29/17/14 31/18/14 
s 15
f 30/18/15 31/18/15 32/19/15 
s 16
f 32/19/15 31/18/15 33/19/15 
s 17
f 32/19/16 33/19/16 34/20/16 
s 18
f 34/20/16 33/19/16 35/20/16 
s 19
f 34/20/17 35/20/17 36/21/17 
s 20
f 36/21/17 35/20/17 37/21/17 
s 21
f 36/21/18 37/21/18 38/22/18 
s 22
f 38/22/18 37/21/18 39/22/18 
s 23
f 38/22/19 39/22/19 40/23/19 
s 24
f 40/23/19 39/22/19 41/23/19 
s 25
f 40/23/10 41/23/10 42/24/10 
s 26
f 42/24/10 41/23/10 43/24/10 
s 27
f 42/24/20 43/24/20 44/25/20 
s 28
f 44/25/20 43/24/20 45/25/20 
s 29
f 44/25/21 45/25/21 46/26/21 
s 30
f 46/26/21 45/25/21 47/26/21 
s 31
f 46/26/22 47/26/22 48/27/22 
s 32
f 48/27/22 47/26/22 49/27/22 
s 33
f 48/27/11 49/27/11 50/28/11 
s 34
f 50/28/11 49/27/11 51/28/11 
s 35
f 50/28/23 51/28/23 52/29/23 
s 36
f 52/29/23 51/28/23 53/29/23 
s 37
f 52/29/24 53/29/24 54/30/24 
s 38
f 54/30/24 53/29/24 55/30/24 
s 39
f 54/30/25 55/30/25 24/15/25 
s 40
f 24/15/25 55/30/25 25/15/25 
s 41
f 56/31/26 24/15/26 57/32/26 
s 42
f 24/15/26 26/16/26 57/32/26 
s 43
f 57/32/26 26/16/26 58/33/26 
s 44
f 26/16/26 28/17/26 58/33/26 
s 45
f 58/33/26 28/17/26 59/34/26 
s 46
f 28/17/26 30/18/26 59/34/26 
s 47
f 59/34/26 30/18/26 60/35/26 
s 48
f 30/18/26 32/19/26 60/35/26 
s 49
f 60/35/26 32/19/26 61/36/27 
s 50
f 32/19/26 34/20/27 61/36/27 
s 51
f 61/36/27 34/20/27 62/37/27 
s 52
f 34/20/27 36/21/28 62/37/27 
s 53
f 62/37/27 36/21/28 63/38/28 
s 54
f 36/21/28 38/22/28 63/38/28 
s 55
f 63/38/28 38/22/28 64/39/28 
s 56
f 38/22/28 40/23/29 64/39/28 
s 57
f 64/39/28 40/23/29 65/40/28 
s 58
f 40/23/29 42/24/28 65/40/28 
s 59
f 65/40/28 42/24/28 66/41/27 
s 60
f 42/24/28 44/25/27 66/41/27 
s 61
f 66/41/27 44/25/27 67/42/29 
s 62
f 44/25/27 46/26/29 67/42/29 
s 63
f 67/42/29 46/26/29 68/43/29 
s 64
f 46/26/28 48/27/28 68/43/29 
s 65
f 68/43/29 48/27/28 69/44/29 
s 66
f 48/27/28 50/28/29 69/44/29 
s 67
f 69/44/29 50/28/29 70/45/28 
s 68
f 50/28/29 52/29/28 70/45/28 
s 69
f 70/45/28 52/29/28 71/46/29 
s 70
f 52/29/28 54/30/29 71/46/29 
s 71
f 71/46/29 54/30/29 56/31/26 
s 72
f 54/30/29 24/15/26 56/31/26 
# 0 polygons - 72 triangles

#
# object ccp_metal_yy_metal_Cmn_dpn
#

v  -21.0464 -10.5314 37.4803
v  21.8193 -10.5314 37.4803
v  22.9069 -9.4561 36.0397
v  -22.0705 -9.4561 36.0397
v  22.9069 -23.7974 36.0397
v  22.9069 -23.8842 14.3358
v  22.9069 -9.4561 14.4706
v  -22.0705 -9.4561 14.4706
v  -22.0705 -23.8842 14.3358
v  -22.0705 -23.7974 36.0397
v  -21.0464 -22.6954 37.4803
v  21.8193 -22.6953 37.4803
v  20.6687 -21.5317 37.4803
v  -19.8958 -21.5317 37.4803
v  20.6687 -11.6951 37.4803
v  -19.8958 -11.6951 37.4803
# 16 vertices

vn -0.0000 0.8014 0.5982
vn 1.0000 -0.0000 0.0000
vn 1.0000 -0.0000 -0.0000
vn -1.0000 -0.0000 0.0000
vn -1.0000 0.0000 -0.0000
vn 0.0000 0.0000 1.0000
vn -0.0000 1.0000 -0.0000
vn 0.0000 -1.0000 0.0040
vn 0.0000 -0.9667 0.2559
vn 0.0000 -0.9657 0.2598
vn 0.0000 -0.7943 0.6076
vn 0.7981 0.0000 0.6025
vn 0.7981 -0.0000 0.6025
vn -0.8151 0.0000 0.5794
# 14 vertex normals

vt -0.0006 0.9529 0.0000
vt -0.0013 0.0285 0.0000
vt 0.0351 0.0021 0.0000
vt 0.0362 0.9927 0.0000
vt 0.9968 -0.2726 0.0000
vt 0.9956 -0.9980 0.0000
vt 0.5246 -0.9999 0.0000
vt 0.5246 -0.2726 0.0000
vt -1.0247 -0.9702 0.0000
vt 0.0847 -0.9702 0.0000
vt 0.0549 -0.9249 0.0000
vt -0.9949 -0.9249 0.0000
vt 0.0847 -0.4975 0.0000
vt 0.0549 -0.5427 0.0000
vt -1.0247 -0.4975 0.0000
vt -0.9949 -0.5427 0.0000
vt 0.5056 0.0021 0.0000
vt 0.5066 0.9927 0.0000
vt 1.4977 -0.0015 0.0000
vt 1.0472 -0.0015 0.0000
vt 1.4977 -1.0037 0.0000
vt 1.0472 -1.0037 0.0000
vt 1.0023 -0.0361 0.0000
vt 1.0023 -0.9759 0.0000
vt -0.3829 -0.3447 0.0000
vt -0.2681 -0.3447 0.0000
vt -0.3829 0.0013 0.0000
vt -0.2681 0.0013 0.0000
vt -0.2693 0.0017 0.0000
vt -0.3830 0.0017 0.0000
vt -0.2693 -0.3447 0.0000
vt -0.3830 -0.3447 0.0000
# 32 texture coords

g ccp_metal_yy_metal_Cmn_dpn
usemtl Standardmaterial
s 1
f 72/47/30 73/48/30 74/49/30 
s 2
f 74/49/30 75/50/30 72/47/30 
s 3
f 76/51/31 77/52/31 78/53/31 
s 4
f 78/53/32 74/54/32 76/51/32 
s 5
f 75/54/33 79/53/33 80/52/33 
s 6
f 80/52/34 81/51/34 75/54/34 
s 7
f 82/55/35 83/56/35 84/57/35 
s 8
f 84/57/35 85/58/35 82/55/35 
s 9
f 83/56/35 73/59/35 86/60/35 
s 10
f 86/60/35 84/57/35 83/56/35 
s 11
f 72/61/35 82/55/35 85/58/35 
s 12
f 85/58/35 87/62/35 72/61/35 
s 13
f 78/63/36 79/64/36 75/50/36 
s 14
f 75/50/36 74/49/36 78/63/36 
s 15
f 77/65/37 76/66/38 80/67/37 
s 16
f 80/67/37 76/66/38 81/68/39 
s 17
f 76/66/38 83/69/40 81/68/39 
s 18
f 81/68/39 83/69/40 82/70/40 
s 19
f 83/71/41 76/72/42 73/73/42 
s 20
f 73/73/42 76/72/42 74/74/42 
s 21
f 72/75/43 75/76/43 82/77/43 
s 22
f 82/77/43 75/76/43 81/78/43 
s 23
f 72/61/35 87/62/35 73/59/35 
s 24
f 73/59/35 87/62/35 86/60/35 
# 0 polygons - 24 triangles

#
# object ccp_etc_yy_light01_IgnoL_d
#

v  20.6687 -11.6951 37.4803
v  -19.8958 -11.6951 37.4803
v  20.6687 -21.5317 37.4803
v  -19.8958 -21.5317 37.4803
# 4 vertices

vn 0.0000 0.0000 1.0000
# 1 vertex normals

vt 0.4769 -0.3762 0.0000
vt 0.3847 -0.3761 0.0000
vt 0.4769 -0.4322 0.0000
vt 0.3847 -0.4322 0.0000
# 4 texture coords

g ccp_etc_yy_light01_IgnoL_d
usemtl Standardmaterial
s 1
f 88/79/44 89/80/44 90/81/44 
s 2
f 90/81/44 89/80/44 91/82/44 
# 0 polygons - 2 triangles

#
# object cpz_obj_airball
#

v  20.9004 -21.7369 0.6354
v  10.9933 -21.7369 0.6354
v  20.9004 -32.4334 0.6354
v  10.9933 -32.4334 0.6354
v  19.3521 -59.1549 0.6354
v  9.7825 -56.5907 0.6354
v  4.2982 -67.0166 0.6354
v  12.5857 -71.8014 0.6354
v  -2.1720 -76.8895 0.6354
v  4.8334 -83.8949 0.6354
v  -11.9300 -83.6422 0.6354
v  -7.1452 -91.9297 0.6354
v  -22.9653 -88.6479 0.6354
v  -20.4011 -97.2981 0.6354
v  -35.1862 -100.0785 0.6354
v  -35.1862 -91.0908 0.6354
v  -42.3855 -100.0785 0.6354
v  -42.3855 -91.0908 0.6354
v  -35.1862 -81.1836 0.6354
v  -42.3855 -81.1836 0.6354
v  -35.1862 -71.2765 0.6354
v  -42.3855 -71.2765 0.6354
v  -35.1862 -62.1001 0.6354
v  -42.3855 -62.1001 0.6354
v  -30.6578 -60.6700 0.6354
v  -28.0936 -69.5088 0.6354
v  -21.4996 -67.0672 0.6354
v  -26.2844 -58.7797 0.6354
v  -16.1828 -62.8786 0.6354
v  -23.1883 -55.8732 0.6354
v  -12.2768 -57.4470 0.6354
v  -20.5643 -52.6622 0.6354
v  -9.3567 -51.4624 0.6354
v  -17.6463 -48.8982 0.6354
v  -17.4483 -32.4334 0.6354
v  -8.8211 -32.4334 0.6354
v  -17.4483 -21.7369 0.6354
v  -8.8211 -21.7369 0.6354
v  1.0861 -32.4334 0.6354
v  1.0861 -21.7369 0.6354
v  0.2129 -54.0266 0.6354
v  -3.9893 -62.2318 0.6354
v  -9.1774 -69.8840 0.6354
v  -16.7148 -75.3547 0.6354
v  -25.5295 -79.0783 0.6354
# 45 vertices

vn 0.0000 0.0000 1.0000
vn 0.0000 -0.0000 1.0000
vn -0.0000 -0.0000 1.0000
vn -0.0000 0.0000 1.0000
# 4 vertex normals

vt 0.0984 0.9940 0.0000
vt 0.2995 0.9926 0.0000
vt 0.0717 0.5850 0.0000
vt 0.2747 0.5512 0.0000
vt 0.0450 0.1760 0.0000
vt 0.2500 0.1098 0.0000
vt 0.2410 -0.2007 0.0000
vt 0.0135 -0.1868 0.0000
vt 0.2320 -0.5113 0.0000
vt -0.0180 -0.5497 0.0000
vt 0.2032 -0.9217 0.0000
vt -0.0648 -0.8746 0.0000
vt 0.1743 -1.3321 0.0000
vt -0.1117 -1.1994 0.0000
vt -0.1382 -1.5579 0.0000
vt 0.1377 -1.5756 0.0000
vt -0.1647 -1.9164 0.0000
vt 0.1012 -1.8190 0.0000
vt 0.5290 -1.5401 0.0000
vt 0.5118 -1.8618 0.0000
vt 0.8461 -1.5184 0.0000
vt 0.8567 -1.8781 0.0000
vt 1.1402 -1.5609 0.0000
vt 1.1554 -1.9269 0.0000
vt 1.1249 -1.1949 0.0000
vt 0.8354 -1.1587 0.0000
vt 0.7838 -0.8213 0.0000
vt 1.0692 -0.8619 0.0000
vt 0.7323 -0.4840 0.0000
vt 1.0135 -0.5289 0.0000
vt 0.7249 -0.1420 0.0000
vt 0.9753 -0.1719 0.0000
vt 0.7176 0.1999 0.0000
vt 0.9370 0.1850 0.0000
vt 0.9120 0.5866 0.0000
vt 0.7001 0.5963 0.0000
vt 0.8869 0.9881 0.0000
vt 0.6826 0.9926 0.0000
vt 0.4781 0.5589 0.0000
vt 0.5000 0.9926 0.0000
vt 0.4562 0.1252 0.0000
vt 0.4587 -0.1942 0.0000
vt 0.4612 -0.5135 0.0000
vt 0.5037 -0.8659 0.0000
vt 0.5461 -1.2183 0.0000
# 45 texture coords

g cpz_obj_airball
usemtl Standardmaterial
s 1
f 92/83/45 93/84/45 94/85/46 
s 2
f 93/84/45 95/86/46 94/85/46 
s 3
f 94/85/46 95/86/46 96/87/46 
s 4
f 95/86/46 97/88/46 96/87/46 
s 5
f 97/88/46 98/89/47 96/87/46 
s 6
f 96/87/46 98/89/47 99/90/48 
s 7
f 98/89/47 100/91/47 99/90/48 
s 8
f 99/90/47 100/91/47 101/92/47 
s 9
f 100/91/47 102/93/45 101/92/47 
s 10
f 101/92/47 102/93/45 103/94/45 
s 11
f 102/93/45 104/95/45 103/94/45 
s 12
f 103/94/45 104/95/45 105/96/45 
s 13
f 105/96/45 104/95/45 106/97/45 
s 14
f 104/95/45 107/98/45 106/97/45 
s 15
f 106/97/45 107/98/45 108/99/45 
s 16
f 108/99/45 107/98/45 109/100/45 
s 17
f 107/98/45 110/101/46 109/100/45 
s 18
f 109/100/45 110/101/46 111/102/46 
s 19
f 110/101/46 112/103/46 111/102/46 
s 20
f 111/102/46 112/103/46 113/104/46 
s 21
f 112/103/46 114/105/45 113/104/46 
s 22
f 113/104/46 114/105/45 115/106/45 
s 23
f 114/105/45 112/103/46 116/107/45 
s 24
f 112/103/46 117/108/46 116/107/45 
s 25
f 117/108/46 118/109/46 116/107/45 
s 26
f 116/107/45 118/109/46 119/110/47 
s 27
f 118/109/46 120/111/46 119/110/47 
s 28
f 119/110/47 120/111/46 121/112/47 
s 29
f 120/111/46 122/113/46 121/112/47 
s 30
f 121/112/47 122/113/46 123/114/46 
s 31
f 122/113/46 124/115/47 123/114/46 
s 32
f 123/114/45 124/115/47 125/116/45 
s 33
f 125/116/45 124/115/47 126/117/45 
s 34
f 124/115/47 127/118/45 126/117/45 
s 35
f 126/117/45 127/118/45 128/119/45 
s 36
f 128/119/45 127/118/45 129/120/45 
s 37
f 127/118/45 130/121/45 129/120/45 
s 38
f 129/120/45 130/121/45 131/122/45 
s 39
f 130/121/45 95/86/46 131/122/45 
s 40
f 131/122/45 95/86/46 93/84/45 
s 41
f 95/86/46 130/121/45 97/88/46 
s 42
f 130/121/45 132/123/47 97/88/46 
s 43
f 132/123/47 133/124/47 97/88/46 
s 44
f 97/88/46 133/124/47 98/89/47 
s 45
f 133/124/47 134/125/46 98/89/47 
s 46
f 98/89/47 134/125/46 100/91/47 
s 47
f 134/125/46 135/126/47 100/91/47 
s 48
f 100/91/47 135/126/47 102/93/45 
s 49
f 135/126/47 136/127/46 102/93/45 
s 50
f 102/93/45 136/127/46 104/95/45 
s 51
f 104/95/45 136/127/46 107/98/45 
s 52
f 107/98/45 136/127/46 110/101/46 
s 53
f 136/127/46 117/108/46 110/101/46 
s 54
f 110/101/46 117/108/46 112/103/46 
s 55
f 136/127/46 135/126/47 117/108/46 
s 56
f 117/108/46 135/126/47 118/109/46 
s 57
f 135/126/47 134/125/46 118/109/46 
s 58
f 118/109/46 134/125/46 120/111/46 
s 59
f 134/125/46 133/124/47 120/111/46 
s 60
f 120/111/46 133/124/47 122/113/46 
s 61
f 133/124/47 132/123/47 122/113/46 
s 62
f 122/113/46 132/123/47 124/115/47 
s 63
f 124/115/47 132/123/47 127/118/45 
s 64
f 132/123/45 130/121/45 127/118/45 
# 0 polygons - 64 triangles

#
# object cpz_obj_watershadow
#

v  20.8696 -21.7369 1.7007
v  10.9624 -21.7369 1.7007
v  20.8696 -32.4334 1.7007
v  10.9624 -32.4334 1.7007
v  19.3213 -59.1549 1.7007
v  9.7517 -56.5907 1.7007
v  4.2674 -67.0166 1.7007
v  12.5549 -71.8014 1.7007
v  -2.2028 -76.8895 1.7007
v  4.8026 -83.8949 1.7007
v  -11.9609 -83.6422 1.7007
v  -7.1761 -91.9297 1.7007
v  -22.9961 -88.6479 1.7007
v  -20.4320 -97.2981 1.7007
v  -35.2170 -100.0785 1.7007
v  -35.2170 -91.0908 1.7007
v  -42.4164 -100.0785 1.7007
v  -42.4164 -91.0908 1.7007
v  -35.2170 -81.1836 1.7007
v  -42.4164 -81.1836 1.7007
v  -35.2170 -71.2765 1.7007
v  -42.4164 -71.2765 1.7007
v  -35.2170 -62.1001 1.7007
v  -42.4164 -62.1001 1.7007
v  -30.6886 -60.6700 1.7007
v  -28.1245 -69.5088 1.7007
v  -21.5305 -67.0672 1.7007
v  -26.3153 -58.7797 1.7007
v  -16.2137 -62.8786 1.7007
v  -23.2191 -55.8732 1.7007
v  -12.3076 -57.4471 1.7007
v  -20.5952 -52.6623 1.7007
v  -9.3875 -51.4624 1.7007
v  -17.6771 -48.8982 1.7007
v  -17.4791 -32.4334 1.7007
v  -8.8519 -32.4334 1.7007
v  -17.4791 -21.7369 1.7007
v  -8.8519 -21.7369 1.7007
v  1.0553 -32.4334 1.7007
v  1.0553 -21.7369 1.7007
v  0.1821 -54.0266 1.7007
v  -4.0201 -62.2318 1.7007
v  -9.2083 -69.8840 1.7007
v  -16.7457 -75.3547 1.7007
v  -25.5603 -79.0784 1.7007
# 45 vertices

vn 0.0000 0.0000 1.0000
vn 0.0000 -0.0000 1.0000
vn -0.0000 -0.0000 1.0000
# 3 vertex normals

vt 0.5902 -1.0000 0.0000
vt 0.5902 -0.7500 0.0000
vt 0.6170 -1.0000 0.0000
vt 0.6170 -0.7500 0.0000
vt 0.6437 -1.0000 0.0000
vt 0.6437 -0.7500 0.0000
vt 0.6705 -0.7500 0.0000
vt 0.6705 -1.0000 0.0000
vt 0.6973 -0.7500 0.0000
vt 0.6973 -1.0000 0.0000
vt 0.7240 -0.7500 0.0000
vt 0.7240 -1.0000 0.0000
vt 0.7508 -0.7500 0.0000
vt 0.7508 -1.0000 0.0000
vt 0.7776 -1.0000 0.0000
vt 0.7776 -0.7500 0.0000
vt 0.8043 -1.0000 0.0000
vt 0.8043 -0.7500 0.0000
vt 0.7776 -0.5000 0.0000
vt 0.8043 -0.5000 0.0000
vt 0.7776 -0.2500 0.0000
vt 0.8043 -0.2500 0.0000
vt 0.7776 -0.0000 0.0000
vt 0.8043 -0.0000 0.0000
vt 0.7508 -0.0000 0.0000
vt 0.7508 -0.2500 0.0000
vt 0.7240 -0.2500 0.0000
vt 0.7240 -0.0000 0.0000
vt 0.6973 -0.2500 0.0000
vt 0.6973 -0.0000 0.0000
vt 0.6705 -0.2500 0.0000
vt 0.6705 -0.0000 0.0000
vt 0.6437 -0.2500 0.0000
vt 0.6437 -0.0000 0.0000
vt 0.6170 -0.0000 0.0000
vt 0.6170 -0.2500 0.0000
vt 0.5902 -0.0000 0.0000
vt 0.5902 -0.2500 0.0000
vt 0.6170 -0.5000 0.0000
vt 0.5902 -0.5000 0.0000
vt 0.6437 -0.5000 0.0000
vt 0.6705 -0.5000 0.0000
vt 0.6973 -0.5000 0.0000
vt 0.7240 -0.5000 0.0000
vt 0.7508 -0.5000 0.0000
# 45 texture coords

g cpz_obj_watershadow
usemtl Standardmaterial
s 1
f 137/128/49 138/129/49 139/130/49 
s 2
f 138/129/49 140/131/49 139/130/49 
s 3
f 139/130/49 140/131/49 141/132/50 
s 4
f 140/131/49 142/133/50 141/132/50 
s 5
f 142/133/50 143/134/51 141/132/50 
s 6
f 141/132/50 143/134/51 144/135/49 
s 7
f 143/134/51 145/136/49 144/135/49 
s 8
f 144/135/49 145/136/49 146/137/49 
s 9
f 145/136/49 147/138/49 146/137/49 
s 10
f 146/137/49 147/138/49 148/139/49 
s 11
f 147/138/49 149/140/49 148/139/49 
s 12
f 148/139/49 149/140/49 150/141/49 
s 13
f 150/141/49 149/140/49 151/142/49 
s 14
f 149/140/49 152/143/49 151/142/49 
s 15
f 151/142/49 152/143/49 153/144/49 
s 16
f 153/144/49 152/143/49 154/145/49 
s 17
f 152/143/49 155/146/49 154/145/49 
s 18
f 154/145/49 155/146/49 156/147/49 
s 19
f 155/146/49 157/148/49 156/147/49 
s 20
f 156/147/49 157/148/49 158/149/49 
s 21
f 157/148/49 159/150/49 158/149/49 
s 22
f 158/149/49 159/150/49 160/151/49 
s 23
f 159/150/49 157/148/49 161/152/49 
s 24
f 157/148/49 162/153/49 161/152/49 
s 25
f 162/153/49 163/154/49 161/152/49 
s 26
f 161/152/49 163/154/49 164/155/51 
s 27
f 163/154/49 165/156/50 164/155/51 
s 28
f 164/155/51 165/156/50 166/157/51 
s 29
f 165/156/50 167/158/50 166/157/51 
s 30
f 166/157/51 167/158/50 168/159/50 
s 31
f 167/158/50 169/160/51 168/159/50 
s 32
f 168/159/49 169/160/51 170/161/49 
s 33
f 170/161/49 169/160/51 171/162/49 
s 34
f 169/160/51 172/163/49 171/162/49 
s 35
f 171/162/49 172/163/49 173/164/49 
s 36
f 173/164/49 172/163/49 174/165/49 
s 37
f 172/163/49 175/166/49 174/165/49 
s 38
f 174/165/49 175/166/49 176/167/49 
s 39
f 175/166/49 140/131/49 176/167/49 
s 40
f 176/167/49 140/131/49 138/129/49 
s 41
f 140/131/49 175/166/49 142/133/50 
s 42
f 175/166/49 177/168/51 142/133/50 
s 43
f 177/168/51 178/169/51 142/133/50 
s 44
f 142/133/50 178/169/51 143/134/51 
s 45
f 178/169/51 179/170/49 143/134/51 
s 46
f 143/134/51 179/170/49 145/136/49 
s 47
f 179/170/49 180/171/49 145/136/49 
s 48
f 145/136/49 180/171/49 147/138/49 
s 49
f 180/171/49 181/172/49 147/138/49 
s 50
f 147/138/49 181/172/49 149/140/49 
s 51
f 149/140/49 181/172/49 152/143/49 
s 52
f 152/143/49 181/172/49 155/146/49 
s 53
f 181/172/49 162/153/49 155/146/49 
s 54
f 155/146/49 162/153/49 157/148/49 
s 55
f 181/172/49 180/171/49 162/153/49 
s 56
f 162/153/49 180/171/49 163/154/49 
s 57
f 180/171/49 179/170/49 163/154/49 
s 58
f 163/154/49 179/170/49 165/156/50 
s 59
f 179/170/49 178/169/51 165/156/50 
s 60
f 165/156/50 178/169/51 167/158/50 
s 61
f 178/169/51 177/168/51 167/158/50 
s 62
f 167/158/50 177/168/51 169/160/51 
s 63
f 169/160/51 177/168/51 172/163/49 
s 64
f 177/168/49 175/166/49 172/163/49 
# 0 polygons - 64 triangles

