# 3ds Max Wavefront OBJ Exporter v0.97b - (c)2007 guruware
# File Created: 27.12.2011 02:55:07

mtllib cpz_obj_shutter.mtl

#
# object cpz_obj_Shutter
#

v  0.3600 -0.0180 0.0180
v  0.3600 -0.0180 -0.0180
v  0.3600 0.0180 -0.0180
v  0.3600 0.0180 0.0180
v  0.1800 0.1800 0.1800
v  0.1800 0.1800 -0.1800
v  0.1800 -0.1800 0.1800
v  0.1800 -0.1800 -0.1800
v  0.0000 0.0000 -0.0000
# 9 vertices

vn 1.0000 0.0000 -0.0000
vn 0.6690 0.7433 -0.0000
vn 0.6690 0.0000 0.7433
vn 0.6690 0.0000 -0.7433
vn 0.6690 -0.7433 -0.0000
vn -0.7071 0.0000 0.7071
vn -0.7071 0.7071 -0.0000
vn -0.7071 0.0000 -0.7071
vn -0.7071 -0.7071 -0.0000
# 9 vertex normals

g cpz_obj_Shutter
usemtl wire_255255000
s 1
f 1//1 2//1 3//1 4//1 
s 2
f 5//2 4//2 3//2 6//2 
s 4
f 7//3 1//3 4//3 5//3 
s 8
f 2//4 8//4 6//4 3//4 
s 16
f 1//5 7//5 8//5 2//5 
s 32
f 9//6 7//6 5//6 
s 64
f 9//7 5//7 6//7 
s 128
f 9//8 6//8 8//8 
s 256
f 9//9 8//9 7//9 
# 5 polygons - 4 triangles

#
# object cpz_metal_yy1_belt_cmn_dpn
#

v  -12.0885 0.0000 -102.9634
v  -18.7716 0.0000 -54.1600
v  -18.7716 0.0000 -102.9634
v  7.6154 0.0000 137.2089
v  7.6154 0.0000 147.3328
v  5.1771 0.0000 134.1735
v  -0.6333 0.0000 151.2000
v  -0.6481 0.0000 134.3520
v  -0.8580 0.0000 -102.9634
v  7.6154 0.0000 -56.1298
v  7.6154 0.0000 131.2045
v  7.6154 0.0000 -102.9634
v  5.5532 0.0000 151.2000
v  -0.6333 284.4000 151.2000
v  5.5532 284.4000 151.2000
v  7.6154 284.4000 147.3328
v  7.6154 284.4000 137.2089
v  5.1771 284.4000 134.1735
v  -5.4985 284.4000 154.4080
v  -5.4985 0.0000 154.4080
v  -7.1625 284.4000 154.2593
v  -7.1625 0.0000 154.2593
v  -10.4419 284.4000 153.4526
v  -10.4419 0.0000 153.4526
v  -12.0885 284.4000 151.2000
v  -12.0885 0.0000 151.2000
v  7.6154 284.4000 131.2045
v  7.6154 284.4000 -56.1298
v  -18.7716 284.4000 134.7025
v  -18.7716 284.4000 -54.1600
v  -18.7716 0.0000 134.7025
v  -12.0885 0.0000 134.7025
v  7.6154 284.4000 -102.9634
v  -18.7716 284.4000 -102.9634
v  -0.9006 0.0000 -151.2000
v  -12.0885 0.0000 -151.2000
# 36 vertices

vn 0.0000 -1.0000 -0.0000
vn 0.0000 0.0000 1.0000
vn 0.5145 0.0000 0.8575
vn 0.9702 0.0000 0.2425
vn 1.0000 0.0000 -0.0000
vn 0.9433 0.0000 -0.3319
vn 0.7796 0.0000 -0.6263
vn 0.5505 0.0000 0.8348
vn 0.2444 0.0000 0.9697
vn -0.1644 0.0000 0.9864
vn -0.5567 0.0000 0.8307
vn -0.8073 0.0000 0.5901
vn -1.0000 0.0000 -0.0000
vn 0.7728 0.0000 0.6347
vn 0.7728 -0.0000 0.6347
# 15 vertex normals

vt -0.0060 -1.4014 0.0000
vt 0.2010 -1.4929 0.0000
vt -0.0060 -1.4929 0.0000
vt 1.0088 -1.6273 0.0000
vt 1.0741 -1.6273 0.0000
vt 0.9892 -1.5907 0.0000
vt 1.0991 -1.5035 0.0000
vt 0.9903 -1.5033 0.0000
vt 0.0009 -1.5001 0.0000
vt 0.1961 -1.6273 0.0000
vt 0.9794 -1.6273 0.0000
vt 0.0009 -1.6273 0.0000
vt 1.0991 -1.5963 0.0000
vt 0.0741 0.3703 0.0000
vt 0.0741 -0.9994 0.0000
vt 0.1208 0.3703 0.0000
vt 0.1208 -0.9994 0.0000
vt 0.1364 -0.9994 0.0000
vt 0.1364 0.3703 0.0000
vt 0.1938 -0.9994 0.0000
vt 0.1938 0.3703 0.0000
vt 0.2010 -0.9994 0.0000
vt 0.2010 0.3703 0.0000
vt 0.0391 0.3703 0.0000
vt 0.0391 -0.9994 0.0000
vt 0.0268 0.3703 0.0000
vt 0.0268 -0.9994 0.0000
vt 0.0031 0.3703 0.0000
vt 0.0031 -0.9994 0.0000
vt -0.0097 0.3703 0.0000
vt -0.0097 -0.9994 0.0000
vt 1.0002 0.3703 0.0000
vt 0.1965 0.3703 0.0000
vt 1.0002 -0.9994 0.0000
vt 0.1965 -0.9994 0.0000
vt 3.1993 -1.0000 0.0000
vt 4.0009 -1.0000 0.0000
vt 3.1993 0.3697 0.0000
vt 4.0009 0.3697 0.0000
vt 1.0020 -1.4014 0.0000
vt 1.0020 -1.4929 0.0000
vt 0.2141 -0.9994 0.0000
vt 0.2141 0.3703 0.0000
vt 0.9945 -0.9994 0.0000
vt 1.2024 -0.9994 0.0000
vt 0.9945 0.3703 0.0000
vt 1.2024 0.3703 0.0000
vt 2.9922 -1.0000 0.0000
vt 2.9922 0.3697 0.0000
vt -0.9666 -1.0187 0.0000
vt -0.9880 -1.0133 0.0000
vt -0.9558 -1.0197 0.0000
vt -0.9988 -0.8888 0.0000
vt -0.9136 -0.8888 0.0000
vt -0.9241 -0.9984 0.0000
vt -0.9255 0.6894 0.0000
vt -0.9988 0.6894 0.0000
vt -0.9258 1.0098 0.0000
vt -0.9988 1.0098 0.0000
vt -0.9988 -0.9984 0.0000
# 60 texture coords

g cpz_metal_yy1_belt_cmn_dpn
usemtl Standardmaterial
s 1
f 10/1/10 11/2/10 12/3/10 
s 2
f 13/4/10 14/5/10 15/6/10 
s 3
f 14/5/10 16/7/10 15/6/10 
s 4
f 16/7/10 17/8/10 15/6/10 
s 5
f 17/8/10 18/9/10 15/6/10 
s 6
f 18/9/10 19/10/10 15/6/10 
s 7
f 15/6/10 19/10/10 20/11/10 
s 8
f 18/9/10 21/12/10 19/10/10 
s 9
f 14/5/10 22/13/10 16/7/10 
s 10
f 23/14/11 16/15/11 24/16/12 
s 11
f 16/15/11 22/17/12 24/16/12 
s 12
f 22/17/12 14/18/13 24/16/12 
s 13
f 24/16/12 14/18/13 25/19/13 
s 14
f 14/18/13 13/20/14 25/19/13 
s 15
f 25/19/13 13/20/14 26/21/15 
s 16
f 13/20/16 15/22/16 26/21/15 
s 17
f 26/21/15 15/22/16 27/23/16 
s 18
f 23/14/17 28/24/18 16/15/17 
s 19
f 16/15/17 28/24/18 29/25/18 
s 20
f 28/24/18 30/26/19 29/25/18 
s 21
f 29/25/18 30/26/19 31/27/19 
s 22
f 30/26/19 32/28/20 31/27/19 
s 23
f 31/27/19 32/28/20 33/29/20 
s 24
f 32/28/20 34/30/21 33/29/20 
s 25
f 33/29/20 34/30/21 35/31/21 
s 26
f 20/32/14 19/33/14 36/34/14 
s 27
f 36/34/14 19/33/14 37/35/14 
s 28
f 38/36/22 39/37/22 40/38/22 
s 29
f 40/38/22 39/37/22 11/39/22 
s 30
f 41/40/10 40/41/10 10/1/10 
s 31
f 10/1/10 40/41/10 11/2/10 
s 32
f 15/22/23 20/42/24 27/23/24 
s 33
f 27/23/24 20/42/24 36/43/24 
s 34
f 42/44/14 37/45/14 21/46/14 
s 35
f 21/46/14 37/45/14 19/47/14 
s 36
f 12/48/22 11/36/22 43/49/22 
s 37
f 43/49/22 11/36/22 39/38/22 
s 38
f 31/50/10 33/51/10 29/52/10 
s 39
f 33/51/10 41/53/10 29/52/10 
s 40
f 41/53/10 17/54/10 29/52/10 
s 41
f 29/52/10 17/54/10 16/55/10 
s 42
f 17/54/10 41/53/10 18/56/10 
s 43
f 41/53/10 10/57/10 18/56/10 
s 44
f 18/56/10 10/57/10 44/58/10 
s 45
f 10/57/10 45/59/10 44/58/10 
s 46
f 33/51/10 35/60/10 41/53/10 
# 0 polygons - 46 triangles

#
# object ccp_metal_yy_floor2_Lumi_dpnE
#

v  -12.0885 0.0000 -151.2000
v  -12.0885 0.0000 -102.9634
v  -18.7716 0.0000 -102.9634
v  -18.7716 0.0000 -151.2000
v  -18.7716 284.4000 -102.9634
v  -18.7716 284.4000 -151.2000
v  7.6154 0.0000 -102.9634
v  -0.8580 0.0000 -102.9634
v  7.6154 0.0000 -151.2000
v  -0.9006 0.0000 -151.2000
v  7.6154 284.4000 -151.2000
v  7.6154 284.4000 -102.9634
# 12 vertices

vn 0.0000 -1.0000 -0.0000
vn -1.0000 0.0000 -0.0000
vn 1.0000 0.0000 -0.0000
# 3 vertex normals

vt 0.0259 -1.6201 0.0000
vt 0.0259 -1.4155 0.0000
vt 0.0987 -1.4155 0.0000
vt 0.0987 -1.6201 0.0000
vt 0.0111 0.2530 0.0000
vt -0.2697 0.2530 0.0000
vt 0.0111 -1.0000 0.0000
vt -0.2697 -1.0000 0.0000
vt 0.1023 -1.2364 0.0000
vt 0.0293 -1.2364 0.0000
vt 0.1023 -1.4057 0.0000
vt 0.0290 -1.4057 0.0000
vt 1.2818 0.2582 0.0000
vt 0.9968 0.2582 0.0000
vt 1.2818 -0.9994 0.0000
vt 0.9968 -0.9994 0.0000
# 16 texture coords

g ccp_metal_yy_floor2_Lumi_dpnE
usemtl Standardmaterial
s 1
f 46/61/25 47/62/25 48/63/25 
s 2
f 48/63/25 49/64/25 46/61/25 
s 3
f 50/65/26 51/66/26 48/67/26 
s 4
f 48/67/26 51/66/26 49/68/26 
s 5
f 52/69/25 53/70/25 54/71/25 
s 6
f 54/71/25 53/70/25 55/72/25 
s 7
f 56/73/27 57/74/27 54/75/27 
s 8
f 54/75/27 57/74/27 52/76/27 
# 0 polygons - 8 triangles

#
# object ccp_metal_yy_lblueright_Cmn_dpn
#

v  -12.0885 0.0000 151.2000
v  -12.0885 284.4000 151.2000
v  -18.7716 284.4000 151.2000
v  -18.7716 0.0000 151.2000
v  -18.7716 284.4000 134.7025
v  -18.7716 0.0000 134.7025
v  -12.0885 0.0000 134.7025
# 7 vertices

vn 0.0000 0.0000 1.0000
vn -1.0000 0.0000 -0.0000
vn 0.0000 -1.0000 -0.0000
# 3 vertex normals

vt 3.6497 -0.9937 0.0000
vt 4.9995 -0.9937 0.0000
vt 4.9989 -0.9300 0.0000
vt 3.6491 -0.9300 0.0000
vt 4.9989 -0.8472 0.0000
vt 3.6491 -0.8472 0.0000
vt 1.0720 -1.4014 0.0000
vt 1.0720 -1.4929 0.0000
vt 1.0020 -1.4014 0.0000
vt 1.0020 -1.4929 0.0000
# 10 texture coords

g ccp_metal_yy_lblueright_Cmn_dpn
usemtl Standardmaterial
s 1
f 58/77/28 59/78/28 60/79/28 
s 2
f 60/79/28 61/80/28 58/77/28 
s 3
f 60/79/29 62/81/29 61/80/29 
s 4
f 61/80/29 62/81/29 63/82/29 
s 5
f 58/83/30 61/84/30 64/85/30 
s 6
f 64/85/30 61/84/30 63/86/30 
# 0 polygons - 6 triangles

