# 3ds Max Wavefront OBJ Exporter v0.97b - (c)2007 guruware
# File Created: 27.12.2011 02:32:41

mtllib cpz_obj_breakbox_brk_003.mtl

#
# object cpz_obj_breakbox_brk_003
#

v  0.3600 -0.0180 0.0180
v  0.3600 -0.0180 -0.0180
v  0.3600 0.0180 -0.0180
v  0.3600 0.0180 0.0180
v  0.1800 0.1800 0.1800
v  0.1800 0.1800 -0.1800
v  0.1800 -0.1800 0.1800
v  0.1800 -0.1800 -0.1800
v  0.0000 0.0000 -0.0000
# 9 vertices

vn 1.0000 0.0000 -0.0000
vn 0.6690 0.7433 -0.0000
vn 0.6690 0.0000 0.7433
vn 0.6690 0.0000 -0.7433
vn 0.6690 -0.7433 -0.0000
vn -0.7071 0.0000 0.7071
vn -0.7071 0.7071 -0.0000
vn -0.7071 0.0000 -0.7071
vn -0.7071 -0.7071 -0.0000
# 9 vertex normals

g cpz_obj_breakbox_brk_003
usemtl wire_255255000
s 1
f 1//1 2//1 3//1 4//1 
s 2
f 5//2 4//2 3//2 6//2 
s 4
f 7//3 1//3 4//3 5//3 
s 8
f 2//4 8//4 6//4 3//4 
s 16
f 1//5 7//5 8//5 2//5 
s 32
f 9//6 7//6 5//6 
s 64
f 9//7 5//7 6//7 
s 128
f 9//8 6//8 8//8 
s 256
f 9//9 8//9 7//9 
# 5 polygons - 4 triangles

#
# object cpz_metal_yy_slop_cmn_dpn
#

v  -33.7060 2.2913 -35.9566
v  -33.7060 0.0000 -33.6652
v  -35.9973 2.2913 -33.6652
v  -15.7381 2.2913 -35.9566
v  -33.7060 20.2592 -35.9566
v  -33.7060 0.0000 -15.6973
v  -15.7381 0.0000 -33.6652
v  -35.9973 20.2592 -33.6652
v  -35.9973 2.2913 -15.6973
v  -33.3174 4.9713 -13.0174
v  -31.0260 2.6799 -13.0174
v  -13.0581 2.6799 -30.9853
v  -13.0581 4.9713 -33.2766
v  -31.0260 22.9392 -33.2766
v  -33.3174 22.9392 -30.9853
v  -4.3875 11.7486 -4.3875
v  -6.0687 11.7486 -6.0687
v  -12.4677 11.7486 0.5630
v  -27.7943 11.7486 -27.7943
v  -27.7943 11.7486 4.8164
v  -19.9042 11.7486 5.0812
v  -16.5324 11.7486 5.8414
v  -6.5343 11.7486 -13.9110
v  -17.9041 11.7486 -25.1505
v  -17.2279 11.7486 -27.7943
v  -33.6265 6.9454 -33.6265
v  -14.2311 6.9454 -33.6265
v  -33.6265 4.3546 -33.6265
v  -13.2970 4.3546 -33.6265
v  -31.6089 2.1946 -31.6089
v  -13.6104 2.1946 -31.6089
v  -33.6265 6.9454 3.6099
v  -33.6265 4.3546 4.5675
v  -31.6089 2.1946 5.2397
v  -13.2979 2.1946 -31.6089
v  -16.6324 2.1946 -27.7106
v  -17.1062 2.1946 -22.4073
v  -6.6745 2.1946 -9.9172
v  -6.7505 2.1946 -5.2849
v  -11.3842 2.1946 -2.7686
v  -16.2251 2.1946 3.9879
v  -18.0666 6.9454 -28.6697
v  -18.1496 6.9454 -23.3588
v  -18.1973 6.9454 -20.3043
v  -15.6169 6.9454 5.0330
v  -10.4377 6.9454 -1.4630
v  -6.5871 6.9454 -12.2037
v  -6.2436 6.9454 -4.0241
v  -31.1277 6.9454 4.6206
v  -27.5386 46.4576 -32.1814
v  -31.3469 45.2720 -34.2451
v  -32.2193 46.4576 -27.5007
v  -34.2830 45.2720 -31.3091
v  -27.7943 6.9607 3.8281
v  -19.9042 6.9607 4.4782
v  -16.0103 6.9607 4.8775
v  -10.5273 6.9607 -1.5445
v  -6.3678 6.9607 -4.0413
v  -18.3182 6.9607 -23.1008
v  -18.1497 6.9607 -28.6482
v  -6.6888 6.9607 -12.1891
v  -6.3741 6.9607 -6.0687
# 62 vertices

vn -0.5774 -0.5774 -0.5774
vn 0.0000 0.0000 -1.0000
vn 0.0000 -1.0000 -0.0000
vn -1.0000 0.0000 -0.0000
vn 0.5774 0.5773 0.5774
vn 0.5774 0.5774 0.5773
vn 0.5774 0.5774 0.5774
vn 0.5773 0.5774 0.5774
vn 0.5774 0.5773 0.5773
vn -0.7071 0.0000 -0.7071
vn 0.0000 -0.7071 -0.7071
vn -0.7071 -0.7071 -0.0000
vn -0.4082 0.8165 -0.4082
vn 0.4082 0.4082 -0.8165
vn 0.8165 -0.4082 -0.4082
vn 0.4082 -0.8165 0.4082
vn -0.4082 -0.4082 0.8165
vn -0.8165 0.4082 0.4082
vn 0.0000 1.0000 -0.0000
vn 0.0000 -0.6826 -0.7308
vn -0.7308 -0.6826 -0.0000
vn -0.0000 -1.0000 -0.0000
vn -0.0000 -1.0000 0.0000
vn -0.1941 0.9616 -0.1941
vn -0.3547 0.3241 0.8770
vn -0.0896 0.2048 0.9747
vn -0.0835 0.0381 0.9958
vn -0.0124 -0.1512 0.9884
vn -0.0260 -0.2116 0.9770
vn 0.0757 0.3601 0.9299
vn 0.7608 -0.2308 0.6066
vn 0.7659 -0.2568 0.5894
vn 0.6454 -0.3058 0.7000
vn 0.6352 -0.3080 0.7082
vn 0.4761 -0.2963 0.8280
vn 0.4590 -0.2733 0.8453
vn 0.9938 -0.1103 0.0163
vn 0.9445 -0.1493 -0.2927
vn 0.9972 -0.0733 -0.0138
vn 0.8463 -0.2436 -0.4737
vn 0.7526 -0.0416 -0.6572
vn 0.7669 0.0402 -0.6405
vn 0.9693 0.2302 0.0866
vn 0.8875 0.3150 0.3364
vn 0.9642 0.2601 0.0522
vn 0.8820 0.3406 0.3256
vn 0.9922 -0.1239 -0.0132
vn 0.7800 0.3590 0.5125
vn 0.7606 0.2742 0.5885
vn -0.0329 -0.2020 0.9788
vn -0.0499 -0.1751 0.9833
vn -0.1426 -0.1372 0.9802
vn -0.1139 -0.1492 0.9822
vn -0.1676 -0.1590 0.9729
vn -0.0998 -0.2068 0.9733
vn 0.7918 -0.0364 0.6097
vn 0.7799 -0.0132 0.6258
vn 0.6966 -0.0529 0.7155
vn 0.6041 -0.0996 0.7907
vn 0.5124 -0.1556 0.8445
vn 0.5089 -0.1492 0.8478
vn 0.9686 0.0223 0.2478
vn 0.9869 -0.1262 0.1006
vn 0.9867 -0.0967 0.1305
vn 0.9805 -0.1941 0.0298
vn 0.6414 -0.3481 -0.6836
vn 0.6494 -0.3316 -0.6844
vn 0.9273 -0.1595 -0.3387
vn 0.8663 -0.1953 -0.4598
vn 0.9977 -0.0614 -0.0298
vn 0.9293 -0.1820 -0.3213
vn 0.9678 -0.1470 -0.2045
vn 0.6687 -0.3250 -0.6687
# 73 vertex normals

vt 0.5924 -0.1578 0.0000
vt 0.5298 -0.1939 0.0000
vt 0.5924 -0.2300 0.0000
vt 0.6008 -0.9956 0.0000
vt 1.0012 -0.9956 0.0000
vt 1.0012 -0.6018 0.0000
vt 1.6006 0.0063 0.0000
vt 2.0010 0.0063 0.0000
vt 2.0010 0.4015 0.0000
vt 1.5996 -0.9956 0.0000
vt 2.0000 -0.9956 0.0000
vt 2.0000 -0.5992 0.0000
vt -0.4279 -0.0388 0.0000
vt -0.4417 -0.0178 0.0000
vt -0.6590 -0.0178 0.0000
vt -0.6728 -0.0388 0.0000
vt -0.5642 -0.2041 0.0000
vt -0.5365 -0.2041 0.0000
vt 2.0000 -1.0573 0.0000
vt 1.5996 -1.0573 0.0000
vt 1.0012 -1.0573 0.0000
vt 0.6008 -1.0573 0.0000
vt 2.0010 -0.0553 0.0000
vt 1.6006 -0.0553 0.0000
vt 1.5151 -1.0573 0.0000
vt 1.5151 -0.9956 0.0000
vt 0.5410 -0.9425 0.0000
vt 0.9415 -0.5421 0.0000
vt 0.5163 -1.0573 0.0000
vt 0.5163 -0.9956 0.0000
vt 1.5408 0.0608 0.0000
vt 1.9413 0.4612 0.0000
vt 1.5161 -0.0553 0.0000
vt 1.5161 0.0063 0.0000
vt 1.5398 -0.9399 0.0000
vt 1.9403 -0.5394 0.0000
vt 0.9075 -1.9902 0.0000
vt 0.8764 -1.9902 0.0000
vt 0.8785 -1.8660 0.0000
vt 0.4745 -1.9902 0.0000
vt 0.7759 -1.6794 0.0000
vt 0.8514 -1.7521 0.0000
vt 0.8896 -1.7770 0.0000
vt 0.7995 -1.9199 0.0000
vt 0.5904 -1.9211 0.0000
vt 0.5722 -1.8895 0.0000
vt 1.4102 -0.0119 0.0000
vt 1.4102 -0.2703 0.0000
vt 1.3525 -0.0119 0.0000
vt 1.3525 -0.2827 0.0000
vt 1.3044 -0.0119 0.0000
vt 1.3044 -0.2670 0.0000
vt 1.4102 -0.5080 0.0000
vt 1.3525 -0.5208 0.0000
vt 1.3044 -0.5342 0.0000
vt 0.4777 -0.0132 0.0000
vt 0.4472 -0.0488 0.0000
vt 0.4749 -0.0132 0.0000
vt 0.3103 -0.0132 0.0000
vt 0.4429 -0.0973 0.0000
vt 0.5383 -0.2115 0.0000
vt 0.5376 -0.2538 0.0000
vt 0.3103 -0.3500 0.0000
vt 0.4952 -0.2768 0.0000
vt 0.4510 -0.3386 0.0000
vt -0.5134 -0.5772 0.0000
vt -0.6825 -0.5772 0.0000
vt -0.5468 -0.5351 0.0000
vt -0.6825 -0.2610 0.0000
vt -0.5475 -0.4900 0.0000
vt -0.5480 -0.4641 0.0000
vt -0.5255 -0.2489 0.0000
vt -0.4803 -0.3041 0.0000
vt -0.4467 -0.3953 0.0000
vt -0.4437 -0.3258 0.0000
vt -0.6558 -0.2590 0.0000
vt 0.5364 0.1560 0.0000
vt 0.4898 0.3023 0.0000
vt 0.3018 0.1514 0.0000
vt 0.3426 0.2994 0.0000
vt -0.6599 -1.8952 0.0000
vt -0.5871 -1.8888 0.0000
vt -0.6661 -1.8249 0.0000
vt -0.5684 -1.3941 0.0000
vt -0.7050 -1.3886 0.0000
vt -0.5313 -1.8268 0.0000
vt -0.6757 -1.1560 0.0000
vt -0.5343 -1.1619 0.0000
vt -0.6617 -1.0334 0.0000
vt -0.5293 -1.0761 0.0000
vt -0.5363 -1.2067 0.0000
vt -0.6737 -1.2641 0.0000
vt -0.6903 -1.5786 0.0000
vt -0.5549 -1.5589 0.0000
vt -0.5628 -1.7084 0.0000
vt -0.6982 -1.7284 0.0000
vt -0.5686 -1.8183 0.0000
vt -0.6325 -1.8720 0.0000
vt -0.7056 -1.8682 0.0000
vt -0.5332 -1.8732 0.0000
vt -0.3814 -1.8382 0.0000
vt -0.5916 -1.6283 0.0000
vt -0.4419 -1.5931 0.0000
vt -0.6202 -1.5233 0.0000
vt -0.4722 -1.4721 0.0000
vt -0.6439 -1.3122 0.0000
vt -0.5024 -1.2044 0.0000
vt -0.6347 -1.0039 0.0000
vt -0.4721 -1.0148 0.0000
vt -0.5646 -1.7725 0.0000
vt -0.4102 -1.7107 0.0000
vt -0.5377 -1.8447 0.0000
vt -0.3808 -1.8332 0.0000
vt -0.4951 -1.2091 0.0000
vt -0.6458 -1.2691 0.0000
vt -0.4776 -1.0616 0.0000
vt -0.6241 -1.0787 0.0000
# 117 texture coords

g cpz_metal_yy_slop_cmn_dpn
usemtl Standardmaterial
s 1
f 10/1/10 11/2/10 12/3/10 
s 2
f 13/4/11 10/5/11 14/6/11 
s 3
f 15/7/12 11/8/12 16/9/12 
s 4
f 17/10/13 12/11/13 18/12/13 
s 5
f 19/13/14 20/14/14 21/15/14 
s 6
f 21/15/15 22/16/15 23/17/15 
s 7
f 19/13/16 21/15/16 23/17/17 
s 8
f 24/18/18 19/13/18 23/17/18 
s 9
f 12/11/19 17/10/19 10/19/19 
s 10
f 10/19/19 17/10/19 14/20/19 
s 11
f 10/5/20 13/4/20 11/21/20 
s 12
f 11/21/20 13/4/20 16/22/20 
s 13
f 11/8/21 15/7/21 12/23/21 
s 14
f 12/23/21 15/7/21 18/24/21 
s 15
f 23/25/22 14/20/22 24/26/22 
s 16
f 24/26/22 14/20/22 17/10/22 
s 17
f 22/27/23 13/4/23 23/28/23 
s 18
f 23/28/23 13/4/23 14/6/23 
s 19
f 21/29/24 16/22/24 22/30/24 
s 20
f 22/30/24 16/22/24 13/4/24 
s 21
f 20/31/25 15/7/25 21/32/25 
s 22
f 21/32/25 15/7/25 16/9/25 
s 23
f 19/33/26 18/24/26 20/34/26 
s 24
f 20/34/26 18/24/26 15/7/26 
s 25
f 24/35/27 17/10/27 19/36/27 
s 26
f 19/36/27 17/10/27 18/12/27 
s 27
f 25/37/28 26/38/28 27/39/28 
s 28
f 26/38/28 28/40/28 27/39/28 
s 29
f 28/40/28 29/41/28 27/39/28 
s 30
f 29/41/28 30/42/28 27/39/28 
s 31
f 27/39/28 30/42/28 31/43/28 
s 32
f 26/38/28 32/44/28 28/40/28 
s 33
f 32/44/28 33/45/28 28/40/28 
s 34
f 28/40/28 33/45/28 34/46/28 
s 35
f 35/47/11 36/48/11 37/49/11 
s 36
f 37/49/11 36/48/11 38/50/11 
s 37
f 37/49/29 38/50/29 39/51/29 
s 38
f 39/51/29 38/50/29 40/52/29 
s 39
f 35/47/13 37/49/13 41/53/13 
s 40
f 41/53/13 37/49/13 42/54/13 
s 41
f 37/49/30 39/51/30 42/54/30 
s 42
f 42/54/30 39/51/30 43/55/30 
s 43
f 44/56/12 45/57/12 40/58/12 
s 44
f 40/58/12 45/57/12 39/59/31 
s 45
f 45/57/12 46/60/32 39/59/31 
s 46
f 46/60/32 47/61/32 39/59/31 
s 47
f 47/61/32 48/62/12 39/59/31 
s 48
f 39/59/31 48/62/12 43/63/12 
s 49
f 48/62/12 49/64/12 43/63/12 
s 50
f 43/63/12 49/64/12 50/65/12 
s 51
f 36/66/28 35/67/28 51/68/28 
s 52
f 35/67/28 41/69/28 51/68/28 
s 53
f 51/68/28 41/69/28 52/70/28 
s 54
f 41/69/28 53/71/28 52/70/28 
s 55
f 53/71/28 54/72/28 52/70/28 
s 56
f 54/72/28 55/73/28 52/70/28 
s 57
f 52/70/28 55/73/28 56/74/28 
s 58
f 55/73/28 57/75/28 56/74/28 
s 59
f 54/72/28 53/71/28 58/76/28 
s 60
f 58/76/28 53/71/28 41/69/28 
s 61
f 59/77/33 60/78/33 61/79/33 
s 62
f 61/79/33 60/78/33 62/80/33 
s 63
f 41/81/34 42/82/35 58/83/36 
s 64
f 42/82/35 50/84/37 58/83/36 
s 65
f 58/83/36 50/84/37 54/85/38 
s 66
f 42/82/35 43/86/39 50/84/37 
s 67
f 54/85/40 50/84/41 55/87/42 
s 68
f 50/84/41 49/88/43 55/87/42 
s 69
f 55/87/42 49/88/43 57/89/44 
s 70
f 49/88/43 48/90/45 57/89/44 
s 71
f 48/90/46 47/91/47 57/89/48 
s 72
f 57/89/48 47/91/47 56/92/49 
s 73
f 56/92/49 47/91/47 52/93/50 
s 74
f 47/91/47 46/94/51 52/93/50 
s 75
f 46/94/52 45/95/53 52/93/54 
s 76
f 52/93/54 45/95/53 51/96/55 
s 77
f 45/95/53 44/97/56 51/96/55 
s 78
f 44/97/56 38/98/57 51/96/55 
s 79
f 51/96/55 38/98/57 36/99/58 
s 80
f 44/97/56 40/97/29 38/98/57 
s 81
f 29/100/59 63/101/60 30/102/61 
s 82
f 63/101/60 64/103/62 30/102/61 
s 83
f 30/102/61 64/103/62 31/104/63 
s 84
f 64/103/62 65/105/64 31/104/63 
s 85
f 31/104/65 65/105/66 27/106/67 
s 86
f 65/105/66 66/107/68 27/106/67 
s 87
f 27/106/67 66/107/68 25/108/69 
s 88
f 66/107/68 67/109/70 25/108/69 
s 89
f 33/110/71 68/111/72 34/112/73 
s 90
f 34/112/73 68/111/72 69/113/74 
s 91
f 68/111/75 33/110/76 70/114/77 
s 92
f 33/110/76 32/115/78 70/114/77 
s 93
f 70/114/77 32/115/78 71/116/79 
s 94
f 32/115/78 26/117/80 71/116/79 
s 95
f 71/116/79 26/117/80 67/109/81 
s 96
f 26/117/80 25/108/82 67/109/81 
# 0 polygons - 96 triangles

#
# object cpz_metal_st1_tank01_cmn_dpnE
#

v  -31.3469 45.2720 -34.2451
v  -31.3469 26.6144 -34.2451
v  -34.2830 45.2720 -31.3091
v  -34.2830 26.6144 -31.3091
v  -27.5386 46.4576 -32.1814
v  -27.5386 25.4288 -32.1814
v  -32.2193 46.4576 -27.5007
v  -32.2193 25.4288 -27.5007
v  -29.9573 18.3694 3.1087
v  -28.2472 18.3694 3.1087
v  -29.9573 18.3694 -3.1087
v  -28.2472 18.3694 -3.1087
v  -29.9573 8.5879 5.7470
v  -29.9573 8.5879 -5.7470
v  -28.2472 8.5879 5.7470
v  -28.2472 8.5879 -5.7470
# 16 vertices

vn -0.7071 0.0000 -0.7071
vn 0.4764 0.0000 -0.8792
vn 0.7071 0.0000 0.7071
vn -0.8792 0.0000 0.4764
vn 0.0000 1.0000 -0.0000
vn -1.0000 0.0000 -0.0000
vn 0.0000 0.2604 0.9655
vn 0.0000 0.2604 -0.9655
vn 1.0000 0.0000 -0.0000
# 9 vertex normals

vt 0.4727 -1.0040 0.0000
vt 0.1090 -1.0040 0.0000
vt 0.4727 -1.1384 0.0000
vt 0.1090 -1.1384 0.0000
vt 0.0717 0.0150 0.0000
vt 0.4218 0.0150 0.0000
vt 0.0915 0.1770 0.0000
vt 0.4020 0.1770 0.0000
vt 1.4389 -1.0059 0.0000
vt 0.5316 -1.0059 0.0000
vt 1.4389 -1.1228 0.0000
vt 0.5316 -1.1228 0.0000
vt 0.4018 0.1775 0.0000
vt 0.0919 0.1775 0.0000
vt 0.4215 0.0164 0.0000
vt 0.0722 0.0164 0.0000
vt 0.8126 -1.0088 0.0000
vt 0.8126 -1.2205 0.0000
vt 1.2629 -1.0088 0.0000
vt 1.2629 -1.2205 0.0000
vt 0.4681 -1.0632 0.0000
vt 0.3691 -0.7523 0.0000
vt 0.0325 -1.0632 0.0000
vt 0.1315 -0.7523 0.0000
vt 1.5327 -1.0632 0.0000
vt 1.5327 -0.7523 0.0000
vt 1.3990 -1.0632 0.0000
vt 1.3990 -0.7523 0.0000
vt 1.5344 -1.0632 0.0000
vt 1.5344 -0.7523 0.0000
vt 1.4038 -1.0632 0.0000
vt 1.4038 -0.7523 0.0000
vt 0.4344 -0.7548 0.0000
vt 0.4059 -0.9760 0.0000
vt 0.5017 -0.7548 0.0000
vt 0.5303 -0.9760 0.0000
# 36 texture coords

g cpz_metal_st1_tank01_cmn_dpnE
usemtl Standardmaterial
s 1
f 72/118/83 73/119/83 74/120/83 
s 2
f 74/120/83 73/119/83 75/121/83 
s 3
f 76/122/84 77/123/84 72/124/84 
s 4
f 72/124/84 77/123/84 73/125/84 
s 5
f 78/126/85 79/127/85 76/128/85 
s 6
f 76/128/85 79/127/85 77/129/85 
s 7
f 74/130/86 75/131/86 78/132/86 
s 8
f 78/132/86 75/131/86 79/133/86 
s 9
f 80/134/87 81/135/87 82/136/87 
s 10
f 82/136/87 81/135/87 83/137/87 
s 11
f 84/138/88 80/139/88 85/140/88 
s 12
f 85/140/88 80/139/88 82/141/88 
s 13
f 86/142/89 81/143/89 84/144/89 
s 14
f 84/144/89 81/143/89 80/145/89 
s 15
f 85/146/90 82/147/90 87/148/90 
s 16
f 87/148/90 82/147/90 83/149/90 
s 17
f 81/150/91 86/151/91 83/152/91 
s 18
f 83/152/91 86/151/91 87/153/91 
# 0 polygons - 18 triangles

#
# object cpz_yy1_road_cmn_dp
#

v  -34.2830 7.9568 -31.3091
v  -34.2830 26.6144 -31.3091
v  -31.3469 7.9568 -34.2451
v  -31.3469 26.6144 -34.2451
v  -27.5386 4.4000 -32.1814
v  -27.5386 25.4288 -32.1814
v  -32.2193 4.4000 -27.5007
v  -32.2193 25.4288 -27.5007
# 8 vertices

vn -0.7071 0.0000 -0.7071
vn 0.4764 0.0000 -0.8792
vn 0.7071 0.0000 0.7071
vn -0.8792 0.0000 0.4764
# 4 vertex normals

vt 0.3202 0.4229 0.0000
vt 0.6646 0.4229 0.0000
vt 0.3202 0.3348 0.0000
vt 0.6646 0.3348 0.0000
vt 0.2593 0.4229 0.0000
vt 0.2593 0.3348 0.0000
# 6 texture coords

g cpz_yy1_road_cmn_dp
usemtl Standardmaterial
s 1
f 88/154/92 89/155/92 90/156/92 
s 2
f 90/156/92 89/155/92 91/157/92 
s 3
f 92/158/93 90/156/93 93/155/93 
s 4
f 93/155/93 90/156/93 91/157/93 
s 5
f 92/158/94 93/155/94 94/159/94 
s 6
f 94/159/94 93/155/94 95/157/94 
s 7
f 94/159/95 95/157/95 88/154/95 
s 8
f 88/154/95 95/157/95 89/155/95 
# 0 polygons - 8 triangles

#
# object ccp_metal_yy_yelow_Cmn_dpn
#

v  -31.3943 11.7486 -31.3943
v  -17.3347 11.7486 -31.3943
v  -31.3943 6.9696 -31.3943
v  -16.1553 6.9696 -31.3943
v  -31.3943 11.7486 4.6686
v  -27.7943 11.7486 -27.7943
v  -27.7943 11.7486 4.8164
v  -31.3943 6.9696 4.3466
v  -17.2279 11.7486 -27.7943
v  -27.7943 6.9607 3.8281
v  -18.1497 6.9607 -28.6482
# 11 vertices

vn 0.0000 0.0000 -1.0000
vn 0.0000 1.0000 -0.0000
vn -1.0000 0.0000 -0.0000
vn -0.0409 -0.0672 0.9969
vn 0.0669 -0.1474 0.9868
vn 0.0337 -0.1229 0.9918
vn 0.1392 -0.2002 0.9698
vn 0.9825 -0.1840 -0.0292
vn 0.9304 0.0499 0.3631
vn 0.9758 -0.0431 0.2145
vn 0.7932 0.1957 0.5767
# 11 vertex normals

vt 4.9976 -0.2879 0.0000
vt 5.4459 -0.2908 0.0000
vt 4.9976 -0.5345 0.0000
vt 5.5115 -0.5316 0.0000
vt 3.8501 -0.2887 0.0000
vt 4.8839 -0.1762 0.0000
vt 3.8455 -0.1762 0.0000
vt 3.8604 -0.5337 0.0000
vt 5.1118 -0.1762 0.0000
vt 5.4482 -0.1762 0.0000
vt 4.0141 -0.2828 0.0000
vt 4.0243 -0.5264 0.0000
vt 5.2884 -0.3021 0.0000
vt 5.3900 -0.5272 0.0000
# 14 texture coords

g ccp_metal_yy_yelow_Cmn_dpn
usemtl Standardmaterial
s 1
f 96/160/96 97/161/96 98/162/96 
s 2
f 98/162/96 97/161/96 99/163/96 
s 3
f 96/160/97 100/164/97 101/165/97 
s 4
f 101/165/97 100/164/97 102/166/97 
s 5
f 98/162/98 103/167/98 96/160/98 
s 6
f 96/160/98 103/167/98 100/164/98 
s 7
f 96/160/97 101/168/97 97/161/97 
s 8
f 97/161/97 101/168/97 104/169/97 
s 9
f 100/164/99 103/167/100 102/170/101 
s 10
f 102/170/101 103/167/100 105/171/102 
s 11
f 104/172/103 106/173/104 97/161/105 
s 12
f 97/161/105 106/173/104 99/163/106 
# 0 polygons - 12 triangles

#
# object cpz_glass_tn1_glasstube
#

v  -17.0708 9.8285 -25.9767
v  -21.9763 9.8285 -25.9767
v  -18.0127 13.8462 -28.2118
v  -23.8672 13.8462 -28.2118
v  -13.7031 18.3700 -28.2118
v  -23.8672 48.4849 -28.2118
v  -15.3972 36.6289 -28.2118
v  -28.2118 13.8462 -23.8672
v  -28.2118 48.9755 -23.8672
v  -28.2118 45.3849 -18.7438
v  -28.2118 53.7605 -6.0785
v  -28.2118 13.8462 4.7484
v  -28.2118 51.2932 6.8296
v  -28.2118 44.3614 12.7274
v  -28.2118 54.4576 9.8285
v  -28.2118 30.0401 12.6031
v  -25.9767 9.8285 -21.9763
v  -25.9767 9.8285 4.9475
v  -17.2353 9.8285 -24.2792
v  -18.1772 13.8462 -26.5144
v  -21.7439 9.8285 -24.2792
v  -23.6349 13.8462 -26.5144
v  -26.8028 13.8462 -23.0580
v  -24.5677 9.8285 -21.1670
v  -26.8028 13.8462 4.7484
v  -24.5677 9.8285 4.9475
v  -26.8028 53.7605 -6.0785
v  -26.8028 51.2932 6.8296
v  -26.8028 54.4576 9.8285
v  -26.8028 30.0401 12.6031
v  -26.8028 44.3614 12.7274
v  -26.8028 45.3849 -18.7438
v  -26.8028 48.9755 -23.0580
v  -23.6349 48.4849 -26.5144
v  -13.8676 18.3700 -26.5144
v  -15.5618 36.6289 -26.5144
# 36 vertices

vn 0.0000 -0.4862 -0.8739
vn -0.1919 -0.5446 -0.8165
vn 0.0000 -0.2168 -0.9762
vn -0.3807 -0.2821 -0.8806
vn 0.0000 0.0000 -1.0000
vn -0.5467 0.0000 -0.8373
vn -0.8806 -0.2821 -0.3807
vn -0.7071 0.0000 -0.7071
vn -1.0000 0.0000 -0.0000
vn -0.9749 -0.2228 -0.0000
vn -0.5722 -0.5876 -0.5722
vn -0.7800 -0.5628 -0.2738
vn -0.8739 -0.4862 -0.0000
vn -0.0000 0.4862 0.8739
vn -0.0000 0.2168 0.9762
vn 0.2908 0.5669 0.7707
vn 0.3993 0.2822 0.8723
vn 0.8889 0.2812 0.3615
vn 0.7887 0.5591 0.2557
vn 0.9749 0.2228 -0.0000
vn 0.8739 0.4862 -0.0000
vn 1.0000 0.0000 -0.0000
vn 0.7372 0.0000 0.6757
vn 0.5811 -0.0000 0.8139
vn -0.0000 -0.0000 1.0000
vn 0.0000 0.0495 0.9988
vn 0.0000 -0.1647 0.9863
vn 0.0000 -0.2477 0.9688
vn -0.0000 -0.2281 0.9736
vn -0.0000 0.1350 0.9908
vn 0.0000 0.1350 0.9908
vn 0.0000 0.2760 0.9612
vn 0.9567 0.2759 0.0927
vn 0.8087 0.5777 -0.1107
vn 0.8108 0.5772 -0.0972
vn 0.9391 0.3332 0.0836
vn 0.9353 0.3419 0.0907
vn 0.9911 0.0920 0.0961
vn 0.1335 0.9909 -0.0183
vn 0.1070 0.9937 -0.0337
vn -0.1703 0.9352 0.3106
vn -0.1199 0.9568 0.2649
vn -0.0518 0.8111 0.5827
vn 0.0000 0.8189 0.5739
vn 0.0000 0.8341 -0.5516
vn 0.0000 0.9805 -0.1964
vn 0.0000 0.9822 0.1877
vn -0.0000 0.6879 -0.7258
vn 0.0000 0.6879 -0.7258
vn 0.7223 -0.6881 0.0700
# 50 vertex normals

vt -0.8366 -1.1028 0.0000
vt -0.7078 -1.1314 0.0000
vt -0.8180 -1.0236 0.0000
vt -0.7143 -1.0497 0.0000
vt -0.9030 -0.9343 0.0000
vt -0.7025 -0.3402 0.0000
vt -0.8696 -0.5741 0.0000
vt -0.6179 -1.0212 0.0000
vt -0.6168 -0.3306 0.0000
vt -0.5157 -0.4014 0.0000
vt -0.2659 -0.2362 0.0000
vt -0.0523 -1.0236 0.0000
vt -0.0112 -0.2848 0.0000
vt 0.1051 -0.4216 0.0000
vt 0.0479 -0.2224 0.0000
vt 0.1027 -0.7041 0.0000
vt -0.5784 -1.1052 0.0000
vt -0.0483 -1.1028 0.0000
vt 1.0584 -1.1028 0.0000
vt 1.0398 -1.0236 0.0000
vt 0.9706 -1.1052 0.0000
vt 0.9310 -1.0212 0.0000
vt 0.8567 -1.0439 0.0000
vt 0.8632 -1.1257 0.0000
vt 0.3154 -1.0236 0.0000
vt 0.3115 -1.1028 0.0000
vt 0.5290 -0.2362 0.0000
vt 0.2744 -0.2848 0.0000
vt 0.2152 -0.2224 0.0000
vt 0.1605 -0.7041 0.0000
vt 0.1580 -0.4216 0.0000
vt 0.7789 -0.4014 0.0000
vt 0.8640 -0.3306 0.0000
vt 0.9322 -0.3402 0.0000
vt 1.1248 -0.9343 0.0000
vt 1.0914 -0.5741 0.0000
vt -1.2365 0.7558 0.0000
vt -1.1472 0.7558 0.0000
vt -1.2365 0.8208 0.0000
vt -1.1460 0.8208 0.0000
vt -0.7915 0.8208 0.0000
vt -0.7926 0.7558 0.0000
vt -0.4780 0.8208 0.0000
vt -0.4791 0.7558 0.0000
vt -0.2575 0.8208 0.0000
vt -0.2575 0.7558 0.0000
vt 1.4276 0.7558 0.0000
vt 1.4276 0.8208 0.0000
vt 1.3384 0.7558 0.0000
vt 1.3370 0.8208 0.0000
vt 0.5792 0.8208 0.0000
vt 0.5792 0.7558 0.0000
vt 0.8383 0.8208 0.0000
vt 0.8397 0.7558 0.0000
vt 1.2379 0.8208 0.0000
vt 1.2394 0.7558 0.0000
vt 0.4640 0.7558 0.0000
vt 0.4640 0.8208 0.0000
vt 0.3716 0.7558 0.0000
vt 0.3716 0.8208 0.0000
vt 0.0941 0.7558 0.0000
vt 0.0941 0.8208 0.0000
vt -0.1882 0.7558 0.0000
vt -0.1882 0.8208 0.0000
# 64 texture coords

g cpz_glass_tn1_glasstube
usemtl Standardmaterial
s 1
f 107/174/107 108/175/108 109/176/109 
s 2
f 108/175/108 110/177/110 109/176/109 
s 3
f 109/176/109 110/177/110 111/178/111 
s 4
f 110/177/110 112/179/112 111/178/111 
s 5
f 111/178/111 112/179/112 113/180/111 
s 6
f 110/177/110 114/181/113 112/179/112 
s 7
f 112/179/112 114/181/113 115/182/114 
s 8
f 115/182/115 114/181/113 116/183/115 
s 9
f 116/183/115 114/181/113 117/184/115 
s 10
f 114/181/113 118/185/116 117/184/115 
s 11
f 117/184/115 118/185/116 119/186/115 
s 12
f 118/185/116 120/187/115 119/186/115 
s 13
f 119/186/115 120/187/115 121/188/115 
s 14
f 118/185/116 122/189/115 120/187/115 
s 15
f 110/177/110 108/175/108 114/181/113 
s 16
f 108/175/117 123/190/118 114/181/113 
s 17
f 114/181/113 123/190/118 118/185/116 
s 18
f 123/190/118 124/191/119 118/185/116 
s 19
f 125/192/120 126/193/121 127/194/122 
s 20
f 126/193/121 128/195/123 127/194/122 
s 21
f 128/195/123 129/196/124 127/194/122 
s 22
f 127/194/122 129/196/124 130/197/125 
s 23
f 129/196/124 131/198/126 130/197/125 
s 24
f 130/197/125 131/198/126 132/199/127 
s 25
f 129/196/124 133/200/128 131/198/126 
s 26
f 133/200/128 134/201/128 131/198/126 
s 27
f 134/201/128 135/202/128 131/198/126 
s 28
f 131/198/126 135/202/128 136/203/128 
s 29
f 135/202/128 137/204/128 136/203/128 
s 30
f 133/200/128 129/196/124 138/205/128 
s 31
f 138/205/128 129/196/124 139/206/128 
s 32
f 139/206/129 129/196/124 140/207/130 
s 33
f 129/196/124 128/195/123 140/207/130 
s 34
f 128/195/123 141/208/131 140/207/130 
s 35
f 140/207/130 141/208/131 142/209/131 
s 36
f 141/208/131 128/195/123 126/193/121 
s 37
f 132/210/132 131/211/133 124/212/132 
s 38
f 124/212/132 131/211/133 118/213/134 
s 39
f 118/213/134 131/211/133 122/214/135 
s 40
f 131/211/133 136/215/135 122/214/135 
s 41
f 122/214/135 136/215/135 120/216/136 
s 42
f 136/215/135 137/217/137 120/216/136 
s 43
f 120/216/136 137/217/137 121/218/138 
s 44
f 137/217/137 135/219/138 121/218/138 
s 45
f 125/220/139 107/221/139 126/222/139 
s 46
f 126/222/139 107/221/139 109/223/139 
s 47
f 112/224/140 140/225/141 113/226/142 
s 48
f 140/225/141 142/227/143 113/226/142 
s 49
f 113/226/142 142/227/143 111/228/144 
s 50
f 142/227/143 141/229/144 111/228/144 
s 51
f 140/225/145 112/224/146 139/230/147 
s 52
f 112/224/146 115/231/148 139/230/147 
s 53
f 139/230/147 115/231/148 138/232/149 
s 54
f 115/231/148 116/233/150 138/232/149 
s 55
f 138/232/151 116/233/151 133/234/152 
s 56
f 116/233/151 117/235/152 133/234/152 
s 57
f 133/234/152 117/235/152 134/236/153 
s 58
f 117/235/152 119/237/153 134/236/153 
s 59
f 134/236/154 119/237/154 135/219/154 
s 60
f 135/219/154 119/237/154 121/218/155 
s 61
f 126/222/156 109/223/156 141/229/156 
s 62
f 141/229/156 109/223/156 111/228/156 
# 0 polygons - 62 triangles

