# 3ds Max Wavefront OBJ Exporter v0.97b - (c)2007 guruware
# File Created: 27.12.2011 02:33:14

mtllib cpz_obj_breakbox_brk_004.mtl

#
# object cpz_obj_breakbox_brk_004
#

v  0.3600 -0.0180 0.0180
v  0.3600 -0.0180 -0.0180
v  0.3600 0.0180 -0.0180
v  0.3600 0.0180 0.0180
v  0.1800 0.1800 0.1800
v  0.1800 0.1800 -0.1800
v  0.1800 -0.1800 0.1800
v  0.1800 -0.1800 -0.1800
v  0.0000 0.0000 -0.0000
# 9 vertices

vn 1.0000 0.0000 -0.0000
vn 0.6690 0.7433 -0.0000
vn 0.6690 0.0000 0.7433
vn 0.6690 0.0000 -0.7433
vn 0.6690 -0.7433 -0.0000
vn -0.7071 0.0000 0.7071
vn -0.7071 0.7071 -0.0000
vn -0.7071 0.0000 -0.7071
vn -0.7071 -0.7071 -0.0000
# 9 vertex normals

g cpz_obj_breakbox_brk_004
usemtl wire_255255000
s 1
f 1//1 2//1 3//1 4//1 
s 2
f 5//2 4//2 3//2 6//2 
s 4
f 7//3 1//3 4//3 5//3 
s 8
f 2//4 8//4 6//4 3//4 
s 16
f 1//5 7//5 8//5 2//5 
s 32
f 9//6 7//6 5//6 
s 64
f 9//7 5//7 6//7 
s 128
f 9//8 6//8 8//8 
s 256
f 9//9 8//9 7//9 
# 5 polygons - 4 triangles

#
# object cpz_metal_yy_slop_cmn_dpn
#

v  33.7060 69.5951 -35.9566
v  33.7060 71.8864 -33.6652
v  35.9973 69.5951 -33.6652
v  15.7381 69.5951 -35.9566
v  33.7060 51.6272 -35.9566
v  33.7060 71.8864 -15.6973
v  15.7381 71.8864 -33.6652
v  35.9973 51.6272 -33.6652
v  35.9973 69.5951 -15.6973
v  33.3174 66.9151 -13.0174
v  31.0260 69.2065 -13.0174
v  13.0581 69.2065 -30.9853
v  33.3174 48.9472 -30.9853
v  31.0260 48.9472 -33.2766
v  31.6089 69.6918 -6.6013
v  33.6265 64.9410 -6.4616
v  33.6265 67.5318 -6.2212
v  24.6982 60.1378 -14.1258
v  27.7943 60.1378 -15.9440
v  29.5393 65.2869 -15.8751
v  31.8987 54.2078 -16.0558
v  30.5172 52.4571 -17.6891
v  33.2803 52.5351 -17.7670
v  6.8951 45.0889 -31.8781
v  8.5990 43.3886 -33.2679
v  8.5990 43.3886 -30.4883
v  13.0581 66.9151 -33.2766
v  9.4570 60.1378 -27.7943
v  27.7943 60.1378 -27.7943
v  17.3384 60.1378 -24.7088
v  20.9948 60.1378 -20.9948
v  24.6916 60.1378 -17.2397
v  33.6265 64.9410 -33.6265
v  33.6265 67.5318 -33.6265
v  31.6089 69.6918 -31.6089
v  29.7200 64.9410 -15.7117
v  14.7773 64.9410 -29.3520
v  9.9034 64.9410 -33.6265
v  10.3411 64.9410 -30.5648
v  26.9049 69.6918 -15.3047
v  15.4500 69.6918 -26.7509
v  10.4565 69.6918 -28.0891
v  9.3931 69.6918 -31.6089
v  9.9045 67.5318 -33.6265
v  10.5263 65.2391 -30.4123
v  14.7678 65.2869 -29.4080
v  25.3003 65.2869 -19.8735
v  27.5386 46.4576 -32.1814
v  31.3469 45.2720 -34.2451
v  32.2193 46.4576 -27.5007
v  34.2830 45.2720 -31.3091
# 51 vertices

vn 0.5774 0.5774 -0.5774
vn 0.0000 0.0000 -1.0000
vn 0.0000 1.0000 -0.0000
vn 1.0000 0.0000 -0.0000
vn -0.5774 -0.5773 0.5774
vn -0.5774 -0.5773 0.5773
vn -0.2754 -0.0888 0.9572
vn 0.4981 -0.1802 0.8482
vn 0.0399 -0.6982 0.7147
vn -0.7064 -0.7079 -0.0000
vn 0.7071 0.0000 -0.7071
vn 0.0000 0.7071 -0.7071
vn 0.7071 0.7071 -0.0000
vn 0.4082 -0.8165 -0.4082
vn -0.4082 -0.4082 -0.8165
vn -0.8165 0.4082 -0.4082
vn -0.4082 0.8165 0.4082
vn 0.4082 0.4082 0.8165
vn 0.8165 -0.4082 0.4082
vn -0.5774 -0.5774 0.5774
vn 0.0000 -1.0000 -0.0000
vn 0.7308 0.6826 -0.0000
vn 0.0000 0.6826 -0.7308
vn -0.2362 -0.4445 0.8640
vn -0.4032 -0.3962 0.8249
vn -0.2340 -0.4429 0.8655
vn -0.4932 -0.3752 0.7849
vn -0.7394 -0.4359 0.5130
vn -0.6984 -0.4608 0.5476
vn -0.8349 -0.3977 0.3805
vn -0.8612 -0.3550 0.3637
vn -0.9899 0.0004 0.1415
vn -0.9842 -0.1088 0.1398
vn -0.9910 -0.1300 0.0313
vn -0.9748 -0.1604 0.1551
vn -0.9496 -0.1264 0.2869
vn -0.2072 0.4807 0.8521
vn -0.2664 0.5276 0.8066
vn -0.3261 0.4985 0.8032
vn -0.5866 0.3663 0.7223
vn -0.6381 0.3698 0.6753
vn -0.6232 0.3712 0.6884
vn -0.6305 0.3798 0.6769
vn -0.7077 0.5272 0.4703
vn -0.7150 0.5636 0.4136
vn -0.7283 0.6853 0.0015
vn -0.1941 -0.9616 0.1941
# 47 vertex normals

vt 0.5924 -0.1578 0.0000
vt 0.5298 -0.1939 0.0000
vt 0.5924 -0.2300 0.0000
vt 0.6008 -0.9956 0.0000
vt 1.0012 -0.9956 0.0000
vt 1.0012 -0.6018 0.0000
vt 1.6006 0.0063 0.0000
vt 2.0010 0.0063 0.0000
vt 2.0010 0.4015 0.0000
vt 1.5996 -0.9956 0.0000
vt 2.0000 -0.9956 0.0000
vt 2.0000 -0.5992 0.0000
vt -0.4085 -0.1830 0.0000
vt -0.3947 -0.2041 0.0000
vt -0.1774 -0.2041 0.0000
vt -0.2999 -0.0178 0.0000
vt -0.2722 -0.0178 0.0000
vt 0.3480 -0.8357 0.0000
vt 0.2265 -0.7535 0.0000
vt 0.2659 -0.8160 0.0000
vt 0.9560 -0.2297 0.0000
vt 0.9677 -0.1147 0.0000
vt 0.7841 -0.0288 0.0000
vt 0.5299 0.4241 0.0000
vt 0.4293 0.4023 0.0000
vt 0.5300 0.3240 0.0000
vt 0.3538 0.4026 0.0000
vt 0.2896 0.3240 0.0000
vt 0.4180 0.3240 0.0000
vt 2.0000 -1.0573 0.0000
vt 1.5996 -1.0573 0.0000
vt 1.0012 -1.0573 0.0000
vt 0.6008 -1.0573 0.0000
vt 2.0010 -0.0553 0.0000
vt 1.6006 -0.0553 0.0000
vt 1.5151 -1.0573 0.0000
vt 1.5151 -0.9956 0.0000
vt 0.5410 -0.9425 0.0000
vt 0.9415 -0.5421 0.0000
vt 0.5163 -1.0573 0.0000
vt 0.5163 -0.9956 0.0000
vt 1.5408 0.0608 0.0000
vt 1.9413 0.4612 0.0000
vt 1.5161 -0.0553 0.0000
vt 1.5161 0.0063 0.0000
vt 1.5398 -0.9399 0.0000
vt 1.9403 -0.5394 0.0000
vt -0.1636 -0.1830 0.0000
vt 0.8188 -1.6353 0.0000
vt 0.9883 -1.4605 0.0000
vt 0.9202 -1.5896 0.0000
vt 0.9884 -1.5901 0.0000
vt 0.8787 -1.5734 0.0000
vt 0.9194 -1.5907 0.0000
vt 0.8906 -1.6203 0.0000
vt 1.4102 -0.9079 0.0000
vt 1.3525 -0.9079 0.0000
vt 1.4102 -0.5464 0.0000
vt 1.3525 -0.5428 0.0000
vt 1.3044 -0.9079 0.0000
vt 1.3044 -0.5535 0.0000
vt -0.0962 -0.3465 0.0000
vt -0.1302 -0.4251 0.0000
vt -0.0962 -0.5772 0.0000
vt -0.2605 -0.5409 0.0000
vt -0.3030 -0.5772 0.0000
vt -0.2992 -0.5512 0.0000
vt 0.8882 -0.2418 0.0000
vt 0.8882 -0.0132 0.0000
vt 0.8452 -0.1622 0.0000
vt 0.7405 -0.0576 0.0000
vt 0.6949 -0.0453 0.0000
vt 0.6851 -0.0132 0.0000
vt 1.3525 -0.5919 0.0000
vt 1.3044 -0.5930 0.0000
vt 1.4102 -0.5918 0.0000
vt 0.8265 -0.1209 0.0000
vt 0.7122 -0.1921 0.0000
vt 0.8896 -0.2646 0.0000
vt 0.7609 -0.3443 0.0000
vt 0.3281 -0.5721 0.0000
vt 0.4666 -0.6501 0.0000
vt 0.8827 -0.0510 0.0000
vt 0.9418 -0.0985 0.0000
vt 0.9541 -0.1842 0.0000
vt 0.2760 -0.7194 0.0000
vt 0.4652 -0.8206 0.0000
vt 0.3384 -0.5705 0.0000
vt 0.6126 -0.5435 0.0000
vt 0.7311 -0.4093 0.0000
vt 0.6540 -0.1869 0.0000
vt 0.8520 -0.2778 0.0000
vt 0.2896 0.3095 0.0000
vt 0.3503 0.1190 0.0000
vt 0.5952 0.3155 0.0000
vt 0.5420 0.1227 0.0000
# 96 texture coords

g cpz_metal_yy_slop_cmn_dpn
usemtl Standardmaterial
s 1
f 10/1/10 11/2/10 12/3/10 
s 2
f 13/4/11 10/5/11 14/6/11 
s 3
f 15/7/12 11/8/12 16/9/12 
s 4
f 17/10/13 12/11/13 18/12/13 
s 5
f 19/13/14 20/14/14 21/15/14 
s 6
f 22/16/15 19/13/15 23/17/15 
s 7
f 24/18/16 25/19/16 26/20/16 
s 8
f 27/21/17 28/22/17 29/23/17 
s 9
f 30/24/18 31/25/18 32/26/18 
s 10
f 33/27/19 34/28/19 35/29/19 
s 11
f 12/11/20 17/10/20 10/30/20 
s 12
f 10/30/20 17/10/20 14/31/20 
s 13
f 10/5/21 13/4/21 11/32/21 
s 14
f 11/32/21 13/4/21 16/33/21 
s 15
f 11/8/22 15/7/22 12/34/22 
s 16
f 12/34/22 15/7/22 18/35/22 
s 17
f 23/36/23 14/31/23 22/37/23 
s 18
f 22/37/23 14/31/23 17/10/23 
s 19
f 36/38/24 13/4/24 23/39/24 
s 20
f 23/39/24 13/4/24 14/6/24 
s 21
f 21/40/25 16/33/25 36/41/25 
s 22
f 36/41/25 16/33/25 13/4/25 
s 23
f 20/42/26 15/7/26 21/43/26 
s 24
f 21/43/26 15/7/26 16/9/26 
s 25
f 19/44/27 18/35/27 20/45/27 
s 26
f 20/45/27 18/35/27 15/7/27 
s 27
f 22/46/28 17/10/28 19/47/28 
s 28
f 19/47/28 17/10/28 18/12/28 
s 29
f 36/48/29 23/17/29 21/15/29 
s 30
f 21/15/29 23/17/29 19/13/29 
s 31
f 37/49/30 38/50/30 39/51/30 
s 32
f 39/51/30 38/50/30 40/52/30 
s 33
f 38/50/30 28/53/30 40/52/30 
s 34
f 40/52/30 28/53/30 41/54/30 
s 35
f 28/53/30 27/55/30 41/54/30 
s 36
f 42/56/13 43/57/13 25/58/13 
s 37
f 25/58/13 43/57/13 26/59/13 
s 38
f 43/57/31 44/60/31 26/59/31 
s 39
f 26/59/31 44/60/31 24/61/31 
s 40
f 25/62/30 45/63/30 42/64/30 
s 41
f 45/63/30 46/65/30 42/64/30 
s 42
f 42/64/30 46/65/30 47/66/30 
s 43
f 46/65/30 48/67/30 47/66/30 
s 44
f 24/68/12 44/69/12 49/70/12 
s 45
f 49/70/12 44/69/12 50/71/12 
s 46
f 50/71/12 44/69/12 51/72/12 
s 47
f 44/69/12 52/73/12 51/72/12 
s 48
f 43/57/32 53/74/32 44/60/32 
s 49
f 44/60/32 53/74/32 52/75/32 
s 50
f 42/56/11 47/76/11 43/57/11 
s 51
f 43/57/11 47/76/11 53/74/11 
s 52
f 48/77/33 46/78/34 51/79/35 
s 53
f 51/79/35 46/78/34 50/80/36 
s 54
f 46/78/34 45/81/37 50/80/36 
s 55
f 50/80/36 45/81/37 49/82/38 
s 56
f 49/82/38 45/81/37 24/18/39 
s 57
f 45/81/37 25/19/40 24/18/39 
s 58
f 47/83/41 48/77/42 53/84/43 
s 59
f 53/84/43 48/77/42 52/85/44 
s 60
f 48/77/42 51/79/45 52/85/44 
s 61
f 54/86/46 37/87/47 55/88/48 
s 62
f 37/87/47 39/89/49 55/88/48 
s 63
f 39/89/49 40/90/50 55/88/48 
s 64
f 55/88/51 40/90/50 56/91/52 
s 65
f 56/91/52 40/90/50 29/23/53 
s 66
f 40/90/50 41/92/54 29/23/53 
s 67
f 29/23/53 41/92/54 27/21/55 
s 68
f 57/93/56 58/94/56 59/95/56 
s 69
f 59/95/56 58/94/56 60/96/56 
# 0 polygons - 69 triangles

#
# object ccp_metal_yy_yelow_Cmn_dpn
#

v  9.2937 60.1378 -31.3943
v  9.7408 64.9168 -31.3943
v  31.3943 60.1378 -31.3943
v  31.3943 64.9168 -31.3943
v  31.3943 60.1378 -14.4750
v  27.7943 60.1378 -27.7943
v  27.7943 60.1378 -15.9440
v  31.3943 64.9168 -12.1664
v  9.4570 60.1378 -27.7943
v  29.5393 65.2869 -15.8751
v  10.5263 65.2391 -30.4123
# 11 vertices

vn 0.0000 0.0000 -1.0000
vn 0.0000 -1.0000 -0.0000
vn 1.0000 0.0000 -0.0000
vn -0.3449 -0.4083 0.8452
vn -0.7295 0.0090 0.6839
vn -0.6331 -0.1267 0.7636
vn -0.8468 0.2810 0.4516
vn -0.9730 0.2266 0.0441
vn -0.9023 0.1395 0.4080
vn -0.9693 0.2094 0.1291
vn -0.7905 0.0740 0.6080
# 11 vertex normals

vt 6.2926 -0.2879 0.0000
vt 6.3065 -0.5345 0.0000
vt 6.9960 -0.2879 0.0000
vt 6.9955 -0.5345 0.0000
vt -0.9964 -0.2878 0.0000
vt -0.4579 -0.2878 0.0000
vt -0.8822 -0.1762 0.0000
vt -0.5049 -0.1762 0.0000
vt -0.9960 -0.5345 0.0000
vt -0.3841 -0.5345 0.0000
vt 6.8818 -0.1762 0.0000
vt 6.2979 -0.1762 0.0000
vt -0.3553 -0.2861 0.0000
vt -0.3149 -0.5332 0.0000
vt 6.2441 -0.2878 0.0000
vt 6.2403 -0.5407 0.0000
# 16 texture coords

g ccp_metal_yy_yelow_Cmn_dpn
usemtl Standardmaterial
s 1
f 61/97/57 62/98/57 63/99/57 
s 2
f 63/99/57 62/98/57 64/100/57 
s 3
f 63/101/58 65/102/58 66/103/58 
s 4
f 66/103/58 65/102/58 67/104/58 
s 5
f 63/101/59 64/105/59 65/102/59 
s 6
f 65/102/59 64/105/59 68/106/59 
s 7
f 63/99/58 66/107/58 61/97/58 
s 8
f 61/97/58 66/107/58 69/108/58 
s 9
f 65/102/60 68/106/61 67/109/62 
s 10
f 67/109/62 68/106/61 70/110/63 
s 11
f 69/111/64 71/112/65 61/97/66 
s 12
f 61/97/66 71/112/65 62/98/67 
# 0 polygons - 12 triangles

#
# object cpz_yy1_road_cmn_dp
#

v  34.2830 45.2720 -31.3091
v  31.3469 45.2720 -34.2451
v  34.2830 63.9296 -31.3091
v  31.3469 63.9296 -34.2451
v  27.5386 46.4576 -32.1814
v  27.5386 67.4864 -32.1814
v  32.2193 46.4576 -27.5007
v  32.2193 67.4864 -27.5007
v  31.9133 66.3107 -28.1433
v  31.8987 54.2078 -16.0558
v  33.2948 64.6185 -29.8350
v  33.2803 52.5351 -17.7670
v  30.5318 64.6170 -29.8335
v  30.5172 52.4571 -17.6891
v  28.1186 66.2627 -31.8781
v  6.8951 45.0889 -31.8781
v  29.8226 64.5624 -30.4883
v  8.5990 43.3886 -30.4883
v  29.8226 64.5624 -33.2679
v  8.5990 43.3886 -33.2679
# 20 vertices

vn 0.7071 0.0000 -0.7071
vn -0.4764 0.0000 -0.8792
vn 0.8792 0.0000 0.4764
vn 0.8660 0.3528 0.3543
vn -0.0000 -0.7067 -0.7076
vn -0.3531 0.3540 0.8660
vn 0.7063 -0.7079 0.0000
vn 0.7063 -0.7079 -0.0000
vn -0.3531 0.3540 -0.8660
vn -0.7071 0.0000 0.7071
vn -0.8660 0.3538 0.3533
# 11 vertex normals

vt 0.6641 0.4229 0.0000
vt 0.6641 0.3348 0.0000
vt 0.3182 0.4229 0.0000
vt 0.3182 0.3348 0.0000
vt 0.2593 0.4229 0.0000
vt 0.2593 0.3348 0.0000
vt 1.3838 -1.2785 0.0000
vt 1.3838 -0.9953 0.0000
vt 1.3483 -1.2785 0.0000
vt 1.3483 -0.9958 0.0000
vt 1.3839 -1.2785 0.0000
vt 1.3839 -0.9940 0.0000
vt 1.3839 -1.2769 0.0000
vt 1.3837 -0.7817 0.0000
vt 1.3482 -1.2769 0.0000
vt 1.3482 -0.7817 0.0000
vt 1.3839 -0.7817 0.0000
vt 1.3483 -1.2769 0.0000
vt 1.3482 -1.2785 0.0000
vt 1.3482 -0.9940 0.0000
# 20 texture coords

g cpz_yy1_road_cmn_dp
usemtl Standardmaterial
s 1
f 72/113/68 73/114/68 74/115/68 
s 2
f 74/115/68 73/114/68 75/116/68 
s 3
f 73/114/69 76/113/69 75/116/69 
s 4
f 75/116/69 76/113/69 77/117/69 
s 5
f 72/113/70 74/115/70 78/114/70 
s 6
f 78/114/70 74/115/70 79/118/70 
s 7
f 80/119/71 81/120/71 82/121/71 
s 8
f 82/121/71 81/120/71 83/122/71 
s 9
f 82/121/72 83/122/72 84/123/72 
s 10
f 84/123/72 83/122/72 85/124/72 
s 11
f 86/125/73 87/126/73 88/127/73 
s 12
f 88/127/73 87/126/73 89/128/73 
s 13
f 88/125/74 89/129/74 90/130/74 
s 14
f 90/130/74 89/129/74 91/128/75 
s 15
f 90/130/76 91/128/76 86/125/76 
s 16
f 86/125/76 91/128/76 87/126/76 
s 17
f 76/113/77 78/114/77 77/117/77 
s 18
f 77/117/77 78/114/77 79/118/77 
s 19
f 80/119/78 84/131/78 81/120/78 
s 20
f 81/120/78 84/131/78 85/132/78 
# 0 polygons - 20 triangles

#
# object cpz_glass_tn1_glasstube
#

v  8.7328 62.0579 -25.9767
v  21.9763 62.0579 -25.9767
v  8.5396 58.0403 -28.2118
v  23.8672 58.0403 -28.2118
v  11.8605 43.9723 -28.2118
v  4.7416 52.6002 -28.2118
v  23.8672 49.2044 -28.2118
v  28.2118 52.2592 -23.8672
v  28.2118 58.0403 -23.8672
v  28.2118 46.1319 -19.2331
v  28.2118 58.0403 -13.0757
v  28.2118 51.5292 -9.3880
v  25.9767 62.0579 -21.9763
v  25.9767 62.0579 -13.1890
v  9.1496 62.0579 -24.5300
v  8.9664 58.0403 -26.7652
v  21.4646 62.0579 -24.7297
v  23.2566 58.0403 -26.8492
v  26.8303 58.0403 -23.4740
v  24.5951 62.0579 -21.6808
v  26.8303 58.0403 -12.7086
v  24.5951 62.0579 -12.8161
v  26.8303 46.1319 -18.5475
v  26.8303 51.5292 -9.2117
v  26.8303 52.2592 -23.4740
v  23.2566 49.2044 -26.8492
v  12.1136 43.9723 -26.7652
v  5.3673 52.6002 -26.7652
# 28 vertices

vn 0.0000 0.4862 -0.8739
vn 0.2738 0.5628 -0.7800
vn -0.0000 0.2677 -0.9635
vn 0.3807 0.2821 -0.8806
vn -0.0000 -0.0000 -1.0000
vn 0.0000 0.0000 -1.0000
vn 0.2728 0.0000 -0.9621
vn 0.7071 0.0000 -0.7071
vn 0.8806 0.2821 -0.3807
vn 1.0000 0.0000 -0.0000
vn 0.9769 0.2136 -0.0000
vn 0.7800 0.5628 -0.2738
vn 0.8739 0.4862 -0.0000
vn 0.0142 -0.4866 0.8735
vn 0.0074 -0.2061 0.9785
vn -0.2671 -0.5453 0.7945
vn -0.3667 -0.2709 0.8900
vn -0.8775 -0.2775 0.3911
vn -0.7785 -0.5598 0.2839
vn -0.9766 -0.2151 -0.0000
vn -0.8739 -0.4862 -0.0000
vn -1.0000 0.0000 -0.0000
vn -0.9304 0.0000 0.3665
vn -0.2408 0.0000 0.9706
vn 0.0049 0.0007 1.0000
vn 0.0000 0.0000 1.0000
vn -0.9551 -0.1095 0.2752
vn -0.9548 -0.1097 0.2761
vn -0.9468 0.1607 0.2787
vn -0.9204 0.2812 0.2716
vn -0.8098 0.5358 0.2390
vn -0.7728 0.5395 0.3342
vn 0.2569 0.1684 0.9517
vn 0.2385 0.3129 0.9194
vn 0.2563 0.1683 0.9518
vn 0.2405 0.3506 0.9051
vn 0.1252 0.4717 0.8728
vn 0.1117 0.4702 0.8755
vn -0.2214 -0.5882 -0.7778
vn -0.3469 -0.5854 -0.7328
vn -0.2373 -0.5885 -0.7729
vn -0.3607 -0.5844 -0.7269
vn 0.2320 -0.8529 0.4676
vn 0.0771 -0.8640 0.4975
vn 0.2212 -0.8544 0.4701
vn 0.0638 -0.8640 0.4995
vn 0.1354 -0.8691 0.4757
vn 0.1778 -0.8740 0.4523
vn 0.4223 -0.8783 0.2242
vn 0.4484 -0.8728 0.1929
vn 0.4220 -0.9049 -0.0547
vn 0.4234 -0.9029 -0.0741
vn -0.7317 -0.6037 0.3165
vn -0.7774 -0.6105 0.1517
vn -0.7362 -0.6049 0.3035
vn -0.7804 -0.6102 0.1365
vn 0.0000 1.0000 -0.0000
# 57 vertex normals

vt 0.3319 -0.0000 0.0000
vt 0.0770 -0.0000 0.0000
vt 0.3487 -0.0769 0.0000
vt 0.0770 -0.0769 0.0000
vt 0.2898 -0.3463 0.0000
vt 0.4160 -0.1811 0.0000
vt 0.0770 -0.2461 0.0000
vt 0.9230 -0.1876 0.0000
vt 0.9230 -0.0769 0.0000
vt 0.8409 -0.3049 0.0000
vt 0.7317 -0.0769 0.0000
vt 0.6664 -0.2016 0.0000
vt 0.9230 -0.0000 0.0000
vt 0.7539 -0.0000 0.0000
vt 3.7825 -0.9655 0.0000
vt 3.7825 -0.7744 0.0000
vt 3.4559 -0.9655 0.0000
vt 3.4559 -0.7744 0.0000
vt 3.0137 -0.9655 0.0000
vt 3.0137 -0.7744 0.0000
vt -1.1497 -0.9655 0.0000
vt -0.7967 -0.9655 0.0000
vt -1.1497 -0.7744 0.0000
vt -0.7967 -0.7744 0.0000
vt -0.2568 -0.7744 0.0000
vt -0.2568 -0.9655 0.0000
vt 1.0168 -0.7744 0.0000
vt 0.4941 -0.7744 0.0000
vt 1.0168 -0.9655 0.0000
vt 0.4941 -0.9655 0.0000
vt 1.3901 -0.7744 0.0000
vt 1.4132 -0.9655 0.0000
vt 2.3123 -0.7744 0.0000
vt 2.3123 -0.9655 0.0000
vt 4.8230 -0.7744 0.0000
vt 4.8230 -0.9655 0.0000
vt -1.9006 -0.9655 0.0000
vt -1.9006 -0.7744 0.0000
# 38 texture coords

g cpz_glass_tn1_glasstube
usemtl Standardmaterial
s 1
f 92/133/79 93/134/80 94/135/81 
s 2
f 93/134/80 95/136/82 94/135/81 
s 3
f 95/136/82 96/137/83 94/135/81 
s 4
f 94/135/84 96/137/83 97/138/84 
s 5
f 96/137/83 95/136/82 98/139/85 
s 6
f 98/139/85 95/136/82 99/140/86 
s 7
f 95/136/82 100/141/87 99/140/86 
s 8
f 99/140/88 100/141/87 101/142/88 
s 9
f 100/141/87 102/143/89 101/142/88 
s 10
f 101/142/88 102/143/89 103/144/88 
s 11
f 100/141/87 104/145/90 102/143/89 
s 12
f 102/143/89 104/145/90 105/146/91 
s 13
f 104/145/90 100/141/87 93/134/80 
s 14
f 93/134/80 100/141/87 95/136/82 
s 15
f 106/133/92 107/135/93 108/134/94 
s 16
f 107/135/93 109/136/95 108/134/94 
s 17
f 109/136/95 110/141/96 108/134/94 
s 18
f 108/134/94 110/141/96 111/145/97 
s 19
f 110/141/96 112/143/98 111/145/97 
s 20
f 111/145/97 112/143/98 113/146/99 
s 21
f 110/141/96 114/142/100 112/143/98 
s 22
f 112/143/98 114/142/100 115/144/100 
s 23
f 114/142/100 110/141/96 116/140/101 
s 24
f 110/141/96 109/136/95 116/140/101 
s 25
f 116/140/101 109/136/95 117/139/102 
s 26
f 117/139/102 109/136/95 118/137/103 
s 27
f 109/136/95 107/135/93 118/137/103 
s 28
f 118/137/103 107/135/93 119/138/104 
s 29
f 106/147/105 92/148/106 107/149/107 
s 30
f 92/148/106 94/150/108 107/149/107 
s 31
f 107/149/107 94/150/108 119/151/109 
s 32
f 94/150/110 97/152/110 119/151/110 
s 33
f 113/153/111 112/154/112 105/155/113 
s 34
f 105/155/113 112/154/112 102/156/114 
s 35
f 102/156/114 112/154/112 103/157/115 
s 36
f 112/154/112 115/158/116 103/157/115 
s 37
f 99/159/117 101/160/118 116/161/119 
s 38
f 116/161/119 101/160/118 114/162/120 
s 39
f 101/160/121 103/157/122 114/162/123 
s 40
f 114/162/123 103/157/122 115/158/124 
s 41
f 99/159/125 116/161/126 98/163/127 
s 42
f 116/161/126 117/164/128 98/163/127 
s 43
f 98/163/127 117/164/128 96/165/129 
s 44
f 117/164/128 118/166/130 96/165/129 
s 45
f 97/152/131 96/165/132 119/151/133 
s 46
f 119/151/133 96/165/132 118/166/134 
s 47
f 93/167/135 92/148/135 108/168/135 
s 48
f 108/168/135 92/148/135 106/147/135 
s 49
f 113/153/135 105/155/135 111/169/135 
s 50
f 111/169/135 105/155/135 104/170/135 
# 0 polygons - 50 triangles

