# 3ds Max Wavefront OBJ Exporter v0.97b - (c)2007 guruware
# File Created: 27.12.2011 14:41:20

mtllib cpz_obj_pipelinecapA_brk_016.mtl

#
# object cpz_obj_pipelinecapA_brk_016
#

v  0.3572 -0.0188 0.0192
v  0.3572 -0.0188 -0.0168
v  0.3572 0.0172 -0.0168
v  0.3572 0.0172 0.0192
v  0.1772 0.1792 0.1812
v  0.1772 0.1792 -0.1788
v  0.1772 -0.1808 0.1812
v  0.1772 -0.1808 -0.1788
v  -0.0028 -0.0008 0.0012
# 9 vertices

vn 1.0000 0.0000 -0.0000
vn 0.6690 0.7433 -0.0000
vn 0.6690 0.0000 0.7433
vn 0.6690 0.0000 -0.7433
vn 0.6690 -0.7433 -0.0000
vn -0.7071 0.0000 0.7071
vn -0.7071 0.7071 -0.0000
vn -0.7071 0.0000 -0.7071
vn -0.7071 -0.7071 -0.0000
# 9 vertex normals

g cpz_obj_pipelinecapA_brk_016
usemtl wire_255255000
s 1
f 1//1 2//1 3//1 4//1 
s 2
f 5//2 4//2 3//2 6//2 
s 4
f 7//3 1//3 4//3 5//3 
s 8
f 2//4 8//4 6//4 3//4 
s 16
f 1//5 7//5 8//5 2//5 
s 32
f 9//6 7//6 5//6 
s 64
f 9//7 5//7 6//7 
s 128
f 9//8 6//8 8//8 
s 256
f 9//9 8//9 7//9 
# 5 polygons - 4 triangles

#
# object ccp_metal_yy_gray02_Lumin_dpnE
#

v  -12.5781 19.8374 20.5146
v  -12.5781 16.9726 20.5146
v  -9.2944 19.8374 22.7087
v  -9.2944 16.9726 22.7087
v  -6.6236 16.9726 23.2400
v  -6.6236 19.8374 23.2400
# 6 vertices

vn -0.5556 0.0000 0.8315
vn -0.1951 0.0000 0.9808
# 2 vertex normals

vt 0.0829 -0.9964 0.0000
vt 0.0829 -0.9218 0.0000
vt 0.0064 -0.9964 0.0000
vt 0.0064 -0.9218 0.0000
vt 1.4875 -0.3607 0.0000
vt 1.5982 -0.3607 0.0000
vt 1.4887 -0.2555 0.0000
vt 1.5993 -0.2555 0.0000
# 8 texture coords

g ccp_metal_yy_gray02_Lumin_dpnE
usemtl Standardmaterial
s 1
f 10/1/10 11/2/10 12/3/10 
s 2
f 12/3/10 11/2/10 13/4/10 
s 3
f 14/5/11 15/6/11 13/7/11 
s 4
f 13/7/11 15/6/11 12/8/11 
# 0 polygons - 4 triangles

#
# object cpz_yy1_road_cmn_dp
#

v  -5.9538 20.7126 24.0229
v  -6.6236 19.8374 23.2400
v  -5.9538 16.0974 24.0229
v  -6.6236 16.9726 23.2400
v  -9.2944 19.8374 22.7087
v  -9.5616 20.7126 23.3052
v  -12.5781 19.8374 20.5146
v  -13.6396 20.7126 20.5804
v  -13.6396 16.0974 20.5804
v  -12.5781 16.9726 20.5146
v  -14.2799 17.0507 20.1526
v  -14.2799 19.9067 20.1525
v  -9.5616 16.0974 23.3052
v  -9.2944 16.9726 22.7087
# 14 vertices

vn -0.7599 0.0000 0.6501
vn -0.1577 -0.5886 0.7929
vn -0.3049 -0.5982 0.7411
vn -0.3081 -0.5983 0.7397
vn -0.4474 -0.5929 0.6695
vn -0.1858 0.2958 0.9370
vn -0.2026 0.1006 0.9741
vn -0.2081 0.0000 0.9781
vn -0.2113 -0.1223 0.9697
vn -0.2109 -0.0985 0.9725
vn -0.2095 -0.3234 0.9228
vn -0.1577 0.5886 0.7929
vn -0.3081 0.5982 0.7397
vn -0.3049 0.5982 0.7411
vn -0.4474 0.5929 0.6695
# 15 vertex normals

vt 1.2243 0.1778 0.0000
vt 1.1724 0.1778 0.0000
vt 1.2243 -0.0473 0.0000
vt 1.1724 -0.0473 0.0000
vt 1.1724 -1.1614 0.0000
vt 1.2243 -1.1614 0.0000
vt 1.1724 -0.9883 0.0000
vt 1.2243 -0.9883 0.0000
vt 1.1695 -0.7426 0.0000
vt 1.2243 -0.7441 0.0000
vt 1.2243 -0.4646 0.0000
vt 1.1695 -0.4632 0.0000
vt 1.2243 -0.5081 0.0000
vt 1.2243 -0.7042 0.0000
vt 1.2243 -0.2205 0.0000
vt 1.1724 -0.2205 0.0000
# 16 texture coords

g cpz_yy1_road_cmn_dp
usemtl Standardmaterial
s 1
f 16/9/12 17/10/12 18/11/12 
s 2
f 18/11/12 17/10/12 19/12/12 
s 3
f 17/13/13 16/14/13 20/15/14 
s 4
f 16/14/13 21/16/15 20/15/14 
s 5
f 20/15/14 21/16/15 22/17/16 
s 6
f 21/16/15 23/18/16 22/17/16 
s 7
f 24/19/17 25/20/18 26/21/17 
s 8
f 26/21/19 25/20/18 27/22/20 
s 9
f 25/20/18 22/17/21 27/22/20 
s 10
f 27/22/20 22/17/21 23/18/22 
s 11
f 18/11/23 19/12/23 28/23/24 
s 12
f 19/12/23 29/24/25 28/23/24 
s 13
f 29/24/25 25/20/26 28/23/24 
s 14
f 28/23/24 25/20/26 24/19/26 
# 0 polygons - 14 triangles

#
# object ccp_metal_yy_gray_Cmn_dpn
#

v  -9.5616 16.0974 23.3052
v  -13.6396 16.0974 20.5804
v  -14.0596 15.6248 19.6980
v  -9.1530 15.6248 22.9765
v  -5.9538 16.0974 24.0229
v  -4.8123 15.6248 23.8399
v  -9.5616 20.7126 23.3052
v  -5.9538 20.7126 24.0229
v  -4.8123 21.1777 23.8399
v  -9.1530 21.1777 22.9765
v  -13.6396 20.7126 20.5804
v  -14.0596 21.1777 19.6980
v  -14.2799 17.0507 20.1526
v  -14.2799 19.9067 20.1525
v  -14.8300 20.2080 19.1833
v  -14.8300 16.7718 19.1833
v  -10.0762 21.1777 11.6154
v  -10.7997 20.2080 11.3507
v  -5.4681 15.6248 13.3007
v  -1.3914 15.6248 14.7916
v  -10.7997 16.7718 11.3507
v  -10.0762 15.6248 11.6154
v  -5.4681 21.1777 13.3007
v  -1.3914 21.1777 14.7916
# 24 vertices

vn -0.3815 -0.7270 0.5710
vn -0.1486 -0.6480 0.7470
vn -0.1486 -0.6481 0.7470
vn -0.1476 0.6541 0.7419
vn -0.1476 0.6540 0.7419
vn -0.3783 0.7324 0.5661
vn -0.8697 0.0000 0.4936
vn -0.7930 -0.2928 0.5343
vn -0.6512 0.6877 -0.3209
vn -0.6983 0.6191 -0.3593
vn -0.0000 -1.0000 0.0000
vn -0.8892 -0.0000 -0.4575
vn -0.8892 0.0000 -0.4575
vn -0.6934 -0.6259 -0.3568
vn -0.7459 -0.5554 -0.3676
vn 0.3435 0.0000 -0.9392
vn 0.3435 -0.0000 -0.9392
vn 0.1582 0.0000 0.9874
vn -0.7743 0.3278 0.5413
vn 0.9354 0.0000 0.3536
vn 0.0000 -1.0000 -0.0000
vn 0.0000 1.0000 -0.0000
vn 0.0000 1.0000 0.0000
# 23 vertex normals

vt 0.8777 0.5061 0.0000
vt 0.7424 0.5061 0.0000
vt 0.7424 0.4406 0.0000
vt 0.8777 0.4406 0.0000
vt 0.9682 0.5061 0.0000
vt 0.9682 0.4406 0.0000
vt 0.4755 0.5061 0.0000
vt 0.3693 0.5061 0.0000
vt 0.3693 0.4406 0.0000
vt 0.4755 0.4406 0.0000
vt 0.6046 0.5061 0.0000
vt 0.6046 0.4406 0.0000
vt 0.7123 0.5061 0.0000
vt 0.6345 0.5061 0.0000
vt 0.6345 0.4406 0.0000
vt 0.7123 0.4406 0.0000
vt 0.6046 0.2648 0.0000
vt 0.6345 0.2648 0.0000
vt 0.8777 0.2648 0.0000
vt 0.9682 0.2648 0.0000
vt 0.7123 0.2648 0.0000
vt 0.7424 0.2648 0.0000
vt 1.0257 -0.7234 0.0000
vt 0.9145 -0.7234 0.0000
vt 0.8971 -0.7511 0.0000
vt 1.1240 -0.7234 0.0000
vt 0.8971 -0.8340 0.0000
vt 0.9145 -0.8574 0.0000
vt 1.0257 -0.8574 0.0000
vt 1.1240 -0.8574 0.0000
vt 0.2367 0.5061 0.0000
vt 0.2367 0.4406 0.0000
vt 0.2367 0.2648 0.0000
vt 0.3693 0.2648 0.0000
vt 0.4755 0.2648 0.0000
# 35 texture coords

g ccp_metal_yy_gray_Cmn_dpn
usemtl Standardmaterial
s 1
f 30/25/27 31/26/27 32/27/27 
s 2
f 32/27/27 33/28/27 30/25/27 
s 3
f 34/29/28 30/25/28 33/28/28 
s 4
f 33/28/29 35/30/29 34/29/29 
s 5
f 36/31/30 37/32/30 38/33/30 
s 6
f 38/33/31 39/34/31 36/31/31 
s 7
f 40/35/32 36/31/32 39/34/32 
s 8
f 39/34/32 41/36/32 40/35/32 
s 9
f 42/37/33 43/38/33 44/39/33 
s 10
f 44/39/33 45/40/33 42/37/33 
s 11
f 31/26/34 42/37/34 45/40/34 
s 12
f 45/40/34 32/27/34 31/26/34 
s 13
f 44/39/35 41/36/35 46/41/35 
s 14
f 46/41/36 47/42/36 44/39/36 
s 15
f 48/43/37 49/44/37 35/30/37 
s 16
f 45/40/38 44/39/38 47/42/38 
s 17
f 47/42/39 50/45/39 45/40/39 
s 18
f 32/27/40 45/40/40 50/45/40 
s 19
f 50/45/41 51/46/41 32/27/41 
s 20
f 48/47/42 51/48/42 50/49/42 
s 21
f 49/50/42 48/47/42 50/49/42 
s 22
f 50/49/42 47/51/42 46/52/42 
s 23
f 49/50/43 50/49/43 46/52/43 
s 24
f 49/50/42 46/52/43 52/53/43 
s 25
f 49/50/43 52/53/43 53/54/43 
s 26
f 34/55/44 35/56/44 37/32/44 
s 27
f 37/32/44 35/56/44 38/33/44 
s 28
f 40/35/45 41/36/45 43/38/45 
s 29
f 43/38/45 41/36/45 44/39/45 
s 30
f 35/56/46 49/57/46 38/33/46 
s 31
f 38/33/46 49/57/46 53/58/46 
s 32
f 32/27/47 51/46/47 33/28/47 
s 33
f 51/46/47 48/43/47 33/28/47 
s 34
f 33/28/47 48/43/47 35/30/47 
s 35
f 38/33/48 53/58/49 39/34/48 
s 36
f 53/58/49 52/59/49 39/34/48 
s 37
f 39/34/48 52/59/49 41/36/48 
s 38
f 52/59/49 46/41/48 41/36/48 
# 0 polygons - 38 triangles

