# 3ds Max Wavefront OBJ Exporter v0.97b - (c)2007 guruware
# File Created: 27.12.2011 03:07:28

mtllib cpz_obj_breakboxtall_brk_004.mtl

#
# object cpz_obj_breakboxtall_brk_004
#

v  0.3600 -0.0180 0.0180
v  0.3600 -0.0180 -0.0180
v  0.3600 0.0180 -0.0180
v  0.3600 0.0180 0.0180
v  0.1800 0.1800 0.1800
v  0.1800 0.1800 -0.1800
v  0.1800 -0.1800 0.1800
v  0.1800 -0.1800 -0.1800
v  0.0000 0.0000 -0.0000
# 9 vertices

vn 1.0000 0.0000 -0.0000
vn 0.6690 0.7433 -0.0000
vn 0.6690 0.0000 0.7433
vn 0.6690 0.0000 -0.7433
vn 0.6690 -0.7433 -0.0000
vn -0.7071 0.0000 0.7071
vn -0.7071 0.7071 -0.0000
vn -0.7071 0.0000 -0.7071
vn -0.7071 -0.7071 -0.0000
# 9 vertex normals

g cpz_obj_breakboxtall_brk_004
usemtl wire_255255000
s 1
f 1//1 2//1 3//1 4//1 
s 2
f 5//2 4//2 3//2 6//2 
s 4
f 7//3 1//3 4//3 5//3 
s 8
f 2//4 8//4 6//4 3//4 
s 16
f 1//5 7//5 8//5 2//5 
s 32
f 9//6 7//6 5//6 
s 64
f 9//7 5//7 6//7 
s 128
f 9//8 6//8 8//8 
s 256
f 9//9 8//9 7//9 
# 5 polygons - 4 triangles

#
# object cpz_metal_yy_slop_cmn_dpn
#

v  33.7060 141.6100 -35.9566
v  33.7060 143.9013 -33.6652
v  35.9973 141.6100 -33.6652
v  15.7381 141.6100 -35.9566
v  33.7060 123.6421 -35.9566
v  33.7060 143.9013 -15.6973
v  15.7381 143.9013 -33.6652
v  35.9973 123.6421 -33.6652
v  35.9973 141.6100 -15.6973
v  33.3174 138.9300 -13.0174
v  31.0260 141.2214 -13.0174
v  13.0581 141.2214 -30.9853
v  13.0581 138.9300 -33.2766
v  31.0260 120.9621 -33.2766
v  33.3174 120.9621 -30.9853
v  33.6265 139.5467 -6.2212
v  33.6265 139.5467 -33.6265
v  31.6089 141.7067 -31.6089
v  31.6089 141.7067 -6.6013
v  9.9045 139.5467 -33.6265
v  9.3931 141.7067 -31.6089
v  33.6265 136.9559 -6.4616
v  24.6982 132.1527 -14.1258
v  27.7943 132.1527 -15.9440
v  29.5393 137.3018 -15.8751
v  31.8987 126.2227 -16.0558
v  30.5172 124.4720 -17.6891
v  33.2803 124.5500 -17.7670
v  6.8951 117.1038 -31.8781
v  8.5990 115.4035 -33.2679
v  8.5990 115.4035 -30.4883
v  20.9948 132.1527 -20.9948
v  17.3384 132.1527 -24.7088
v  27.7943 132.1527 -27.7943
v  9.4570 132.1527 -27.7943
v  24.6916 132.1527 -17.2397
v  33.6265 136.9559 -33.6265
v  29.7200 136.9559 -15.7117
v  14.7773 136.9559 -29.3520
v  9.9034 136.9559 -33.6265
v  10.3411 136.9559 -30.5648
v  26.9049 141.7067 -15.3047
v  15.4500 141.7067 -26.7509
v  10.4565 141.7067 -28.0891
v  10.5263 137.2540 -30.4123
v  14.7678 137.3018 -29.4080
v  25.3003 137.3018 -19.8735
v  27.5386 118.4725 -32.1814
v  31.3469 117.2869 -34.2451
v  32.2193 118.4725 -27.5007
v  34.2830 117.2869 -31.3091
# 51 vertices

vn 0.5774 0.5774 -0.5774
vn 0.0000 0.0000 -1.0000
vn 0.0000 1.0000 -0.0000
vn 1.0000 0.0000 -0.0000
vn -0.5774 -0.5773 0.5774
vn -0.5774 -0.5774 0.5774
vn -0.5774 -0.5773 0.5773
vn 0.7308 0.6826 -0.0000
vn 0.0000 0.6826 -0.7308
vn -0.2754 -0.0888 0.9572
vn 0.4981 -0.1802 0.8482
vn 0.0399 -0.6983 0.7147
vn -0.7064 -0.7079 -0.0000
vn 0.7071 0.0000 -0.7071
vn 0.0000 0.7071 -0.7071
vn 0.7071 0.7071 -0.0000
vn 0.4082 -0.8165 -0.4082
vn -0.4082 -0.4082 -0.8165
vn -0.8165 0.4083 -0.4083
vn -0.4082 0.8165 0.4082
vn 0.4082 0.4082 0.8165
vn 0.8165 -0.4082 0.4082
vn 0.8165 -0.4082 0.4083
vn 0.8165 -0.4083 0.4083
vn 0.0000 -1.0000 -0.0000
vn -0.2362 -0.4445 0.8641
vn -0.4032 -0.3962 0.8249
vn -0.2340 -0.4429 0.8655
vn -0.4932 -0.3752 0.7849
vn -0.7394 -0.4359 0.5130
vn -0.6984 -0.4608 0.5476
vn -0.8349 -0.3977 0.3805
vn -0.8612 -0.3550 0.3637
vn -0.9899 0.0004 0.1415
vn -0.9842 -0.1088 0.1398
vn -0.9910 -0.1300 0.0313
vn -0.9748 -0.1604 0.1551
vn -0.9496 -0.1264 0.2869
vn -0.2072 0.4807 0.8521
vn -0.2664 0.5276 0.8066
vn -0.3261 0.4985 0.8032
vn -0.5866 0.3663 0.7223
vn -0.6381 0.3698 0.6753
vn -0.6232 0.3712 0.6884
vn -0.6305 0.3798 0.6769
vn -0.7077 0.5272 0.4703
vn -0.7150 0.5636 0.4136
vn -0.7283 0.6853 0.0015
vn -0.1941 -0.9616 0.1941
# 49 vertex normals

vt 0.5924 -0.1578 0.0000
vt 0.5298 -0.1939 0.0000
vt 0.5924 -0.2300 0.0000
vt 0.6008 -0.9956 0.0000
vt 1.0012 -0.9956 0.0000
vt 1.0012 -0.6018 0.0000
vt 1.6006 0.0063 0.0000
vt 2.0010 0.0063 0.0000
vt 2.0010 0.4015 0.0000
vt 1.5996 -0.9956 0.0000
vt 2.0000 -0.9956 0.0000
vt 2.0000 -0.5992 0.0000
vt -0.4085 -0.1830 0.0000
vt -0.3947 -0.2041 0.0000
vt -0.1774 -0.2041 0.0000
vt -0.1636 -0.1830 0.0000
vt -0.2722 -0.0178 0.0000
vt -0.2999 -0.0178 0.0000
vt 1.3525 -0.5428 0.0000
vt 1.3525 -0.9079 0.0000
vt 1.3044 -0.9079 0.0000
vt 1.3044 -0.5535 0.0000
vt 1.3525 -0.5919 0.0000
vt 1.3044 -0.5930 0.0000
vt 0.3480 -0.8357 0.0000
vt 0.2265 -0.7535 0.0000
vt 0.2659 -0.8160 0.0000
vt 0.9560 -0.2297 0.0000
vt 0.9677 -0.1147 0.0000
vt 0.7841 -0.0288 0.0000
vt 0.5299 0.4241 0.0000
vt 0.4293 0.4023 0.0000
vt 0.5300 0.3240 0.0000
vt 0.3538 0.4026 0.0000
vt 0.2896 0.3240 0.0000
vt 0.4180 0.3240 0.0000
vt 2.0000 -1.0573 0.0000
vt 1.5996 -1.0573 0.0000
vt 1.0012 -1.0573 0.0000
vt 0.6008 -1.0573 0.0000
vt 2.0010 -0.0553 0.0000
vt 1.6006 -0.0553 0.0000
vt 1.5151 -1.0573 0.0000
vt 1.5151 -0.9956 0.0000
vt 0.5410 -0.9425 0.0000
vt 0.9415 -0.5421 0.0000
vt 0.5163 -1.0573 0.0000
vt 0.5163 -0.9956 0.0000
vt 1.5408 0.0608 0.0000
vt 1.9413 0.4612 0.0000
vt 1.5161 -0.0553 0.0000
vt 1.5161 0.0063 0.0000
vt 1.5398 -0.9399 0.0000
vt 1.9403 -0.5394 0.0000
vt 0.9884 -1.5901 0.0000
vt 0.9202 -1.5896 0.0000
vt 0.9883 -1.4605 0.0000
vt 0.8188 -1.6353 0.0000
vt 0.8787 -1.5734 0.0000
vt 0.9194 -1.5907 0.0000
vt 0.8906 -1.6203 0.0000
vt 1.4102 -0.9079 0.0000
vt 1.4102 -0.5464 0.0000
vt -0.0962 -0.3465 0.0000
vt -0.1302 -0.4251 0.0000
vt -0.0962 -0.5772 0.0000
vt -0.2605 -0.5409 0.0000
vt -0.3030 -0.5772 0.0000
vt -0.2992 -0.5512 0.0000
vt 0.8882 -0.2418 0.0000
vt 0.8882 -0.0132 0.0000
vt 0.8452 -0.1622 0.0000
vt 0.7405 -0.0576 0.0000
vt 0.6949 -0.0453 0.0000
vt 0.6851 -0.0132 0.0000
vt 1.4102 -0.5918 0.0000
vt 0.8265 -0.1209 0.0000
vt 0.7122 -0.1921 0.0000
vt 0.8896 -0.2646 0.0000
vt 0.7609 -0.3443 0.0000
vt 0.3281 -0.5721 0.0000
vt 0.4666 -0.6501 0.0000
vt 0.8827 -0.0510 0.0000
vt 0.9418 -0.0985 0.0000
vt 0.9541 -0.1842 0.0000
vt 0.2760 -0.7194 0.0000
vt 0.4652 -0.8206 0.0000
vt 0.3384 -0.5705 0.0000
vt 0.6126 -0.5435 0.0000
vt 0.7311 -0.4093 0.0000
vt 0.6540 -0.1869 0.0000
vt 0.8520 -0.2778 0.0000
vt 0.2896 0.3095 0.0000
vt 0.3503 0.1190 0.0000
vt 0.5952 0.3155 0.0000
vt 0.5420 0.1227 0.0000
# 96 texture coords

g cpz_metal_yy_slop_cmn_dpn
usemtl Standardmaterial
s 1
f 10/1/10 11/2/10 12/3/10 
s 2
f 13/4/11 10/5/11 14/6/11 
s 3
f 15/7/12 11/8/12 16/9/12 
s 4
f 17/10/13 12/11/13 18/12/13 
s 5
f 19/13/14 20/14/14 21/15/14 
s 6
f 21/15/15 22/16/15 23/17/15 
s 7
f 19/13/15 21/15/15 23/17/15 
s 8
f 24/18/16 19/13/16 23/17/16 
s 9
f 25/19/17 26/20/17 27/21/17 
s 10
f 27/21/17 28/22/17 25/19/17 
s 11
f 27/21/18 26/20/18 29/23/18 
s 12
f 29/23/18 30/24/18 27/21/18 
s 13
f 28/25/19 31/26/19 25/27/19 
s 14
f 32/28/20 33/29/20 34/30/20 
s 15
f 35/31/21 36/32/21 37/33/21 
s 16
f 38/34/22 39/35/22 40/36/22 
s 17
f 12/11/23 17/10/23 10/37/23 
s 18
f 10/37/23 17/10/23 14/38/23 
s 19
f 10/5/24 13/4/24 11/39/24 
s 20
f 11/39/24 13/4/24 16/40/24 
s 21
f 11/8/25 15/7/25 12/41/25 
s 22
f 12/41/25 15/7/25 18/42/25 
s 23
f 23/43/26 14/38/26 24/44/26 
s 24
f 24/44/26 14/38/26 17/10/26 
s 25
f 22/45/27 13/4/27 23/46/27 
s 26
f 23/46/27 13/4/27 14/6/27 
s 27
f 21/47/28 16/40/28 22/48/28 
s 28
f 22/48/28 16/40/28 13/4/28 
s 29
f 20/49/29 15/7/29 21/50/29 
s 30
f 21/50/29 15/7/29 16/9/29 
s 31
f 19/51/30 18/42/30 20/52/30 
s 32
f 20/52/30 18/42/30 15/7/30 
s 33
f 24/53/31 17/10/32 19/54/33 
s 34
f 19/54/33 17/10/32 18/12/33 
s 35
f 41/55/34 42/56/34 43/57/34 
s 36
f 43/57/34 42/56/34 44/58/34 
s 37
f 43/57/34 33/59/34 41/55/34 
s 38
f 41/55/34 33/59/34 45/60/34 
s 39
f 33/59/34 32/61/34 45/60/34 
s 40
f 46/62/13 26/20/13 31/63/13 
s 41
f 31/63/13 26/20/13 25/19/13 
s 42
f 31/64/34 47/65/34 46/66/34 
s 43
f 47/65/34 48/67/34 46/66/34 
s 44
f 46/66/34 48/67/34 49/68/34 
s 45
f 48/67/34 50/69/34 49/68/34 
s 46
f 28/70/12 27/71/12 51/72/12 
s 47
f 51/72/12 27/71/12 52/73/12 
s 48
f 52/73/12 27/71/12 53/74/12 
s 49
f 27/71/12 30/75/12 53/74/12 
s 50
f 46/62/11 49/76/11 26/20/11 
s 51
f 26/20/11 49/76/11 29/23/11 
s 52
f 50/77/35 48/78/36 53/79/37 
s 53
f 53/79/37 48/78/36 52/80/38 
s 54
f 48/78/36 47/81/39 52/80/38 
s 55
f 52/80/38 47/81/39 51/82/40 
s 56
f 51/82/40 47/81/39 28/25/41 
s 57
f 47/81/39 31/26/42 28/25/41 
s 58
f 49/83/43 50/77/44 29/84/45 
s 59
f 29/84/45 50/77/44 30/85/46 
s 60
f 50/77/44 53/79/47 30/85/46 
s 61
f 54/86/48 44/87/49 55/88/50 
s 62
f 44/87/49 42/89/51 55/88/50 
s 63
f 42/89/51 41/90/52 55/88/50 
s 64
f 55/88/53 41/90/52 56/91/54 
s 65
f 56/91/54 41/90/52 34/30/55 
s 66
f 41/90/52 45/92/56 34/30/55 
s 67
f 34/30/55 45/92/56 32/28/57 
s 68
f 57/93/58 58/94/58 59/95/58 
s 69
f 59/95/58 58/94/58 60/96/58 
# 0 polygons - 69 triangles

#
# object ccp_metal_yy_yelow_Cmn_dpn
#

v  27.7943 132.1527 -27.7943
v  31.3943 132.1527 -31.3943
v  31.3943 132.1527 -14.4750
v  27.7943 132.1527 -15.9440
v  9.2937 132.1527 -31.3943
v  9.4570 132.1527 -27.7943
v  9.7408 136.9317 -31.3943
v  31.3943 136.9317 -31.3943
v  31.3943 136.9317 -12.1664
v  29.5393 137.3018 -15.8751
v  10.5263 137.2540 -30.4123
# 11 vertices

vn 0.0000 -1.0000 -0.0000
vn 0.0000 0.0000 -1.0000
vn 1.0000 0.0000 -0.0000
vn -0.3449 -0.4083 0.8452
vn -0.7295 0.0090 0.6839
vn -0.6331 -0.1267 0.7636
vn -0.8468 0.2810 0.4516
vn -0.9730 0.2266 0.0442
vn -0.9023 0.1395 0.4080
vn -0.9693 0.2094 0.1291
vn -0.7905 0.0740 0.6080
# 11 vertex normals

vt -0.8822 -0.1762 0.0000
vt -0.9964 -0.2878 0.0000
vt -0.4579 -0.2878 0.0000
vt -0.5049 -0.1762 0.0000
vt 6.2926 -0.2878 0.0000
vt 6.9960 -0.2878 0.0000
vt 6.8818 -0.1762 0.0000
vt 6.2979 -0.1762 0.0000
vt 6.3065 -0.5345 0.0000
vt 6.9955 -0.5345 0.0000
vt -0.9960 -0.5345 0.0000
vt -0.3841 -0.5345 0.0000
vt -0.3553 -0.2861 0.0000
vt -0.3149 -0.5332 0.0000
vt 6.2441 -0.2878 0.0000
vt 6.2403 -0.5407 0.0000
# 16 texture coords

g ccp_metal_yy_yelow_Cmn_dpn
usemtl Standardmaterial
s 1
f 61/97/59 62/98/59 63/99/59 
s 2
f 63/99/59 64/100/59 61/97/59 
s 3
f 65/101/59 62/102/59 61/103/59 
s 4
f 61/103/59 66/104/59 65/101/59 
s 5
f 65/101/60 67/105/60 62/102/60 
s 6
f 62/102/60 67/105/60 68/106/60 
s 7
f 62/98/61 68/107/61 63/99/61 
s 8
f 63/99/61 68/107/61 69/108/61 
s 9
f 63/99/62 69/108/63 64/109/64 
s 10
f 64/109/64 69/108/63 70/110/65 
s 11
f 66/111/66 71/112/67 65/101/68 
s 12
f 65/101/68 71/112/67 67/105/69 
# 0 polygons - 12 triangles

#
# object cpz_yy1_road_cmn_dp
#

v  34.2830 117.2869 -31.3091
v  31.3469 117.2869 -34.2451
v  34.2830 135.9445 -31.3091
v  31.3469 135.9445 -34.2451
v  27.5386 118.4725 -32.1814
v  27.5386 139.5013 -32.1814
v  32.2193 118.4725 -27.5007
v  32.2193 139.5013 -27.5007
v  31.9133 138.3256 -28.1433
v  31.8987 126.2227 -16.0558
v  33.2948 136.6334 -29.8350
v  33.2803 124.5500 -17.7670
v  30.5318 136.6319 -29.8335
v  30.5172 124.4720 -17.6891
v  28.1186 138.2776 -31.8781
v  6.8951 117.1038 -31.8781
v  29.8226 136.5773 -30.4883
v  8.5990 115.4035 -30.4883
v  29.8226 136.5773 -33.2679
v  8.5990 115.4035 -33.2679
# 20 vertices

vn 0.7071 0.0000 -0.7071
vn -0.4764 0.0000 -0.8792
vn 0.8792 0.0000 0.4764
vn 0.8660 0.3528 0.3543
vn -0.0000 -0.7067 -0.7076
vn -0.3531 0.3540 0.8660
vn 0.7063 -0.7079 -0.0000
vn -0.3531 0.3540 -0.8660
vn -0.7071 0.0000 0.7071
vn -0.8660 0.3538 0.3533
# 10 vertex normals

vt 0.6641 0.4229 0.0000
vt 0.6641 0.3348 0.0000
vt 0.3182 0.4229 0.0000
vt 0.3182 0.3348 0.0000
vt 0.2593 0.4229 0.0000
vt 0.2593 0.3348 0.0000
vt 1.3838 -1.2785 0.0000
vt 1.3838 -0.9953 0.0000
vt 1.3483 -1.2785 0.0000
vt 1.3483 -0.9958 0.0000
vt 1.3839 -1.2785 0.0000
vt 1.3839 -0.9940 0.0000
vt 1.3839 -1.2769 0.0000
vt 1.3837 -0.7817 0.0000
vt 1.3482 -1.2769 0.0000
vt 1.3482 -0.7817 0.0000
vt 1.3839 -0.7817 0.0000
vt 1.3483 -1.2769 0.0000
vt 1.3482 -1.2785 0.0000
vt 1.3482 -0.9940 0.0000
# 20 texture coords

g cpz_yy1_road_cmn_dp
usemtl Standardmaterial
s 1
f 72/113/70 73/114/70 74/115/70 
s 2
f 74/115/70 73/114/70 75/116/70 
s 3
f 73/114/71 76/113/71 75/116/71 
s 4
f 75/116/71 76/113/71 77/117/71 
s 5
f 72/113/72 74/115/72 78/114/72 
s 6
f 78/114/72 74/115/72 79/118/72 
s 7
f 80/119/73 81/120/73 82/121/73 
s 8
f 82/121/73 81/120/73 83/122/73 
s 9
f 82/121/74 83/122/74 84/123/74 
s 10
f 84/123/74 83/122/74 85/124/74 
s 11
f 86/125/75 87/126/75 88/127/75 
s 12
f 88/127/75 87/126/75 89/128/75 
s 13
f 88/125/76 89/129/76 90/130/76 
s 14
f 90/130/76 89/129/76 91/128/76 
s 15
f 90/130/77 91/128/77 86/125/77 
s 16
f 86/125/77 91/128/77 87/126/77 
s 17
f 76/113/78 78/114/78 77/117/78 
s 18
f 77/117/78 78/114/78 79/118/78 
s 19
f 80/119/79 84/131/79 81/120/79 
s 20
f 81/120/79 84/131/79 85/132/79 
# 0 polygons - 20 triangles

#
# object cpz_glass_tn1_glasstube
#

v  8.7328 134.0728 -25.9767
v  21.9763 134.0728 -25.9767
v  8.5396 130.0552 -28.2118
v  23.8672 130.0552 -28.2118
v  11.8606 115.9872 -28.2118
v  4.7416 124.6151 -28.2118
v  23.8672 121.2193 -28.2118
v  28.2118 124.2741 -23.8672
v  28.2118 130.0552 -23.8672
v  28.2118 118.1468 -19.2331
v  28.2118 130.0552 -13.0757
v  28.2118 123.5441 -9.3880
v  25.9767 134.0728 -21.9763
v  25.9767 134.0728 -13.1890
v  9.1496 134.0728 -24.5300
v  8.9664 130.0552 -26.7652
v  21.4646 134.0728 -24.7297
v  23.2566 130.0552 -26.8492
v  26.8303 130.0552 -23.4740
v  24.5951 134.0728 -21.6808
v  26.8303 130.0552 -12.7086
v  24.5951 134.0728 -12.8161
v  26.8303 118.1468 -18.5475
v  26.8303 123.5441 -9.2117
v  26.8303 124.2741 -23.4740
v  23.2566 121.2193 -26.8492
v  12.1136 115.9872 -26.7652
v  5.3673 124.6151 -26.7652
# 28 vertices

vn 0.0000 0.4862 -0.8739
vn 0.2738 0.5628 -0.7800
vn -0.0000 0.2677 -0.9635
vn 0.3807 0.2821 -0.8806
vn -0.0000 -0.0000 -1.0000
vn 0.0000 0.0000 -1.0000
vn 0.2728 0.0000 -0.9621
vn 0.7071 0.0000 -0.7071
vn 0.8806 0.2821 -0.3807
vn 1.0000 0.0000 -0.0000
vn 1.0000 0.0000 0.0000
vn 0.9769 0.2136 0.0000
vn 0.7800 0.5628 -0.2738
vn 0.8739 0.4862 -0.0000
vn 0.0142 -0.4866 0.8735
vn 0.0074 -0.2061 0.9785
vn -0.2671 -0.5453 0.7945
vn -0.3667 -0.2709 0.8900
vn -0.8775 -0.2775 0.3911
vn -0.7785 -0.5598 0.2839
vn -0.9766 -0.2151 -0.0000
vn -0.8739 -0.4862 -0.0000
vn -1.0000 -0.0000 -0.0000
vn -1.0000 -0.0000 0.0000
vn -0.9304 0.0000 0.3665
vn -0.2408 0.0000 0.9706
vn 0.0049 0.0007 1.0000
vn 0.0000 0.0000 1.0000
vn -0.9551 -0.1095 0.2752
vn -0.9548 -0.1097 0.2761
vn -0.9468 0.1607 0.2787
vn -0.9204 0.2812 0.2716
vn -0.8098 0.5358 0.2390
vn -0.7728 0.5395 0.3342
vn 0.2569 0.1684 0.9517
vn 0.2385 0.3129 0.9194
vn 0.2563 0.1683 0.9518
vn 0.2405 0.3506 0.9051
vn 0.1252 0.4717 0.8728
vn 0.1117 0.4702 0.8755
vn -0.2214 -0.5882 -0.7778
vn -0.3469 -0.5854 -0.7328
vn -0.2373 -0.5885 -0.7729
vn -0.3607 -0.5844 -0.7269
vn 0.2320 -0.8529 0.4676
vn 0.0771 -0.8640 0.4975
vn 0.2212 -0.8544 0.4701
vn 0.0638 -0.8640 0.4995
vn 0.1354 -0.8691 0.4757
vn 0.1778 -0.8740 0.4523
vn 0.4223 -0.8783 0.2242
vn 0.4484 -0.8728 0.1929
vn 0.4220 -0.9049 -0.0547
vn 0.4234 -0.9029 -0.0741
vn -0.7317 -0.6037 0.3165
vn -0.7774 -0.6105 0.1517
vn -0.7362 -0.6049 0.3035
vn -0.7804 -0.6102 0.1365
vn 0.0000 1.0000 -0.0000
# 59 vertex normals

vt 0.3319 -0.0000 0.0000
vt 0.0770 -0.0000 0.0000
vt 0.3487 -0.0769 0.0000
vt 0.0770 -0.0769 0.0000
vt 0.2898 -0.3463 0.0000
vt 0.4160 -0.1811 0.0000
vt 0.0770 -0.2461 0.0000
vt 0.9230 -0.1876 0.0000
vt 0.9230 -0.0769 0.0000
vt 0.8409 -0.3049 0.0000
vt 0.7317 -0.0769 0.0000
vt 0.6664 -0.2016 0.0000
vt 0.9230 -0.0000 0.0000
vt 0.7539 -0.0000 0.0000
vt 3.7825 -0.9655 0.0000
vt 3.7825 -0.7744 0.0000
vt 3.4559 -0.9655 0.0000
vt 3.4559 -0.7744 0.0000
vt 3.0137 -0.9655 0.0000
vt 3.0137 -0.7744 0.0000
vt -1.1497 -0.9655 0.0000
vt -0.7967 -0.9655 0.0000
vt -1.1497 -0.7744 0.0000
vt -0.7967 -0.7744 0.0000
vt -0.2568 -0.7744 0.0000
vt -0.2568 -0.9655 0.0000
vt 1.0168 -0.7744 0.0000
vt 0.4941 -0.7744 0.0000
vt 1.0168 -0.9655 0.0000
vt 0.4941 -0.9655 0.0000
vt 1.3901 -0.7744 0.0000
vt 1.4132 -0.9655 0.0000
vt 2.3123 -0.7744 0.0000
vt 2.3123 -0.9655 0.0000
vt 4.8230 -0.7744 0.0000
vt 4.8230 -0.9655 0.0000
vt -1.9006 -0.9655 0.0000
vt -1.9006 -0.7744 0.0000
# 38 texture coords

g cpz_glass_tn1_glasstube
usemtl Standardmaterial
s 1
f 92/133/80 93/134/81 94/135/82 
s 2
f 93/134/81 95/136/83 94/135/82 
s 3
f 95/136/83 96/137/84 94/135/82 
s 4
f 94/135/85 96/137/84 97/138/85 
s 5
f 96/137/84 95/136/83 98/139/86 
s 6
f 98/139/86 95/136/83 99/140/87 
s 7
f 95/136/83 100/141/88 99/140/87 
s 8
f 99/140/89 100/141/88 101/142/90 
s 9
f 100/141/88 102/143/91 101/142/90 
s 10
f 101/142/90 102/143/91 103/144/89 
s 11
f 100/141/88 104/145/92 102/143/91 
s 12
f 102/143/91 104/145/92 105/146/93 
s 13
f 104/145/92 100/141/88 93/134/81 
s 14
f 93/134/81 100/141/88 95/136/83 
s 15
f 106/133/94 107/135/95 108/134/96 
s 16
f 107/135/95 109/136/97 108/134/96 
s 17
f 109/136/97 110/141/98 108/134/96 
s 18
f 108/134/96 110/141/98 111/145/99 
s 19
f 110/141/98 112/143/100 111/145/99 
s 20
f 111/145/99 112/143/100 113/146/101 
s 21
f 110/141/98 114/142/102 112/143/100 
s 22
f 112/143/100 114/142/102 115/144/103 
s 23
f 114/142/102 110/141/98 116/140/104 
s 24
f 110/141/98 109/136/97 116/140/104 
s 25
f 116/140/104 109/136/97 117/139/105 
s 26
f 117/139/105 109/136/97 118/137/106 
s 27
f 109/136/97 107/135/95 118/137/106 
s 28
f 118/137/106 107/135/95 119/138/107 
s 29
f 106/147/108 92/148/109 107/149/110 
s 30
f 92/148/109 94/150/111 107/149/110 
s 31
f 107/149/110 94/150/111 119/151/112 
s 32
f 94/150/113 97/152/113 119/151/113 
s 33
f 113/153/114 112/154/115 105/155/116 
s 34
f 105/155/116 112/154/115 102/156/117 
s 35
f 102/156/117 112/154/115 103/157/118 
s 36
f 112/154/115 115/158/119 103/157/118 
s 37
f 99/159/120 101/160/121 116/161/122 
s 38
f 116/161/122 101/160/121 114/162/123 
s 39
f 101/160/124 103/157/125 114/162/126 
s 40
f 114/162/126 103/157/125 115/158/127 
s 41
f 99/159/128 116/161/129 98/163/130 
s 42
f 116/161/129 117/164/131 98/163/130 
s 43
f 98/163/130 117/164/131 96/165/132 
s 44
f 117/164/131 118/166/133 96/165/132 
s 45
f 97/152/134 96/165/135 119/151/136 
s 46
f 119/151/136 96/165/135 118/166/137 
s 47
f 93/167/138 92/148/138 108/168/138 
s 48
f 108/168/138 92/148/138 106/147/138 
s 49
f 113/153/138 105/155/138 111/169/138 
s 50
f 111/169/138 105/155/138 104/170/138 
# 0 polygons - 50 triangles

